<?xml version="1.0" encoding="UTF-8"?>
<svg version="1.1" xmlns="http://www.w3.org/2000/svg" width="1024" height="1026">
<path d="M0 0 C337.92 0 675.84 0 1024 0 C1024 338.58 1024 677.16 1024 1026 C686.08 1026 348.16 1026 0 1026 C0 687.42 0 348.84 0 0 Z " fill="#4CDCC5" transform="translate(0,0)"/>
<path d="M0 0 C177.54 0 355.08 0 538 0 C538 211.86 538 423.72 538 642 C360.46 642 182.92 642 0 642 C0 430.14 0 218.28 0 0 Z " fill="#304A5E" transform="translate(243,192)"/>
<path d="M0 0 C153.12 0 306.24 0 464 0 C464 33.99 464 67.98 464 103 C310.88 103 157.76 103 0 103 C0 69.01 0 35.02 0 0 Z " fill="#E5E9EF" transform="translate(280,235)"/>
<path d="M0 0 C0.69903175 -0.00467997 1.3980635 -0.00935994 2.11827803 -0.01418173 C4.45441274 -0.02612248 6.78995983 -0.01667847 9.12609863 -0.00723267 C10.80343467 -0.01129879 12.48076803 -0.0166409 14.15809631 -0.02316284 C18.70971051 -0.03683744 23.26112066 -0.0315372 27.81273842 -0.02202559 C32.57633641 -0.01442975 37.33991695 -0.02147439 42.10351562 -0.02618408 C50.10309994 -0.03164185 58.10260116 -0.02444945 66.10217285 -0.01016235 C75.3504596 0.0061642 84.59854795 0.00087571 93.84682989 -0.01564157 C101.78751241 -0.02925582 109.72813521 -0.03117639 117.66882563 -0.02332556 C122.41132516 -0.01864871 127.15373144 -0.01802453 131.89622498 -0.02793503 C136.3548556 -0.03660152 140.81323043 -0.03058861 145.27183342 -0.01325226 C146.90809136 -0.00928572 148.54437082 -0.01042434 150.18062019 -0.01704025 C152.41440518 -0.02523943 154.64737073 -0.0149547 156.88110352 0 C158.13101326 0.00113108 159.380923 0.00226215 160.6687088 0.00342751 C165.52386533 0.56364245 168.00971133 2.32082711 171.19055176 5.94345093 C173.86479176 9.66828522 174.07589541 11.63861365 174.11755371 16.20419312 C174.13680656 18.03684723 174.13680656 18.03684723 174.15644836 19.90652466 C174.164617 21.24695429 174.1720605 22.58738851 174.17883301 23.92782593 C174.18290854 24.60252174 174.18698406 25.27721756 174.19118309 25.9723587 C174.21204616 29.54540196 174.22634521 33.11840681 174.23571777 36.6914978 C174.24676608 40.37473832 174.28114591 44.05737198 174.32088947 47.74039841 C174.34709332 50.57837004 174.35541302 53.41619813 174.35899925 56.25428009 C174.3662136 58.26947137 174.39263947 60.2845644 174.41938782 62.29959106 C174.39265279 73.57984044 174.39265279 73.57984044 169.94055176 78.38095093 C169.42492676 78.97907593 168.90930176 79.57720093 168.37805176 80.19345093 C165.03087219 82.95851231 161.25234444 82.51402799 157.12834167 82.52812195 C156.08341567 82.53363698 156.08341567 82.53363698 155.01738006 82.53926343 C152.67755421 82.55029751 150.33777278 82.55414361 147.9979248 82.55795288 C146.32250833 82.56421768 144.64709325 82.57086449 142.97167969 82.5778656 C138.41581948 82.59527216 133.85996976 82.60582617 129.30408454 82.61407113 C126.45819717 82.61922145 123.61231306 82.62529713 120.76642799 82.63158226 C111.86358015 82.65063239 102.9607406 82.66486457 94.05787629 82.67319423 C83.77842713 82.68297053 73.49919307 82.70930103 63.21981972 82.74969512 C55.27578029 82.779842 47.33180258 82.7946617 39.38770705 82.79797524 C34.64228735 82.80032711 29.8970975 82.80930546 25.15173912 82.83443642 C20.68736871 82.85769759 16.22337982 82.86195831 11.75896454 82.85167503 C10.12149856 82.85117911 8.48401392 82.85751636 6.8466053 82.87123108 C4.60851722 82.88892652 2.37180195 82.88185693 0.13371277 82.86869812 C-1.11787282 82.87108647 -2.36945841 82.87347483 -3.65897083 82.87593555 C-7.73061003 82.28325442 -9.87697046 80.9457618 -13.05944824 78.38095093 C-15.71454024 74.26802781 -16.43843912 71.07998632 -16.46350098 66.22714233 C-16.47618515 65.03215118 -16.48886932 63.83716003 -16.50193787 62.60595703 C-16.49900223 61.32772064 -16.49606659 60.04948425 -16.49304199 58.73251343 C-16.49760964 57.39261614 -16.50291694 56.05272119 -16.50892639 54.71282959 C-16.51783734 51.91037454 -16.51545859 49.10820475 -16.50549316 46.30575562 C-16.49401889 42.73258557 -16.51419989 39.1604061 -16.5434103 35.5873661 C-16.56185105 32.82132822 -16.56146414 30.05552415 -16.55577278 27.28944016 C-16.55554691 25.33754021 -16.57237594 23.38566199 -16.58958435 21.43383789 C-16.48854018 8.49443527 -16.48854018 8.49443527 -12.05944824 3.38095093 C-7.97492811 0.38212217 -5.01966912 0.00454243 0 0 Z " fill="#FC8469" transform="translate(326.0594482421875,391.6190490722656)"/>
<path d="M0 0 C1.24156357 -0.00945648 2.48312714 -0.01891296 3.76231384 -0.02865601 C5.10920533 -0.02328535 6.45609389 -0.01713217 7.80297852 -0.01025391 C9.19393567 -0.01227673 10.58489179 -0.01518991 11.97584534 -0.01895142 C14.88683194 -0.02336647 17.79754176 -0.01697146 20.70849609 -0.00292969 C24.42859454 0.01414617 28.14804282 0.00432661 31.86811733 -0.01364708 C34.73957663 -0.02452095 37.61088344 -0.02102191 40.48234749 -0.0132637 C41.85339498 -0.0112708 43.22445659 -0.01368885 44.59548759 -0.02070236 C46.51678047 -0.0283736 48.43812225 -0.01459634 50.359375 0 C51.99555031 0.00358017 51.99555031 0.00358017 53.66477966 0.00723267 C58.47941386 0.60280882 61.73478779 2.32401381 65.05688477 5.82568359 C67.9162048 10.16761401 67.87430068 13.89658299 67.89828491 19.04144287 C67.90485829 20.04265651 67.90485829 20.04265651 67.91156447 21.06409669 C67.92491277 23.29940723 67.93112233 25.53467839 67.93725586 27.77001953 C67.94515989 29.37337419 67.95342903 30.97672709 67.96203613 32.58007812 C67.98821913 37.84422109 68.00355903 43.10837186 68.01782227 48.37255859 C68.02318328 50.18638361 68.02856079 52.00020859 68.03395462 53.81403351 C68.05557696 61.35969733 68.07431328 68.90535904 68.08557701 76.45104599 C68.10181516 87.25708928 68.13499703 98.06277297 68.19197786 108.86868072 C68.23069846 116.47137129 68.25021215 124.07396575 68.25549757 131.67675233 C68.25914783 136.21548943 68.27113452 140.75384266 68.30360031 145.29247284 C68.33371878 149.56404547 68.33997951 153.83500271 68.32821655 158.10665894 C68.32799614 159.67073106 68.33627459 161.23483207 68.35387039 162.79880524 C68.50925797 177.41033473 68.50925797 177.41033473 64.2111311 182.96825695 C60.09629878 186.95174061 56.04542865 187.76406895 50.48291016 187.79223633 C49.26467056 187.8049205 48.04643097 187.81760468 46.79127502 187.83067322 C45.4880278 187.82773758 44.18478058 187.82480194 42.84204102 187.82177734 C41.4773279 187.82634429 40.11261707 187.83165138 38.74790955 187.83766174 C35.89418162 187.84657251 33.04073384 187.84419338 30.18701172 187.83422852 C26.54424868 187.82274292 22.90245566 187.84295283 19.25981998 187.87214565 C16.44321125 187.89056229 13.62683264 187.89020444 10.81017876 187.88450813 C8.81890097 187.88428182 6.82764463 187.90112885 4.83644104 187.9183197 C-6.93264015 187.82792678 -6.93264015 187.82792678 -12.25561523 183.38818359 C-14.99230698 178.90500026 -15.63295196 175.54596594 -15.64329529 170.32910156 C-15.64868083 169.64217161 -15.65406636 168.95524166 -15.6596151 168.24749565 C-15.67386032 165.95826899 -15.66679984 163.66962338 -15.65966797 161.38037109 C-15.6653733 159.73406511 -15.67233819 158.08776309 -15.6804657 156.44146729 C-15.6983928 151.97869497 -15.69722976 147.51611933 -15.69152331 143.05332184 C-15.68843127 139.32557957 -15.69452398 135.59787506 -15.70056206 131.87013817 C-15.71460377 123.07599109 -15.71304852 114.28194117 -15.70166016 105.48779297 C-15.69017482 96.41839321 -15.70426236 87.34928902 -15.73105663 78.27992821 C-15.75321218 70.48867397 -15.75985147 62.69751252 -15.75398022 54.90622902 C-15.75060963 50.25477646 -15.75303269 45.60351344 -15.77023125 40.9520874 C-15.78569637 36.57874375 -15.78174981 32.20583822 -15.7629261 27.8325119 C-15.75923923 26.22892084 -15.76235161 24.62529733 -15.77281189 23.02173615 C-15.78601751 20.82974146 -15.77448045 18.63919827 -15.75682068 16.44726562 C-15.75661139 15.22169952 -15.75640211 13.99613342 -15.75618649 12.73342896 C-15.0150102 7.78025488 -12.80602539 4.60453567 -8.89659119 1.53744507 C-5.74668768 0.16671591 -3.43230795 0.00751583 0 0 Z " fill="#F6B54C" transform="translate(647.255615234375,601.61181640625)"/>
<path d="M0 0 C1.25835663 -0.01260864 2.51671326 -0.02521729 3.8132019 -0.03820801 C5.17902182 -0.03104637 6.54483662 -0.02284193 7.91064453 -0.01367188 C9.32162747 -0.01636917 10.7326086 -0.02025356 12.14358521 -0.02526855 C15.0975315 -0.03115646 18.05099302 -0.02262692 21.00488281 -0.00390625 C24.77661861 0.01884197 28.54721317 0.00578349 32.31890678 -0.01819611 C35.23247744 -0.03270968 38.14578144 -0.02802222 41.0593605 -0.01768494 C42.44911969 -0.01503076 43.83890369 -0.01824105 45.22863388 -0.02760315 C59.03474595 -0.10018541 59.03474595 -0.10018541 64.66845703 4.51757812 C67.47742349 8.35158453 68.04631215 11.05641469 68.05664062 15.77319336 C68.06609711 17.01475693 68.07555359 18.2563205 68.08529663 19.5355072 C68.07992598 20.88239869 68.07377279 22.22928725 68.06689453 23.57617188 C68.06891736 24.96712903 68.07183054 26.35808515 68.07559204 27.7490387 C68.08000709 30.6600253 68.07361209 33.57073512 68.05957031 36.48168945 C68.04249445 40.2017879 68.05231402 43.92123618 68.0702877 47.64131069 C68.08116157 50.51276999 68.07766253 53.3840768 68.06990433 56.25554085 C68.06791142 57.62658834 68.07032948 58.99764995 68.07734299 60.36868095 C68.08501423 62.28997383 68.07123696 64.21131561 68.05664062 66.13256836 C68.05425385 67.2233519 68.05186707 68.31413544 68.04940796 69.43797302 C67.41539158 74.5633578 65.84326034 77.52805754 61.88951111 80.85824585 C58.3199454 82.69711457 56.12284636 83.03406478 52.1315918 83.06689453 C50.21413902 83.09549057 50.21413902 83.09549057 48.25794983 83.12466431 C46.87525319 83.1241414 45.49255649 83.12226704 44.10986328 83.11914062 C42.67788704 83.12692438 41.24591537 83.13559574 39.81394958 83.14511108 C36.81892907 83.15999618 33.82438022 83.15948228 30.8293457 83.14892578 C27.00459346 83.13733686 23.18177857 83.17120778 19.35734653 83.21761513 C16.40171664 83.24718149 13.44654864 83.24882136 10.49079704 83.24259567 C9.08146259 83.24361746 7.6721007 83.25400596 6.26291084 83.27421951 C-6.08641894 83.4296445 -6.08641894 83.4296445 -10.62475586 79.72216797 C-14.61731746 75.64881 -15.5819484 72.12193058 -15.62207031 66.46728516 C-15.63483002 65.24566681 -15.64758972 64.02404846 -15.66073608 62.76541138 C-15.66407455 60.7903511 -15.66407455 60.7903511 -15.66748047 58.77539062 C-15.67391118 57.40542462 -15.68063974 56.03545998 -15.68765259 54.66549683 C-15.69961628 51.79568296 -15.70333438 48.92598938 -15.70214844 46.05615234 C-15.70194534 42.3886172 -15.72924066 38.72185775 -15.76369286 35.0545063 C-15.78599136 32.22509253 -15.78998509 29.39586454 -15.78892899 26.56637192 C-15.79242013 24.56006887 -15.81406526 22.5538238 -15.83602905 20.54763794 C-15.77887298 9.14177437 -15.77887298 9.14177437 -11.33154297 4.51757812 C-7.51428851 0.92278514 -5.22836049 0.01506114 0 0 Z " fill="#FDFEFE" transform="translate(539.33154296875,601.482421875)"/>
<path d="M0 0 C1.89237648 -0.01407143 1.89237648 -0.01407143 3.82298279 -0.02842712 C5.19197266 -0.01794729 6.56095596 -0.00657807 7.92993164 0.00561523 C9.34330825 0.00546013 10.75668529 0.00396927 12.1700592 0.00120544 C15.12821319 -0.00017683 18.08588133 0.0123482 21.04394531 0.03515625 C24.82460282 0.06351499 28.60445196 0.06080866 32.38516903 0.04806614 C35.3029717 0.0410903 38.22058955 0.04892024 41.13836861 0.06132317 C42.53173678 0.06582106 43.92512491 0.06618906 45.3184948 0.06225777 C47.27095707 0.05932784 49.22341496 0.07807577 51.17578125 0.09765625 C52.28432968 0.10305923 53.39287811 0.10846222 54.53501892 0.11402893 C59.30887841 0.70767421 62.58513901 2.45304969 65.99658203 5.80444336 C69.10641847 11.06193355 68.20230409 17.75813158 68.14868164 23.65795898 C68.1488368 25.04748612 68.15032855 26.43701369 68.15309143 27.82653809 C68.15447221 30.73164114 68.14197227 33.63624856 68.11914062 36.54125977 C68.09075623 40.2535117 68.09349726 43.9649409 68.10623074 47.67725372 C68.11320629 50.54444327 68.1053774 53.41144471 68.09297371 56.27861023 C68.08847738 57.64685849 68.08810643 59.01512708 68.09203911 60.38337708 C68.09496945 62.29980825 68.07621963 64.21623496 68.05664062 66.13256836 C68.05123764 67.22033569 68.04583466 68.30810303 68.04026794 69.42883301 C67.39448471 74.54751727 65.82413441 77.51493155 61.87364197 80.84237671 C58.30407626 82.68124543 56.10697722 83.01819564 52.11572266 83.05102539 C50.19826988 83.07962143 50.19826988 83.07962143 48.24208069 83.10879517 C46.85938405 83.10827226 45.47668735 83.10639789 44.09399414 83.10327148 C42.6620179 83.11105524 41.23004623 83.1197266 39.79808044 83.12924194 C36.80305993 83.14412704 33.80851108 83.14361314 30.81347656 83.13305664 C26.98872432 83.12146771 23.16590942 83.15533864 19.34147739 83.20174599 C16.3858475 83.23131235 13.4306795 83.23295222 10.4749279 83.22672653 C9.06559345 83.22774832 7.65623156 83.23813682 6.2470417 83.25835037 C-6.09880042 83.41373147 -6.09880042 83.41373147 -10.640625 79.76879883 C-14.77308139 75.6497818 -15.59692504 71.10259782 -15.63793945 65.4296875 C-15.65069916 64.22816544 -15.66345886 63.02664337 -15.67660522 61.78871155 C-15.67883087 60.49903976 -15.68105652 59.20936798 -15.68334961 57.88061523 C-15.68978261 56.5344987 -15.69651134 55.18838355 -15.70352173 53.8422699 C-15.71547228 51.02551025 -15.71920477 48.20887304 -15.71801758 45.39208984 C-15.71781429 41.79295918 -15.74513465 38.19461731 -15.779562 34.59567356 C-15.8018597 31.8168735 -15.80585429 29.0382626 -15.80479813 26.25938225 C-15.80828734 24.2907463 -15.8299282 22.32216939 -15.85189819 20.35365295 C-15.79470654 9.15677203 -15.79470654 9.15677203 -11.34741211 4.50170898 C-7.52433028 0.89646191 -5.23897009 0.00078587 0 0 Z " fill="#FDFEFE" transform="translate(539.347412109375,496.498291015625)"/>
<path d="M0 0 C1.89721802 -0.01418472 1.89721802 -0.01418472 3.83276367 -0.02865601 C5.20491857 -0.02328597 6.57707059 -0.01713293 7.94921875 -0.01025391 C9.36499176 -0.01227645 10.78076375 -0.0151894 12.1965332 -0.01895142 C15.15879265 -0.02336631 18.12078007 -0.01697097 21.08300781 -0.00292969 C24.87270257 0.01416209 28.66175988 0.00431637 32.45143127 -0.01364708 C35.3734616 -0.02450773 38.29534176 -0.0210282 41.21737671 -0.0132637 C42.61437049 -0.01126798 44.01137807 -0.01369886 45.40835571 -0.02070236 C47.36338018 -0.02835351 49.3184527 -0.01461662 51.2734375 0 C52.38420654 0.00238678 53.49497559 0.00477356 54.6394043 0.00723267 C59.30470554 0.60018041 61.82756905 2.46665199 64.88671875 5.95068359 C67.56095875 9.67551789 67.7720624 11.64584631 67.8137207 16.21142578 C67.83297356 18.0440799 67.83297356 18.0440799 67.85261536 19.91375732 C67.86078399 21.25418696 67.86822749 22.59462118 67.875 23.93505859 C67.87907553 24.60975441 67.88315105 25.28445023 67.88735008 25.97959137 C67.90821315 29.55263462 67.92251221 33.12563947 67.93188477 36.69873047 C67.94293307 40.38197099 67.9773129 44.06460465 68.01705647 47.74763107 C68.04326032 50.58560271 68.05158001 53.4234308 68.05516624 56.26151276 C68.06238059 58.27670404 68.08880646 60.29179706 68.11555481 62.30682373 C68.08838033 73.77249091 68.08838033 73.77249091 63.63671875 78.38818359 C59.79539383 82.01251169 57.47690336 82.89256509 52.21337891 82.92163086 C50.93500153 82.93746719 49.65662415 82.95330353 48.33950806 82.96961975 C46.9515954 82.96577748 45.56368561 82.96073799 44.17578125 82.95458984 C42.74237668 82.95982913 41.30897556 82.96610672 39.87557983 82.97337341 C36.87457026 82.98376743 33.8740351 82.97923265 30.87304688 82.96459961 C27.04061459 82.94743568 23.209685 82.97087998 19.37742043 83.00608921 C16.41751301 83.02813029 13.45796123 83.02660541 10.49799728 83.0183239 C9.08589406 83.01750758 7.67376388 83.02430972 6.26173782 83.03909492 C-6.11010912 83.14876417 -6.11010912 83.14876417 -10.65869141 80.16137695 C-14.92891091 75.78284082 -15.61175578 72.1450937 -15.65380859 66.13256836 C-15.6665683 64.89100479 -15.679328 63.64944122 -15.69247437 62.37025452 C-15.69553189 61.02336789 -15.69775972 59.67647915 -15.69921875 58.32958984 C-15.70565129 56.93863286 -15.71237998 55.54767721 -15.71939087 54.15672302 C-15.73134314 51.24580753 -15.73507373 48.33501055 -15.73388672 45.42407227 C-15.73368343 41.70388389 -15.76100379 37.98445858 -15.79543114 34.26445103 C-15.81772432 31.39300582 -15.82172357 28.52174374 -15.82066727 25.65022087 C-15.82301889 24.27914738 -15.83181776 22.9080685 -15.847332 21.53708076 C-15.97074965 9.50641697 -15.97074965 9.50641697 -13.64697266 5.6887207 C-9.36100575 1.37113826 -6.07663218 0.01305724 0 0 Z " fill="#FDFEFE" transform="translate(432.36328125,496.61181640625)"/>
<path d="M0 0 C1.89721802 -0.01418472 1.89721802 -0.01418472 3.83276367 -0.02865601 C5.20491857 -0.02328597 6.57707059 -0.01713293 7.94921875 -0.01025391 C9.36499176 -0.01227645 10.78076375 -0.0151894 12.1965332 -0.01895142 C15.15879265 -0.02336631 18.12078007 -0.01697097 21.08300781 -0.00292969 C24.87270257 0.01416209 28.66175988 0.00431637 32.45143127 -0.01364708 C35.3734616 -0.02450773 38.29534176 -0.0210282 41.21737671 -0.0132637 C42.61437049 -0.01126798 44.01137807 -0.01369886 45.40835571 -0.02070236 C47.36338018 -0.02835351 49.3184527 -0.01461662 51.2734375 0 C52.38420654 0.00238678 53.49497559 0.00477356 54.6394043 0.00723267 C59.30470554 0.60018041 61.82756905 2.46665199 64.88671875 5.95068359 C67.56095875 9.67551789 67.7720624 11.64584631 67.8137207 16.21142578 C67.83297356 18.0440799 67.83297356 18.0440799 67.85261536 19.91375732 C67.86078399 21.25418696 67.86822749 22.59462118 67.875 23.93505859 C67.87907553 24.60975441 67.88315105 25.28445023 67.88735008 25.97959137 C67.90821315 29.55263462 67.92251221 33.12563947 67.93188477 36.69873047 C67.94293307 40.38197099 67.9773129 44.06460465 68.01705647 47.74763107 C68.04326032 50.58560271 68.05158001 53.4234308 68.05516624 56.26151276 C68.06238059 58.27670404 68.08880646 60.29179706 68.11555481 62.30682373 C68.08838033 73.77249091 68.08838033 73.77249091 63.63671875 78.38818359 C59.79539383 82.01251169 57.47690336 82.89256509 52.21337891 82.92163086 C50.93500153 82.93746719 49.65662415 82.95330353 48.33950806 82.96961975 C46.9515954 82.96577748 45.56368561 82.96073799 44.17578125 82.95458984 C42.74237668 82.95982913 41.30897556 82.96610672 39.87557983 82.97337341 C36.87457026 82.98376743 33.8740351 82.97923265 30.87304688 82.96459961 C27.04061459 82.94743568 23.209685 82.97087998 19.37742043 83.00608921 C16.41751301 83.02813029 13.45796123 83.02660541 10.49799728 83.0183239 C9.08589406 83.01750758 7.67376388 83.02430972 6.26173782 83.03909492 C-6.11010912 83.14876417 -6.11010912 83.14876417 -10.65869141 80.16137695 C-14.92891091 75.78284082 -15.61175578 72.1450937 -15.65380859 66.13256836 C-15.6665683 64.89100479 -15.679328 63.64944122 -15.69247437 62.37025452 C-15.69553189 61.02336789 -15.69775972 59.67647915 -15.69921875 58.32958984 C-15.70565129 56.93863286 -15.71237998 55.54767721 -15.71939087 54.15672302 C-15.73134314 51.24580753 -15.73507373 48.33501055 -15.73388672 45.42407227 C-15.73368343 41.70388389 -15.76100379 37.98445858 -15.79543114 34.26445103 C-15.81772432 31.39300582 -15.82172357 28.52174374 -15.82066727 25.65022087 C-15.82301889 24.27914738 -15.83181776 22.9080685 -15.847332 21.53708076 C-15.97074965 9.50641697 -15.97074965 9.50641697 -13.64697266 5.6887207 C-9.36100575 1.37113826 -6.07663218 0.01305724 0 0 Z " fill="#FDFEFE" transform="translate(432.36328125,601.61181640625)"/>
<path d="M0 0 C1.40955285 -0.0008297 2.81910559 -0.0032929 4.22865295 -0.00730896 C7.17674025 -0.01016062 10.12406518 0.00446843 13.07202148 0.03198242 C16.8359204 0.06603428 20.59845427 0.06005229 24.36241817 0.04131985 C27.27172559 0.03070905 30.18071988 0.03972478 33.08999825 0.05470467 C34.47695547 0.05985927 35.86394577 0.05943797 37.25089836 0.05315971 C51.02032276 0.01422716 51.02032276 0.01422716 56.66015625 4.62890625 C59.46095452 8.45519671 60.04081596 11.16244721 60.06420898 15.86865234 C60.07689316 17.10698822 60.08957733 18.3453241 60.10264587 19.6211853 C60.10059398 20.96490649 60.09760558 22.30862653 60.09375 23.65234375 C60.0983153 25.04090632 60.10362192 26.42946663 60.1096344 27.81802368 C60.11855497 30.7248046 60.11615555 33.63131064 60.10620117 36.53808594 C60.09472595 40.24925271 60.11490463 43.95946589 60.14411831 47.67050743 C60.1625353 50.53772943 60.16217681 53.40472537 60.15648079 56.27199173 C60.15632817 57.63943441 60.16232307 59.006893 60.17477226 60.37427902 C60.2810948 73.96906006 60.2810948 73.96906006 55.66015625 79.62890625 C51.78813567 82.47515444 49.00359619 83.01613608 44.23681641 83.06469727 C42.31925034 83.0934066 42.31925034 83.0934066 40.36294556 83.12269592 C38.9750401 83.12728266 37.58713006 83.13062417 36.19921875 83.1328125 C34.76581527 83.14246164 33.33241472 83.15255472 31.89901733 83.16307068 C28.89810339 83.18100359 25.8974481 83.18659469 22.89648438 83.18481445 C19.06392051 83.18450976 15.23302634 83.22545877 11.40085793 83.27713108 C8.44097379 83.31060198 5.48148874 83.31656882 2.52143478 83.31498528 C1.10928976 83.31850931 -0.30286738 83.33168884 -1.71482468 83.35498238 C-14.10072376 83.54019245 -14.10072376 83.54019245 -18.63525391 79.83569336 C-22.59647907 75.78916281 -23.5900143 72.28651218 -23.61450195 66.67041016 C-23.62879997 64.86801376 -23.62879997 64.86801376 -23.64338684 63.02920532 C-23.64247543 61.73437225 -23.64156403 60.43953918 -23.640625 59.10546875 C-23.64451456 57.75792306 -23.64884977 56.41037859 -23.65361023 55.06283569 C-23.66106473 52.24009221 -23.66078721 49.41747381 -23.65551758 46.59472656 C-23.64972967 42.98784548 -23.66664058 39.38147905 -23.68986225 35.774683 C-23.7046385 32.99159785 -23.70546594 30.20863546 -23.70235252 27.42551804 C-23.70311172 25.45248909 -23.71695612 23.47947912 -23.73103333 21.50650024 C-23.72480453 20.29859833 -23.71857574 19.09069641 -23.7121582 17.84619141 C-23.71278763 16.78792145 -23.71341705 15.72965149 -23.71406555 14.63931274 C-23.11574021 9.82611778 -21.0599868 6.52016481 -18.04858398 2.79321289 C-12.98092538 -1.08339029 -6.06370311 -0.06455731 0 0 Z " fill="#FDD05C" transform="translate(547.33984375,391.37109375)"/>
<path d="M0 0 C1.89237648 -0.01418472 1.89237648 -0.01418472 3.82298279 -0.02865601 C5.19196895 -0.02328538 6.56095223 -0.0171322 7.92993164 -0.01025391 C9.34330902 -0.01227666 10.75668538 -0.01518978 12.1700592 -0.01895142 C15.12812261 -0.02336677 18.08591365 -0.01697045 21.04394531 -0.00292969 C24.82457431 0.01414642 28.60456358 0.0043266 32.38516903 -0.01364708 C35.30295069 -0.02451989 38.22058227 -0.02102238 41.13836861 -0.0132637 C42.53174478 -0.01127052 43.92513484 -0.01368983 45.3184948 -0.02070236 C47.27092075 -0.0283719 49.22339481 -0.01459807 51.17578125 0 C52.28432968 0.00238678 53.39287811 0.00477356 54.53501892 0.00723267 C59.30457301 0.5900477 62.5792786 2.33606247 65.98999023 5.67944336 C69.12635505 10.98321064 68.2678389 17.77082471 68.25415039 23.72802734 C68.26193446 25.13758342 68.27060588 26.54713484 68.28012085 27.9566803 C68.29500476 30.90462481 68.29449294 33.85209011 68.28393555 36.80004883 C68.27234673 40.56427903 68.30621753 44.32654068 68.35262489 48.09044552 C68.38219451 50.99975403 68.3838307 53.9085934 68.37760544 56.81802559 C68.37862706 58.20503198 68.38901254 59.59206629 68.40922928 60.9789257 C68.56464628 73.12998088 68.56464628 73.12998088 64.85717773 77.66772461 C60.78274303 81.67730156 57.27020688 82.63853686 51.60229492 82.6628418 C50.38067657 82.67237381 49.15905823 82.68190582 47.90042114 82.69172668 C46.58371429 82.69081528 45.26700745 82.68990387 43.91040039 82.68896484 C42.54043447 82.69285428 41.17046976 82.69718946 39.80050659 82.70195007 C36.93068532 82.70940499 34.06098708 82.70912674 31.19116211 82.70385742 C27.52375018 82.69806934 23.85684437 82.7149807 20.18951607 82.7382021 C17.36010827 82.75297679 14.53082123 82.753806 11.70138168 82.75069237 C9.69511439 82.75145171 7.68886576 82.76529734 5.68264771 82.77937317 C4.45472504 82.77314438 3.22680237 82.76691559 1.96166992 82.76049805 C0.88563507 82.76112747 -0.19039978 82.7617569 -1.29904175 82.7624054 C-6.13122489 82.16920048 -9.37112639 80.44362761 -12.65991211 76.88818359 C-15.26386964 73.03046874 -15.48199677 70.10873288 -15.52441406 65.55908203 C-15.5372493 64.3606366 -15.55008453 63.16219116 -15.56330872 61.9274292 C-15.57069565 60.6305719 -15.57808258 59.3337146 -15.58569336 57.99755859 C-15.58976889 57.33606056 -15.59384441 56.67456253 -15.59804344 55.9930191 C-15.61888617 52.49014094 -15.63319432 48.98730171 -15.64257812 45.484375 C-15.6536254 41.87860506 -15.68800984 38.27345516 -15.72774982 34.6679039 C-15.75398375 31.8847952 -15.76227599 29.10183259 -15.7658596 26.31861115 C-15.77305765 24.34722584 -15.79946877 22.37594067 -15.82624817 20.40472412 C-15.80972456 13.56468746 -15.73864745 8.80042922 -11.34741211 3.38818359 C-7.48909573 0.55077305 -4.75092325 0.01023641 0 0 Z " fill="#FCFDFD" transform="translate(539.347412109375,706.61181640625)"/>
<path d="M0 0 C1.89237648 -0.01418472 1.89237648 -0.01418472 3.82298279 -0.02865601 C5.19196895 -0.02328538 6.56095223 -0.0171322 7.92993164 -0.01025391 C9.34330902 -0.01227666 10.75668538 -0.01518978 12.1700592 -0.01895142 C15.12812261 -0.02336677 18.08591365 -0.01697045 21.04394531 -0.00292969 C24.82457431 0.01414642 28.60456358 0.0043266 32.38516903 -0.01364708 C35.30295069 -0.02451989 38.22058227 -0.02102238 41.13836861 -0.0132637 C42.53174478 -0.01127052 43.92513484 -0.01368983 45.3184948 -0.02070236 C47.27092075 -0.0283719 49.22339481 -0.01459807 51.17578125 0 C52.28432968 0.00238678 53.39287811 0.00477356 54.53501892 0.00723267 C59.59374519 0.62538305 62.75539491 2.30541608 65.99438477 6.21435547 C68.80006009 11.77994957 68.22240801 18.09013078 68.18383789 24.16943359 C68.18653725 25.51029745 68.19042336 26.85115939 68.19543457 28.1920166 C68.20130894 30.99278528 68.19283455 33.79304126 68.17407227 36.59375 C68.15128269 40.16815253 68.16441707 43.74135344 68.18836212 47.31571198 C68.20287682 50.08173534 68.1981885 52.8474779 68.18785095 55.61351013 C68.18391809 57.56709583 68.19597973 59.52069283 68.20837402 61.47424316 C68.13641816 68.31188971 67.84541128 72.8746013 63.65258789 78.38818359 C59.63255722 82.04275693 56.11826641 82.51507224 50.80761719 82.54931641 C49.60594406 82.55892395 48.40427094 82.56853149 47.16618347 82.57843018 C45.21619194 82.58480499 45.21619194 82.58480499 43.22680664 82.59130859 C41.87783304 82.59706352 40.52885944 82.60282121 39.17988586 82.60858154 C36.3512026 82.6190824 33.52254767 82.62493081 30.69384766 82.62841797 C27.07912528 82.63389605 23.46478085 82.65791275 19.85017681 82.68638992 C17.06281969 82.70506739 14.2755526 82.71022464 11.4881382 82.71175385 C9.51065835 82.71623194 7.5332268 82.73485453 5.55583191 82.75372314 C4.3447023 82.75072205 3.13357269 82.74772095 1.88574219 82.74462891 C0.29381294 82.75009735 0.29381294 82.75009735 -1.33027649 82.75567627 C-6.14714862 82.16897237 -9.38322914 80.43054356 -12.65991211 76.88818359 C-15.2867004 72.99664539 -15.48244108 70.0420146 -15.52441406 65.45141602 C-15.5372493 64.22972214 -15.55008453 63.00802826 -15.56330872 61.74931335 C-15.57147672 60.41409715 -15.57892034 59.07887635 -15.58569336 57.74365234 C-15.59180665 56.73298423 -15.59180665 56.73298423 -15.59804344 55.70189857 C-15.61888384 52.13533461 -15.63319409 48.56880889 -15.64257812 45.00219727 C-15.65363658 41.32683263 -15.68803472 37.65207441 -15.72774982 33.97692394 C-15.75395005 31.14324349 -15.76227293 28.30970682 -15.7658596 25.47591591 C-15.77307141 23.46515392 -15.79949499 21.45449037 -15.82624817 19.44389343 C-15.79878364 7.88614643 -15.79878364 7.88614643 -11.34741211 3.38818359 C-7.46026276 0.58446846 -4.76315132 0.01026275 0 0 Z " fill="#FCFDFD" transform="translate(432.347412109375,706.61181640625)"/>
<path d="M0 0 C1.24156357 -0.00945648 2.48312714 -0.01891296 3.76231384 -0.02865601 C5.10920533 -0.02328535 6.45609389 -0.01713217 7.80297852 -0.01025391 C9.19393567 -0.01227673 10.58489179 -0.01518991 11.97584534 -0.01895142 C14.88683194 -0.02336647 17.79754176 -0.01697146 20.70849609 -0.00292969 C24.42859454 0.01414617 28.14804282 0.00432661 31.86811733 -0.01364708 C34.73957663 -0.02452095 37.61088344 -0.02102191 40.48234749 -0.0132637 C41.85339498 -0.0112708 43.22445659 -0.01368885 44.59548759 -0.02070236 C46.51678047 -0.0283736 48.43812225 -0.01459634 50.359375 0 C51.99555031 0.00358017 51.99555031 0.00358017 53.66477966 0.00723267 C58.50564586 0.60605375 61.60494375 2.27908055 65.08604431 5.66749573 C67.1132048 8.99327298 67.25679625 11.03929251 67.27783203 14.91918945 C67.29366837 16.22081528 67.3095047 17.5224411 67.32582092 18.86351013 C67.32197909 20.27668619 67.31693984 21.68985944 67.31079102 23.10302734 C67.31602959 24.56124773 67.32230693 26.01946471 67.32957458 27.47767639 C67.33996819 30.52995782 67.33543335 33.58177276 67.32080078 36.6340332 C67.30362111 40.53605547 67.32710105 44.43660404 67.36229038 48.33846188 C67.38430508 51.34893967 67.38281317 54.35906709 67.37452507 57.3696003 C67.37370762 58.80764952 67.38053166 60.245725 67.3952961 61.68369865 C67.50505204 74.30871991 67.50505204 74.30871991 64.45507812 78.19116211 C59.98979042 81.81028523 57.19568504 82.64007634 51.41870117 82.69458008 C49.49618027 82.71856117 49.49618027 82.71856117 47.53482056 82.74302673 C46.13853351 82.74940364 44.74224168 82.75479632 43.34594727 82.75927734 C41.90872099 82.76824852 40.47149565 82.77737046 39.03427124 82.78663635 C36.02323134 82.8031114 33.01230244 82.81082374 30.0012207 82.8137207 C26.1519541 82.81910344 22.30373747 82.8567833 18.45476723 82.90246487 C15.48638138 82.93227838 12.51824711 82.93944516 9.54972458 82.94044685 C8.13118047 82.94464065 6.71263504 82.95704139 5.29423904 82.9779644 C-7.17316531 83.14723811 -7.17316531 83.14723811 -11.04711914 80.10327148 C-14.65558386 75.66708575 -15.50668063 72.89984179 -15.54614258 67.15429688 C-15.55890228 65.89263702 -15.57166199 64.63097717 -15.58480835 63.33108521 C-15.58786609 61.9568904 -15.59009381 60.58269353 -15.59155273 59.20849609 C-15.59798306 57.79368963 -15.60471159 56.3788845 -15.61172485 54.96408081 C-15.62368983 52.00011107 -15.62740651 49.03625781 -15.6262207 46.07226562 C-15.62601759 42.28367242 -15.65331372 38.49583002 -15.68776512 34.70741463 C-15.71005916 31.78535568 -15.71405749 28.86347668 -15.71300125 25.9413414 C-15.71535368 24.54514861 -15.72415711 23.14895059 -15.73966599 21.75284195 C-15.75937198 19.79561353 -15.75095361 17.83816394 -15.74145508 15.88085938 C-15.74573013 14.21351242 -15.74573013 14.21351242 -15.75009155 12.51248169 C-14.97337304 7.60486515 -12.77271526 4.57840269 -8.89659119 1.53744507 C-5.74668768 0.16671591 -3.43230795 0.00751583 0 0 Z " fill="#FEFEFE" transform="translate(647.255615234375,496.61181640625)"/>
<path d="M0 0 C1.26165985 -0.00945648 2.5233197 -0.01891296 3.82321167 -0.02865601 C5.19741123 -0.02328497 6.57160793 -0.01713169 7.94580078 -0.01025391 C9.3606074 -0.01227604 10.775413 -0.01518864 12.19021606 -0.01895142 C15.15425549 -0.02337116 18.11802343 -0.01695724 21.08203125 -0.00292969 C24.87053583 0.01413107 28.6584013 0.00433915 32.44688225 -0.01364708 C35.36895504 -0.02452136 38.29087801 -0.02102144 41.21295547 -0.0132637 C42.60912274 -0.01127011 44.00530384 -0.01369129 45.40145493 -0.02070236 C47.35877959 -0.02837252 49.31615224 -0.01459744 51.2734375 0 C52.94078445 0.00358017 52.94078445 0.00358017 54.64181519 0.00723267 C59.51187659 0.60104745 62.60993653 2.26140186 66.10975647 5.67224121 C68.1279463 8.98148428 68.26725391 10.98328519 68.26782227 14.84326172 C68.27720322 16.12809448 68.28658417 17.41292725 68.29624939 18.73669434 C68.28577073 20.13094756 68.27440166 21.52519433 68.26220703 22.91943359 C68.26236211 24.35762607 68.26385262 25.79581896 68.26661682 27.23400879 C68.26799904 30.24343414 68.2554733 33.25238187 68.23266602 36.26171875 C68.20428127 40.11197221 68.20702075 43.96143253 68.21975613 47.81174469 C68.22672363 50.7801181 68.21891193 53.7483094 68.2064991 56.71665955 C68.20199497 58.13597413 68.20163871 59.55530833 68.2055645 60.97462463 C68.20848688 62.96081781 68.18977325 64.94700692 68.17016602 66.93310547 C68.16476303 68.0616394 68.15936005 69.19017334 68.15379333 70.35290527 C67.52584456 75.26932869 65.7871203 77.55050313 61.98815918 80.66734314 C58.39739822 82.5851081 56.25632459 82.89932108 52.21337891 82.92163086 C50.93184937 82.93746719 49.65031982 82.95330353 48.32995605 82.96961975 C46.94408807 82.96577819 45.55822295 82.96073909 44.17236328 82.95458984 C42.73799233 82.95983019 41.30362482 82.96610818 39.8692627 82.97337341 C36.87003304 82.98375618 33.87127848 82.97924681 30.87207031 82.96459961 C27.03844902 82.94740483 23.20632564 82.97092406 19.3728714 83.00608921 C16.41300628 83.02810299 13.45349752 83.02661252 10.49357605 83.0183239 C9.08064632 83.01750672 7.66768981 83.02432554 6.25483704 83.03909492 C-6.13534119 83.1487848 -6.13534119 83.1487848 -10.02099609 80.16137695 C-13.66222523 75.59819052 -14.48394766 71.91827445 -14.52441406 66.13256836 C-14.53717377 64.89100479 -14.54993347 63.64944122 -14.56307983 62.37025452 C-14.56613736 61.02336789 -14.56836519 59.67647915 -14.56982422 58.32958984 C-14.57625675 56.93863286 -14.58298545 55.54767721 -14.58999634 54.15672302 C-14.60194861 51.24580753 -14.6056792 48.33501055 -14.60449219 45.42407227 C-14.6042889 41.70388389 -14.63160925 37.98445858 -14.66603661 34.26445103 C-14.68832979 31.39300582 -14.69232904 28.52174374 -14.69127274 25.65022087 C-14.69362436 24.27914738 -14.70242323 22.9080685 -14.71793747 21.53708076 C-14.85501981 8.17439343 -14.85501981 8.17439343 -10.23388672 3.38818359 C-6.87097802 0.27459763 -4.53271124 0.0097467 0 0 Z " fill="#FC8469" transform="translate(646.23388671875,391.61181640625)"/>
<path d="M0 0 C1.89721802 -0.01418472 1.89721802 -0.01418472 3.83276367 -0.02865601 C5.20491857 -0.02328597 6.57707059 -0.01713293 7.94921875 -0.01025391 C9.36499176 -0.01227645 10.78076375 -0.0151894 12.1965332 -0.01895142 C15.15879265 -0.02336631 18.12078007 -0.01697097 21.08300781 -0.00292969 C24.87270257 0.01416209 28.66175988 0.00431637 32.45143127 -0.01364708 C35.3734616 -0.02450773 38.29534176 -0.0210282 41.21737671 -0.0132637 C42.61437049 -0.01126798 44.01137807 -0.01369886 45.40835571 -0.02070236 C47.36338018 -0.02835351 49.3184527 -0.01461662 51.2734375 0 C52.38420654 0.00238678 53.49497559 0.00477356 54.6394043 0.00723267 C59.2596199 0.59445014 61.67199206 2.42222435 64.91786194 5.67224121 C67.01532986 8.98642188 67.13785311 10.94070381 67.13842773 14.84326172 C67.14780869 16.12809448 67.15718964 17.41292725 67.16685486 18.73669434 C67.1563762 20.13094756 67.14500713 21.52519433 67.1328125 22.91943359 C67.13296758 24.35762607 67.13445809 25.79581896 67.13722229 27.23400879 C67.13860451 30.24343414 67.12607877 33.25238187 67.10327148 36.26171875 C67.07488674 40.11197221 67.07762622 43.96143253 67.0903616 47.81174469 C67.0973291 50.7801181 67.08951739 53.7483094 67.07710457 56.71665955 C67.07260043 58.13597413 67.07224418 59.55530833 67.07616997 60.97462463 C67.07909235 62.96081781 67.06037872 64.94700692 67.04077148 66.93310547 C67.0353685 68.0616394 67.02996552 69.19017334 67.0243988 70.35290527 C66.43163336 74.99386652 64.62041992 77.40369184 61.35839844 80.66833496 C58.02016632 82.77778743 56.02035913 82.89484976 52.08984375 82.90576172 C50.78499023 82.91837036 49.48013672 82.930979 48.13574219 82.94396973 C46.71939553 82.9368097 45.30305381 82.92860566 43.88671875 82.91943359 C42.42610414 82.92213016 40.96549129 82.92601395 39.50488281 82.93103027 C36.44839331 82.93691772 33.39237239 82.9283874 30.3359375 82.90966797 C26.42501526 82.886878 22.51519107 82.90000525 18.60430908 82.92395782 C15.58959737 82.9384367 12.57514447 82.93380043 9.5604248 82.92344666 C8.11877308 82.9207851 6.67709759 82.92402904 5.23547363 82.93336487 C3.21818513 82.94356283 1.20081385 82.92525387 -0.81640625 82.90576172 C-2.53585449 82.90098816 -2.53585449 82.90098816 -4.29003906 82.89611816 C-8.12136576 82.26289007 -9.66691603 81.16068386 -12.36328125 78.38818359 C-14.9802035 74.20247981 -15.74251179 71.02861909 -15.76733398 66.12670898 C-15.78001816 64.90846939 -15.79270233 63.6902298 -15.80577087 62.43507385 C-15.80283524 61.13182663 -15.7998996 59.82857941 -15.796875 58.48583984 C-15.80144194 57.12112672 -15.80674904 55.7564159 -15.8127594 54.39170837 C-15.82167016 51.53798045 -15.81929104 48.68453267 -15.80932617 45.83081055 C-15.79784058 42.18804751 -15.81805049 38.54625449 -15.84724331 34.90361881 C-15.86565995 32.08701008 -15.86530209 29.27063147 -15.85960579 26.45397758 C-15.85937947 24.4626998 -15.8762265 22.47144346 -15.89341736 20.48023987 C-15.84081352 13.63126507 -15.76220235 8.80669411 -11.36328125 3.38818359 C-7.50032939 0.54652288 -4.75691147 0.01022148 0 0 Z " fill="#FDFEFE" transform="translate(325.36328125,496.61181640625)"/>
<path d="M0 0 C1.89237648 -0.01902626 1.89237648 -0.01902626 3.82298279 -0.03843689 C5.19196741 -0.03638523 6.56095091 -0.03339703 7.92993164 -0.02954102 C9.34331004 -0.03410568 10.75668622 -0.0394121 12.1700592 -0.04542542 C15.12811313 -0.05434564 18.08589692 -0.05194622 21.04394531 -0.04199219 C24.82470563 -0.03050608 28.60453144 -0.05071265 32.38516903 -0.07990932 C35.30296194 -0.09830351 38.22053224 -0.09797253 41.13836861 -0.0922718 C42.53175733 -0.09211897 43.92516151 -0.09813221 45.3184948 -0.11056328 C58.892655 -0.21461173 58.892655 -0.21461173 63.65258789 4.40405273 C66.79910925 7.79098053 67.0311272 10.17655257 67.04077148 14.74560547 C67.05022797 16.03051376 67.05968445 17.31542206 67.06942749 18.63926697 C67.06405706 20.03872995 67.05790393 21.43819011 67.05102539 22.83764648 C67.05304726 24.27726896 67.05595964 25.71689043 67.0597229 27.1565094 C67.0641424 30.17182173 67.05772848 33.18686717 67.04370117 36.20214844 C67.02662453 40.06024948 67.03644263 43.9177237 67.05441856 47.77580166 C67.06527985 50.74844551 67.06179912 53.72094177 67.05403519 56.69359016 C67.05203884 58.11570371 67.05447255 59.5378308 67.06147385 60.95992851 C67.0691243 62.95098476 67.05538883 64.94208818 67.04077148 66.93310547 C67.0383847 68.06465561 67.03599792 69.19620575 67.03353882 70.36204529 C66.45134168 75.01106411 64.6402567 77.41559015 61.37426758 80.6842041 C58.03603546 82.79365658 56.03622827 82.9107189 52.10571289 82.92163086 C50.80085938 82.9342395 49.49600586 82.94684814 48.15161133 82.95983887 C46.73526467 82.95267884 45.31892295 82.9444748 43.90258789 82.93530273 C42.44197329 82.9379993 40.98136043 82.94188309 39.52075195 82.94689941 C36.46426245 82.95278686 33.40824154 82.94425654 30.35180664 82.92553711 C26.4408844 82.90274714 22.53106021 82.91587439 18.62017822 82.93982697 C15.60546651 82.95430584 12.59101361 82.94966957 9.57629395 82.9393158 C8.13464222 82.93665424 6.69296673 82.93989818 5.25134277 82.94923401 C3.23405427 82.95943197 1.216683 82.94112301 -0.80053711 82.92163086 C-2.51998535 82.9168573 -2.51998535 82.9168573 -4.27416992 82.9119873 C-8.10549662 82.27875922 -9.65104688 81.176553 -12.34741211 78.40405273 C-14.96433435 74.21834895 -15.72664264 71.04448823 -15.75146484 66.14257812 C-15.76414902 64.92433853 -15.77683319 63.70609894 -15.78990173 62.45094299 C-15.78696609 61.14769577 -15.78403046 59.84444855 -15.78100586 58.50170898 C-15.7855728 57.13699586 -15.7908799 55.77228504 -15.79689026 54.40757751 C-15.80580102 51.55384959 -15.8034219 48.70040181 -15.79345703 45.84667969 C-15.78197144 42.20391665 -15.80218135 38.56212363 -15.83137417 34.91948795 C-15.84979081 32.10287922 -15.84943295 29.28650061 -15.84373665 26.46984673 C-15.84351033 24.47856894 -15.86035736 22.4873126 -15.87754822 20.49610901 C-15.82494438 13.64713421 -15.74633321 8.82256325 -11.34741211 3.40405273 C-7.49182887 0.57076775 -4.74659843 0.02315119 0 0 Z " fill="#FDFEFE" transform="translate(325.347412109375,601.595947265625)"/>
<path d="M0 0 C1.414343 -0.00015514 2.82868642 -0.00164652 4.24302673 -0.00440979 C7.19940102 -0.00579054 10.15528823 0.00671056 13.11157227 0.02954102 C16.89341999 0.05795146 20.67446074 0.05517728 24.45636845 0.0424509 C27.3741287 0.03548382 30.29170365 0.04329418 33.20944023 0.05570793 C34.60363491 0.06021064 35.99784956 0.06056957 37.39204597 0.05664253 C39.34220804 0.05371988 41.29236595 0.07243474 43.24243164 0.09204102 C44.35018448 0.097444 45.45793732 0.10284698 46.59925842 0.1084137 C51.21416286 0.70665993 53.63167845 2.5338778 56.87098694 5.78688049 C58.95346736 9.06922694 59.09097276 10.9771471 59.09155273 14.84350586 C59.10093369 16.10509018 59.11031464 17.3666745 59.11997986 18.66648865 C59.10950002 20.03547851 59.0981308 21.40446182 59.0859375 22.7734375 C59.0860926 24.18681411 59.08758346 25.60019115 59.09034729 27.01356506 C59.09172956 29.97171905 59.07920454 32.92938719 59.05639648 35.88745117 C59.02803774 39.66810868 59.03074407 43.44795782 59.0434866 47.22867489 C59.05046243 50.14647756 59.0426325 53.0640954 59.03022957 55.98187447 C59.02573167 57.37524264 59.02536367 58.76863077 59.02929497 60.16200066 C59.03222489 62.11446293 59.01347697 64.06692082 58.99389648 66.01928711 C58.9884935 67.12783554 58.98309052 68.23638397 58.9775238 69.37852478 C58.34993577 74.42533844 56.67190705 77.59442133 52.77954102 80.83789062 C47.1458712 83.67755939 40.70554664 83.06561777 34.5546875 83.02734375 C33.18900782 83.03004268 31.82333001 83.03392844 30.45765686 83.03894043 C27.60561699 83.0448148 24.75408062 83.03633899 21.90209961 83.01757812 C18.25810483 82.99476688 14.61528728 83.00793674 10.97133541 83.03186798 C8.15474166 83.04636407 5.33842432 83.04170318 2.52182198 83.03135681 C0.52885797 83.02741626 -1.46411707 83.03949804 -3.45704651 83.05187988 C-14.65527867 82.93597944 -14.65527867 82.93597944 -19.41015625 78.49609375 C-23.0082015 74.4017664 -23.53679252 71.00091096 -23.57128906 65.65112305 C-23.58089661 64.44944992 -23.59050415 63.24777679 -23.60040283 62.00968933 C-23.60465271 60.70969498 -23.60890259 59.40970062 -23.61328125 58.0703125 C-23.61903618 56.7213389 -23.62479387 55.3723653 -23.6305542 54.02339172 C-23.64105506 51.19470846 -23.64690347 48.36605353 -23.65039062 45.53735352 C-23.65586871 41.92263114 -23.6798854 38.30828671 -23.70836258 34.69368267 C-23.72704004 31.90632555 -23.73219729 29.11905846 -23.7337265 26.33164406 C-23.73820459 24.35416421 -23.75682719 22.37673266 -23.7756958 20.39933777 C-23.7726947 19.18820816 -23.7696936 17.97707855 -23.76660156 16.72924805 C-23.77024719 15.66796188 -23.77389282 14.60667572 -23.77764893 13.51322937 C-23.20325283 8.797405 -21.41765915 5.5287654 -18.12329102 2.15209961 C-12.8027278 -0.99462331 -5.96953673 -0.05325913 0 0 Z " fill="#FDFDFD" transform="translate(333.41015625,706.50390625)"/>
<path d="M0 0 C0.66 0 1.32 0 2 0 C2 338.58 2 677.16 2 1026 C-335.92 1026 -673.84 1026 -1022 1026 C-1022 1024.68 -1022 1023.36 -1022 1022 C-684.74 1022 -347.48 1022 0 1022 C0 684.74 0 347.48 0 0 Z " fill="#22353F" transform="translate(1022,0)"/>
<path d="M0 0 C6.22262681 2.89706128 10.38339066 6.12549538 13.33837891 12.4543457 C14.87850678 16.98450386 14.60332026 21.53345741 14.609375 26.27734375 C14.63386719 27.26798828 14.65835938 28.25863281 14.68359375 29.27929688 C14.71490403 37.23732582 13.36165948 44.21027016 8.26953125 50.52734375 C2.09062131 55.42152984 -2.19501886 57.59301294 -10.203125 57.40234375 C-15.70071808 56.73190557 -19.94869057 54.3050335 -23.640625 50.21484375 C-28.55543997 42.98717467 -28.16390013 35.66126627 -28.203125 27.21484375 C-28.23599609 25.97347656 -28.26886719 24.73210937 -28.30273438 23.453125 C-28.34622547 16.02800869 -27.8273955 10.74875807 -22.765625 5.08984375 C-16.04047787 -1.14321944 -8.87200578 -2.91974201 0 0 Z " fill="#364E60" transform="translate(703.765625,255.91015625)"/>
<path d="M0 0 C4.8720962 2.4360481 7.48378898 5.20065857 10 10 C10.55188442 13.67996239 10.51385056 17.28591476 10.4375 21 C10.44458984 21.97195313 10.45167969 22.94390625 10.45898438 23.9453125 C10.41107246 29.35567323 10.08287281 33.3609402 7 38 C2.68123854 41.89741887 0.00465277 43.36701401 -5.90234375 43.28125 C-9.36571944 42.81688678 -11.39475173 41.24172526 -14 39 C-18.00866658 33.41673443 -17.4794288 28.20630827 -17.4375 21.5625 C-17.45748047 20.44294922 -17.47746094 19.32339844 -17.49804688 18.16992188 C-17.49428016 11.82300797 -17.33453984 7.78321679 -13 3 C-9.05140789 -0.29049342 -4.99599244 -0.87356253 0 0 Z " fill="#E2E7EE" transform="translate(700,262)"/>
<path d="M0 0 C0.99 0.33 1.98 0.66 3 1 C3 1.66 3 2.32 3 3 C4.32 3 5.64 3 7 3 C7 3.66 7 4.32 7 5 C63.1 5 119.2 5 177 5 C177 5.33 177 5.66 177 6 C154.80803439 6.09343408 132.6161012 6.16397471 110.42397881 6.20724869 C100.11982524 6.22787546 89.81579388 6.25599831 79.51171875 6.30175781 C70.53086711 6.34162199 61.55010396 6.36743198 52.5691663 6.37635398 C47.81362714 6.38156943 43.05834117 6.39383007 38.30288315 6.42292023 C33.82625882 6.45008267 29.34999183 6.45844332 24.87329292 6.45243073 C23.23098496 6.45353059 21.58866497 6.46147966 19.9464283 6.4768219 C17.70163098 6.49676364 15.45817767 6.49192509 13.21334839 6.48101807 C11.33012532 6.48654882 11.33012532 6.48654882 9.40885735 6.49219131 C5.35366565 5.90667836 3.14504986 4.58464143 0 2 C0 1.34 0 0.68 0 0 Z " fill="#E68B7B" transform="translate(313,468)"/>
<path d="M0 0 C0.66 0.33 1.32 0.66 2 1 C0.7934375 2.11375 0.7934375 2.11375 -0.4375 3.25 C-4.37257228 7.4730044 -4.12448023 10.76819975 -4.11352539 16.42089844 C-4.11344986 17.72194519 -4.11337433 19.02299194 -4.11329651 20.36346436 C-4.10819024 21.77876829 -4.10297425 23.19407184 -4.09765625 24.609375 C-4.09579035 26.06097363 -4.09436726 27.51257288 -4.09336853 28.96417236 C-4.08955688 32.77819569 -4.07973815 36.59218073 -4.06866455 40.40618896 C-4.05842135 44.30073529 -4.05386468 48.19528783 -4.04882812 52.08984375 C-4.03811465 59.72657993 -4.02105449 67.36328459 -4 75 C-6.98987337 71.69622535 -7.38138766 69.48061643 -7.40405273 65.07324219 C-7.41673691 63.87809998 -7.42942108 62.68295776 -7.44248962 61.45159912 C-7.43955399 60.16304016 -7.43661835 58.8744812 -7.43359375 57.546875 C-7.43815841 56.20411923 -7.44346483 54.86136579 -7.44947815 53.51861572 C-7.45840779 50.70420853 -7.45599055 47.89008505 -7.44604492 45.07568359 C-7.43459232 41.48676245 -7.45470859 37.8988307 -7.48396206 34.31003952 C-7.50240792 31.53541944 -7.50201448 28.76103236 -7.49632454 25.98636627 C-7.4960985 24.02560747 -7.51293429 22.06487037 -7.53013611 20.10418701 C-7.474589 12.95277282 -6.9933932 8.02015441 -3 2 C-2.01 1.34 -1.02 0.68 0 0 Z " fill="#D47F6E" transform="translate(317,393)"/>
<path d="M0 0 C0.66 0 1.32 0 2 0 C1.99111755 0.78847321 1.98223511 1.57694641 1.9730835 2.38931274 C1.89280852 9.83377813 1.83197051 17.27803253 1.79275131 24.72281837 C1.77191011 28.54993842 1.743657 32.37669969 1.69824219 36.20361328 C1.65465899 39.8994739 1.63083682 43.59499026 1.62049103 47.2910881 C1.61312187 48.69847403 1.59873137 50.10584193 1.57707977 51.5130806 C1.54788608 53.48981471 1.54636475 55.46689804 1.54589844 57.44384766 C1.53701599 58.56747711 1.52813354 59.69110657 1.51898193 60.8487854 C2.11110331 64.72785288 3.66890778 66.88834476 6 70 C6.33 70.66 6.66 71.32 7 72 C4.625 71.8125 4.625 71.8125 2 71 C-0.09130542 67.11402605 -0.2437212 63.73309477 -0.22705078 59.3737793 C-0.22734283 58.72931351 -0.22763489 58.08484772 -0.22793579 57.42085266 C-0.22655005 55.30516779 -0.21102507 53.18984158 -0.1953125 51.07421875 C-0.19157967 49.60163058 -0.18873397 48.12903991 -0.18673706 46.65644836 C-0.17912183 42.79142328 -0.15949163 38.92654987 -0.1373291 35.06158447 C-0.11682508 31.11334281 -0.10772562 27.1650765 -0.09765625 23.21679688 C-0.0762436 15.47779563 -0.04213333 7.73891912 0 0 Z " fill="#3C483F" transform="translate(523,400)"/>
<path d="M0 0 C2.97 0.495 2.97 0.495 6 1 C6 1.66 6 2.32 6 3 C26.46 3 46.92 3 68 3 C68 2.34 68 1.68 68 1 C69.65 1 71.3 1 73 1 C69.59954465 4.12905218 67.19840952 4.38234192 62.64257812 4.40405273 C61.35444214 4.41673691 60.06630615 4.42942108 58.73913574 4.44248962 C57.33650553 4.44043826 55.93387641 4.43745031 54.53125 4.43359375 C53.08923089 4.43815595 51.64721397 4.44346164 50.2052002 4.44947815 C47.18570105 4.45840584 44.16646645 4.45598979 41.14697266 4.44604492 C37.27967768 4.43454814 33.41329484 4.45477801 29.54611969 4.48396206 C26.56921604 4.5023166 23.59253136 4.50203332 20.61558533 4.49632454 C19.18984191 4.49617127 17.7640837 4.50222043 16.33839417 4.51461601 C14.34478772 4.52950916 12.35103108 4.5162276 10.35742188 4.50170898 C9.22365112 4.50154282 8.08988037 4.50137665 6.92175293 4.50120544 C3.39752487 3.89664978 2.22150035 2.7287999 0 0 Z " fill="#E58C7A" transform="translate(636,470)"/>
<path d="M0 0 C1.281026 0.00030212 2.562052 0.00060425 3.88189697 0.00091553 C5.27511214 0.02134061 6.66832094 0.04220457 8.06152344 0.06347656 C9.49069426 0.07094025 10.91987533 0.07663258 12.34906006 0.08062744 C16.10417106 0.09587406 19.85865969 0.1351464 23.61352539 0.17944336 C27.44766827 0.22041769 31.28191206 0.238643 35.11621094 0.25878906 C42.63472333 0.30164254 50.15272356 0.36988089 57.67089844 0.45410156 C57.67089844 0.78410156 57.67089844 1.11410156 57.67089844 1.45410156 C56.92223007 1.46218842 56.17356171 1.47027527 55.40220642 1.47860718 C48.32577597 1.5567442 41.24953197 1.64409163 34.17334652 1.74162865 C30.53593146 1.7914455 26.8985434 1.83777597 23.26098633 1.87597656 C19.74655938 1.91301508 16.23236668 1.95942357 12.71814156 2.01216507 C10.73363566 2.03955064 8.74900532 2.05738349 6.76438904 2.07504272 C0.71803949 2.17345792 -4.63386597 2.33925838 -10.32910156 4.45410156 C-7.08825828 0.47156416 -5.06864549 -0.03991059 0 0 Z " fill="#E28A7A" transform="translate(646.3291015625,391.5458984375)"/>
<path d="M0 0 C0.33 0.66 0.66 1.32 1 2 C0.69720123 2.73905075 0.39440247 3.4781015 0.08242798 4.23954773 C-1.15417692 7.39318832 -1.27684965 9.78639692 -1.31884766 13.16723633 C-1.33871735 14.38812454 -1.35858704 15.60901276 -1.37905884 16.86689758 C-1.39061005 18.17539169 -1.40216125 19.4838858 -1.4140625 20.83203125 C-1.43278547 22.19253194 -1.45235973 23.55302117 -1.4727478 24.91349792 C-1.52395602 28.48246479 -1.56364187 32.05146926 -1.60089111 35.62060547 C-1.64100201 39.26734635 -1.69206192 42.91393234 -1.7421875 46.56054688 C-1.83881261 53.70691768 -1.92326001 60.85338575 -2 68 C-2.33 68 -2.66 68 -3 68 C-3.0695816 59.8722068 -3.12285242 51.74453853 -3.15543652 43.61652088 C-3.17107711 39.84214044 -3.19228561 36.06796414 -3.22631836 32.29370117 C-3.25896976 28.64973132 -3.2768651 25.00595753 -3.28463173 21.36185265 C-3.29016492 19.97320152 -3.30097003 18.58456084 -3.31719017 17.19599342 C-3.33903856 15.24771255 -3.34022604 13.29923342 -3.34057617 11.35083008 C-3.34723801 10.2427449 -3.35389984 9.13465973 -3.36076355 7.99299622 C-2.95657303 4.63971759 -1.92633804 2.739698 0 0 Z " fill="#E18B7B" transform="translate(635,396)"/>
<path d="M0 0 C2.97 0.495 2.97 0.495 6 1 C6 1.66 6 2.32 6 3 C10.29 3 14.58 3 19 3 C19 3.33 19 3.66 19 4 C16.5821288 4.10826289 14.16912444 4.18739789 11.75 4.25 C10.72712891 4.30027344 10.72712891 4.30027344 9.68359375 4.3515625 C6.07818187 4.4215705 4.35931188 4.29151719 1.515625 1.984375 C1.01546875 1.32953125 0.5153125 0.6746875 0 0 Z " fill="#DD8878" transform="translate(636,470)"/>
<path d="M0 0 C0.66 0.33 1.32 0.66 2 1 C1.21625 1.721875 0.4325 2.44375 -0.375 3.1875 C-2.84412438 5.83299041 -3.93260278 7.60373611 -5 11 C-5.6875 9.3125 -5.6875 9.3125 -6 7 C-4.35923508 3.55439366 -3.21487558 2.14325038 0 0 Z " fill="#DC8979" transform="translate(317,393)"/>
<path d="M0 0 C3.79450934 0.39253545 5.51015791 2.24338912 8 5 C7.67 5.66 7.34 6.32 7 7 C6.13375 6.071875 6.13375 6.071875 5.25 5.125 C3.19750179 3.18652947 1.56633418 2.09985751 -1 1 C-0.67 0.67 -0.34 0.34 0 0 Z " fill="#E8C974" transform="translate(597,393)"/>
<path d="M0 0 C0.99 0.33 1.98 0.66 3 1 C3 1.66 3 2.32 3 3 C4.32 3 5.64 3 7 3 C7.33 3.99 7.66 4.98 8 6 C2.33846154 4.52307692 2.33846154 4.52307692 0.625 1.875 C0.41875 1.25625 0.2125 0.6375 0 0 Z " fill="#D28576" transform="translate(313,468)"/>
<path d="M0 0 C0.66 0 1.32 0 2 0 C3.38938077 1.96147874 4.7260411 3.96166576 6 6 C4.35 5.67 2.7 5.34 1 5 C0.67 3.35 0.34 1.7 0 0 Z " fill="#47524B" transform="translate(524,466)"/>
</svg>
