<svg xmlns="http://www.w3.org/2000/svg" viewBox="0 0 131.51 124.07"><defs><style>.cls-1{fill:#1ad1ff;}</style></defs><g id="Ebene_2" data-name="Ebene 2"><g id="Ebene_1-2" data-name="Ebene 1"><path class="cls-1" d="M66.14.12a60.9,60.9,0,0,1,22.1,5.22,57.12,57.12,0,0,1,17.83,11.89c1.21,1.2,2.47,2.37,3.7,3.55.15.14.3.27.13.58a4.21,4.21,0,0,1-1.55-1,49.72,49.72,0,0,0-23-8.75C71.18,10,58.41,13.55,47.39,22.49c-9.72,7.88-16.35,18-18.61,30.43a47,47,0,0,0,9.66,39c7.71,9.82,17.89,15.77,30,18.33a51.34,51.34,0,0,0,16.78.65,61.63,61.63,0,0,0,17.43-4.37,51.9,51.9,0,0,0,7.79-4.38,5,5,0,0,1-1.47,2.37,49.55,49.55,0,0,1-8.58,7.39,79.08,79.08,0,0,1-7,4.61,61.54,61.54,0,0,1-18.6,6.58,66.93,66.93,0,0,1-16.35.88,61.69,61.69,0,0,1-26.76-7.81A59.71,59.71,0,0,1,18.25,105.9,63.19,63.19,0,0,1,4,83.82a60.91,60.91,0,0,1-3.92-19A59.6,59.6,0,0,1,12.24,25.25,62.11,62.11,0,0,1,50.15,1.31,46.29,46.29,0,0,1,59.38.13,46.22,46.22,0,0,1,66.14.12Z"/><path class="cls-1" d="M78.1,37.2c.5,1,1,1.85,1.34,2.72.27.59.47.69,1,.19,1.65-1.6,1.66-1.58,2.35.67a35.66,35.66,0,0,1,.81,6.51c.09.78.33,1.06,1.08,1,.52,0,1,.07,1.56,0,3.86-.62,6.93,1,9.47,3.63,3.71,3.77,8.31,5,13.33,5.26,3.14.2,6.28.5,9.42.71.71.05.68.37.46.85a20.17,20.17,0,0,1-6.52,7.92c-1.08.79-2.33.15-3.5.07a9.67,9.67,0,0,1-1.4-.29,4.58,4.58,0,0,0-4.56,1.08c-.44.43-.8.59-1.3.08-1.39-1.41-2.83-1.74-4.55-.41A2.28,2.28,0,0,1,93.8,67a2.57,2.57,0,0,0-3.36-.46c-1.31.73-2.74.09-4-.45a3.24,3.24,0,0,0-3.18.33c-.94.57-.58,1.44-.49,2.15s.83.46,1.21.34c1.63-.48,3.06.19,4.52.65a2.1,2.1,0,0,0,2.13-.24,1.82,1.82,0,0,1,2.49-.11c.12.1.3.13.43.22a3.51,3.51,0,0,0,4.38.21,1.37,1.37,0,0,1,2,.3,5.66,5.66,0,0,0,.9.79c1.4,1,1.71,1,2.94-.19a6.64,6.64,0,0,1,5.77-1c.64.25.32.51.14.78a9.13,9.13,0,0,1-2.34,2.38c-2.76,1.9-5.6,3.58-9.17,3.14-1.34-.17-2.68-.4-4-.55a8,8,0,0,0-4.08.59,24.58,24.58,0,0,1-4.43,1.42c-2,.43-4-.06-5.93-.33-.91-.12-1.81-.24-2.72-.38a1.42,1.42,0,0,0-1.32.68q-2.13,2.51-4.23,5A17.22,17.22,0,0,1,67.33,86a5,5,0,0,1-5,.32A26.57,26.57,0,0,1,56,81.89,21.39,21.39,0,0,1,52.92,79c-1.62-2.06-3.78-2.5-6.2-2.7a29,29,0,0,1-8.18-1.6c-.49-.19-.95-.42-1.42-.63-.87-.38-.81-.73-.1-1.32C42.94,67.91,48.81,63,54.74,58.12a81.4,81.4,0,0,1,8.12-5.92c2.43-1.53,5.22-2.21,7.88-3.14a5.51,5.51,0,0,0,3.78-3.74c.5-1.56,1.16-3.06,1.67-4.61A12,12,0,0,1,78.1,37.2Z"/><polygon class="cls-1" points="121.24 48.29 123.95 46.91 124.34 43.9 126.49 46.04 129.47 45.49 128.1 48.2 129.55 50.86 126.55 50.39 124.47 52.6 123.99 49.6 121.24 48.29"/><polygon class="cls-1" points="122.87 60.84 125.8 60.07 126.83 57.21 128.47 59.77 131.51 59.86 129.59 62.21 130.43 65.13 127.6 64.03 125.09 65.73 125.27 62.7 122.87 60.84"/><polygon class="cls-1" points="121.61 73.76 124.65 73.65 126.28 71.09 127.32 73.94 130.26 74.7 127.87 76.57 128.05 79.61 125.53 77.91 122.71 79.02 123.54 76.1 121.61 73.76"/><polygon class="cls-1" points="117.7 85.42 120.69 85.97 122.83 83.83 123.23 86.84 125.93 88.22 123.19 89.53 122.71 92.52 120.62 90.32 117.62 90.79 119.08 88.12 117.7 85.42"/><polygon class="cls-1" points="111.95 95.83 114.75 97.01 117.3 95.37 117.05 98.39 119.39 100.32 116.44 101.01 115.33 103.84 113.76 101.24 110.73 101.06 112.71 98.77 111.95 95.83"/><polygon class="cls-1" points="109.52 26.23 111.4 23.84 110.5 20.94 113.34 21.99 115.82 20.23 115.71 23.27 118.14 25.08 115.22 25.91 114.25 28.79 112.56 26.26 109.52 26.23"/><polygon class="cls-1" points="116.54 36.35 118.88 34.42 118.61 31.39 121.17 33.02 123.97 31.83 123.21 34.77 125.21 37.06 122.18 37.25 120.61 39.85 119.5 37.03 116.54 36.35"/><polygon class="cls-1" points="121.24 48.29 123.95 46.91 124.34 43.9 126.49 46.04 129.47 45.49 128.1 48.2 129.55 50.86 126.55 50.39 124.47 52.6 123.99 49.6 121.24 48.29"/></g></g></svg>