<?xml version="1.0" encoding="utf-8"?>
<!-- Generator: Adobe Illustrator 24.0.1, SVG Export Plug-In . SVG Version: 6.00 Build 0)  -->
<svg version="1.1" id="Layer_1" xmlns="http://www.w3.org/2000/svg" xmlns:xlink="http://www.w3.org/1999/xlink" x="0px" y="0px"
	 viewBox="0 0 504 54" style="enable-background:new 0 0 504 54;" xml:space="preserve">
<style type="text/css">
	.st0{fill-rule:evenodd;clip-rule:evenodd;fill:#D3C097;}
	
		.st1{fill-rule:evenodd;clip-rule:evenodd;fill:#FFFBD4;stroke:#231F20;stroke-width:0.2835;stroke-linecap:round;stroke-linejoin:round;stroke-miterlimit:2.6131;}
	
		.st2{fill-rule:evenodd;clip-rule:evenodd;fill:#FCB833;stroke:#231F20;stroke-width:0.2835;stroke-linecap:round;stroke-linejoin:round;stroke-miterlimit:2.6131;}
	
		.st3{fill-rule:evenodd;clip-rule:evenodd;fill:#9ED08F;stroke:#231F20;stroke-width:0.2835;stroke-linecap:round;stroke-linejoin:round;stroke-miterlimit:2.6131;}
	
		.st4{fill-rule:evenodd;clip-rule:evenodd;fill:#00437A;stroke:#231F20;stroke-width:0.2835;stroke-linecap:round;stroke-linejoin:round;stroke-miterlimit:2.6131;}
	
		.st5{fill-rule:evenodd;clip-rule:evenodd;fill:#FFFBD4;stroke:#231F20;stroke-width:0.2835;stroke-linecap:round;stroke-linejoin:round;stroke-miterlimit:22.9256;}
	.st6{fill-rule:evenodd;clip-rule:evenodd;fill:#00437A;}
	
		.st7{fill-rule:evenodd;clip-rule:evenodd;fill:#D7AF6A;stroke:#231F20;stroke-width:0.2835;stroke-linecap:round;stroke-linejoin:round;stroke-miterlimit:2.6131;}
	
		.st8{fill-rule:evenodd;clip-rule:evenodd;fill:#FCE8F1;stroke:#231F20;stroke-width:0.2835;stroke-linecap:round;stroke-linejoin:round;stroke-miterlimit:2.6131;}
	.st9{fill-rule:evenodd;clip-rule:evenodd;fill:#F9D4E4;}
	.st10{fill-rule:evenodd;clip-rule:evenodd;fill:#F5ACCC;}
	.st11{fill-rule:evenodd;clip-rule:evenodd;fill:#F186B6;}
	.st12{fill-rule:evenodd;clip-rule:evenodd;fill:#EE5BA0;}
	.st13{fill-rule:evenodd;clip-rule:evenodd;fill:#B8292F;}
	
		.st14{fill-rule:evenodd;clip-rule:evenodd;fill:#A7620B;stroke:#231F20;stroke-width:0.2835;stroke-linecap:round;stroke-linejoin:round;stroke-miterlimit:2.6131;}
	
		.st15{fill-rule:evenodd;clip-rule:evenodd;fill:#D7AF6A;stroke:#231F20;stroke-width:0.2835;stroke-linecap:round;stroke-linejoin:round;stroke-miterlimit:22.9256;}
	
		.st16{fill-rule:evenodd;clip-rule:evenodd;fill:#D3C097;stroke:#231F20;stroke-width:0.2835;stroke-linecap:round;stroke-linejoin:round;stroke-miterlimit:2.6131;}
	.st17{fill-rule:evenodd;clip-rule:evenodd;fill:#F9F2E1;}
</style>
<g>
	<path class="st0" d="M0,54h504V0H0L0,54L0,54z M128.4,51.4c0.5-0.4,0.8-1,0.8-1.6c0-1.2-1-2.1-2.2-2.1c-1.2,0-2.2,0.9-2.2,2.1
		c0,0.7,0.3,1.3,0.8,1.6H2.7l0-48.8h122.8c-0.5,0.4-0.8,1-0.8,1.6c0,1.2,1,2.1,2.2,2.1c1.2,0,2.2-0.9,2.2-2.1c0-0.7-0.3-1.3-0.8-1.6
		h247.3c-0.5,0.4-0.8,1-0.8,1.6c0,1.2,1,2.1,2.2,2.1c1.2,0,2.2-0.9,2.2-2.1c0-0.7-0.3-1.3-0.8-1.6h122.8v48.8H378.4
		c0.5-0.4,0.8-1,0.8-1.6c0-1.2-1-2.1-2.2-2.1c-1.2,0-2.2,0.9-2.2,2.1c0,0.7,0.3,1.3,0.8,1.6H128.4z"/>
	<g>
		<g>
			<g>
				<g>
					<g>
						<g>
							<path class="st1" d="M37.2,20.6C33.4,15.4,29,8.4,21,10.6c-4,1.1-6.5,4.4-6.9,7.9c-0.4,3.2,1.1,6.7,4,8.5
								c-2.9,1.7-4.4,5.2-4,8.5c0.4,3.5,2.9,6.8,6.9,7.9c8.1,2.3,12.4-4.8,16.3-10c-2.8,3.4-6,7.4-10.7,8.4
								c-0.1,0.1-0.1,0.3-0.2,0.4c1.3-1.9-0.6-2.9-1.7-2c0.4,0.5,0.4,1.3-0.1,1.8c0.7-0.9,0.3-2.2-0.8-2.4c-0.6-0.1-1.2,0.1-1.6,0.6
								c-0.4,0.5-0.3,1.5,0.5,1.6c-0.9-0.2-1.8-0.4-2.5-0.8c-2.3-1.2-3.7-3.3-4-5.7c-0.2-1.8,0.3-3.9,1.6-5.5
								c1.1-1.3,2.7-2.3,4.5-1.9c1.3,0.3,1.9,1.4,1.2,2.6c0.7-1.2,0.1-2.3-1.2-2.6c-2.3-0.3-3.5,2.4-2.3,4.1c1.5,2.2,5.3,1.6,6-1.1
								c0.4-1.6-0.3-3.1-1.5-4c1.2-0.9,1.9-2.3,1.5-4c-0.7-2.7-4.5-3.3-6-1.1c-1.2,1.7-0.1,4.4,2.3,4.1c1.3-0.3,1.9-1.4,1.2-2.6
								c0.7,1.2,0.1,2.3-1.2,2.6c-1.8,0.4-3.4-0.6-4.5-1.9c-1.2-1.6-1.8-3.7-1.6-5.5c0.3-2.3,1.7-4.5,4-5.7c0.8-0.4,1.6-0.7,2.5-0.8
								c-0.8,0.2-0.9,1.1-0.5,1.6c0.4,0.5,1,0.7,1.6,0.6c1.1-0.2,1.6-1.5,0.8-2.4c0.5,0.6,0.5,1.3,0.1,1.8c1.1,0.9,3-0.1,1.7-2
								c0.1,0.1,0.2,0.3,0.2,0.4C31.2,13.2,34.4,17.2,37.2,20.6z"/>
							<path class="st2" d="M25.9,24.2c3.5-0.8,4.1,2.8,6.1,2.8c-2,0-2.6,3.6-6.1,2.8c-0.1-1.1-0.7-2.1-1.6-2.8
								C25.3,26.3,25.9,25.3,25.9,24.2z"/>
							<path class="st1" d="M59.4,22.6c1-1.1,1.7-2.4,2.2-3.7c0.5,1.3,1.3,2.5,2.2,3.7c0.4-0.5,0.9-0.9,1.4-1.3
								c-1.2-1.5-2.3-3.5-2.5-5.4c-0.7,0.3-1.5,0.3-2.2,0c-0.2,1.9-1.3,3.9-2.5,5.4C58.5,21.7,58.9,22.1,59.4,22.6z"/>
							<path class="st1" d="M47.8,20.9c-2.9,0.7-3.3,4.6-0.7,6.1c-2.7,1.5-2.3,5.4,0.7,6.1c1.8,0.4,3.7-0.7,3.9-2.5
								c0.1-1.1-0.6-2.3-2-2.3c-1.9-0.1-2.2,1.4-1.2,2.3c-1-0.9-0.7-2.4,1.2-2.3c2.7,0.1,5.2,1.4,7,3.1c0.5-0.4,0.9-0.8,1.3-1.3
								c-1.4-1.3-3.1-2.4-5-3c1.9-0.6,3.6-1.7,5-3c-0.4-0.5-0.9-0.9-1.3-1.3c-1.9,1.8-4.3,3-7,3.1c-1.9,0.1-2.2-1.4-1.2-2.3
								c-1,0.9-0.7,2.4,1.2,2.3c1.4-0.1,2.1-1.2,2-2.3C51.6,21.6,49.6,20.5,47.8,20.9z"/>
							<path class="st3" d="M61.6,24.7c-1.3,0-2.4,1-2.4,2.3c0,1.3,1.1,2.3,2.4,2.3s2.4-1,2.4-2.3C64,25.7,62.9,24.7,61.6,24.7z"/>
							<path class="st4" d="M58.1,24c0.5,0.6,1,1.1,1.5,1.8c-0.2,0.4-0.4,0.8-0.4,1.3c0,0.5,0.1,0.9,0.4,1.3c-0.5,0.6-1,1.2-1.5,1.8
								c-1.4-1.3-3.1-2.4-5-3C54.9,26.4,56.6,25.3,58.1,24L58.1,24z M65.1,30c-0.5-0.6-1-1.1-1.5-1.8c0.2-0.4,0.4-0.8,0.4-1.3
								c0-0.5-0.1-0.9-0.4-1.3c0.5-0.6,1-1.2,1.5-1.8c1.4,1.3,3.1,2.4,5,3C68.3,27.6,66.6,28.7,65.1,30L65.1,30z M61.6,35.1
								c0.5-1.3,1.3-2.5,2.2-3.7c-0.6-0.7-1.2-1.4-1.8-2.1c-0.1,0-0.3,0-0.5,0s-0.3,0-0.5,0c-0.6,0.7-1.2,1.5-1.8,2.1
								C60.3,32.5,61.1,33.8,61.6,35.1L61.6,35.1z M61.6,18.9c-0.5,1.3-1.3,2.5-2.2,3.7c0.6,0.7,1.2,1.4,1.8,2.1c0.1,0,0.3,0,0.5,0
								s0.3,0,0.5,0c0.6-0.7,1.2-1.5,1.8-2.1C62.9,21.5,62.1,20.2,61.6,18.9z"/>
							<path class="st1" d="M75.4,20.9c2.9,0.7,3.3,4.6,0.7,6.1c2.7,1.5,2.3,5.4-0.7,6.1c-1.8,0.4-3.7-0.7-3.9-2.5
								c-0.1-1.1,0.6-2.3,2-2.3c1.9-0.1,2.2,1.4,1.2,2.3c1-0.9,0.7-2.4-1.2-2.3c-2.7,0.1-5.2,1.4-7,3.1c-0.5-0.4-0.9-0.8-1.3-1.3
								c1.4-1.3,3.1-2.4,5-3c-1.9-0.6-3.6-1.7-5-3c0.4-0.5,0.9-0.9,1.3-1.3c1.9,1.8,4.3,3,7,3.1c1.9,0.1,2.2-1.4,1.2-2.3
								c1,0.9,0.7,2.4-1.2,2.3c-1.4-0.1-2.1-1.2-2-2.3C71.6,21.6,73.6,20.5,75.4,20.9z"/>
							<path class="st2" d="M77.8,24.3c-0.1,1.1-0.7,2.1-1.8,2.7c1.1,0.6,1.7,1.7,1.8,2.7c3.4,0.4,3.9-2.7,6-2.7
								C81.8,27,81.2,23.9,77.8,24.3z"/>
							<path class="st2" d="M45.4,24.3c0.1,1.1,0.7,2.1,1.8,2.7c-1.1,0.6-1.7,1.7-1.8,2.7c-3.4,0.4-3.9-2.7-6-2.7
								C41.4,27,42,23.9,45.4,24.3z"/>
							<path class="st1" d="M59.4,31.4c1,1.1,1.7,2.4,2.2,3.7c0.5-1.3,1.3-2.5,2.2-3.7c0.4,0.5,0.9,0.9,1.4,1.3
								c-1.2,1.5-2.3,3.5-2.5,5.4c-0.7-0.3-1.5-0.3-2.2,0c-0.2-1.9-1.3-3.9-2.5-5.4C58.5,32.3,58.9,31.9,59.4,31.4z"/>
							<path class="st1" d="M37.7,21.1c2.4-1.6,4.9-2.9,8.7-2.9c2.4,0,4.8,0.7,7.4,2.2c2.2,1.3,4.1,3,5.8,5.2c0.4-0.5,0.9-0.9,1.6-1
								c-1.9-2.4-3.9-4.4-6.4-5.8c-2.9-1.7-5.7-2.5-8.5-2.5c-4.3,0-7.2,1.4-9.8,3.2C36.9,20.2,37.2,20.6,37.7,21.1z"/>
							<path class="st1" d="M30.1,25.9c2.3-1,4.2-2.3,6-3.6c-0.4-0.5-0.8-1-1.3-1.4c-1.9,1.4-3.9,2.8-6.3,3.7
								C29.2,24.9,29.7,25.4,30.1,25.9z"/>
							<path class="st1" d="M37.2,20.6c1.6,1.8,3.4,3.3,5.5,4.3c-0.6,0.4-1.1,0.9-1.5,1.3c-1.4-0.8-2.7-1.7-3.9-2.8
								c-2.1-2-3.4-4.2-5.9-6c0.3,0.5,0.3,1.2,0,1.7c-0.5,0.9-1.7,1.3-2.7,0.8c-1-0.5-1.4-1.7-0.8-2.6c0.3-0.6,1-1,1.7-1
								c-0.3-0.1-0.6-0.2-1-0.3c-1.9-0.6-4.1-0.1-5.8,1.3c-3.9,3.6-7.3-1.4-2.6-4.3c0.8-0.4,1.6-0.7,2.5-0.8c0.5-0.1,1,0.3,0.9,0.9
								c0.1-0.6-0.3-1-0.9-0.9c-0.8,0.2-0.9,1.1-0.5,1.6c0.4,0.5,1,0.7,1.6,0.6c1.1-0.2,1.6-1.5,0.8-2.4c0.5,0.6,0.5,1.3,0.1,1.8
								c1.1,0.9,3-0.1,1.7-2c0.1,0.1,0.2,0.3,0.2,0.4C31.2,13.2,34.4,17.2,37.2,20.6z"/>
							<path class="st1" d="M37.7,32.9c2.4,1.6,4.9,2.9,8.7,2.9c2.4,0,4.8-0.7,7.4-2.2c2.2-1.3,4.1-3,5.8-5.2c0.4,0.5,0.9,0.9,1.6,1
								c-1.9,2.4-3.9,4.4-6.4,5.8c-2.9,1.7-5.7,2.5-8.5,2.5c-4.3,0-7.2-1.4-9.8-3.2C36.9,33.8,37.2,33.4,37.7,32.9z"/>
							<path class="st1" d="M30.1,28.1c2.3,1,4.2,2.3,6,3.6c-0.4,0.5-0.8,1-1.3,1.4c-1.9-1.4-3.9-2.8-6.3-3.7
								C29.2,29.1,29.7,28.6,30.1,28.1z"/>
							<path class="st1" d="M37.2,33.4c1.6-1.8,3.4-3.3,5.5-4.3c-0.6-0.4-1.1-0.9-1.5-1.3c-1.4,0.8-2.7,1.7-3.9,2.8
								c-2.1,2-3.4,4.2-5.9,6c0.3-0.5,0.3-1.2,0-1.7c-0.5-0.9-1.7-1.3-2.7-0.8c-1,0.5-1.4,1.7-0.8,2.6c0.3,0.6,1,1,1.7,1
								c-0.3,0.1-0.6,0.2-1,0.3c-1.9,0.6-4.1,0.1-5.8-1.3c-3.9-3.6-7.3,1.4-2.6,4.3c0.8,0.4,1.6,0.7,2.5,0.8c0.5,0.1,1-0.3,0.9-0.9
								c0.1,0.6-0.3,1-0.9,0.9c-0.8-0.2-0.9-1.1-0.5-1.6c0.4-0.5,1-0.7,1.6-0.6c1.1,0.2,1.6,1.5,0.8,2.4c0.5-0.6,0.5-1.3,0.1-1.8
								c1.1-0.9,3,0.1,1.7,2c0.1-0.1,0.2-0.3,0.2-0.4C31.2,40.8,34.4,36.8,37.2,33.4z"/>
							<path class="st1" d="M86,20.6c3.9-5.2,8.2-12.2,16.3-10c4,1.1,6.5,4.4,6.9,7.9c0.4,3.2-1.1,6.7-4,8.5c2.9,1.7,4.4,5.2,4,8.5
								c-0.4,3.5-2.9,6.8-6.9,7.9c-8.1,2.3-12.4-4.8-16.3-10c2.8,3.4,6,7.4,10.7,8.4c0.1,0.1,0.1,0.3,0.2,0.4
								c-1.3-1.9,0.6-2.9,1.7-2c-0.4,0.5-0.4,1.3,0.1,1.8c-0.7-0.9-0.3-2.2,0.8-2.4c0.6-0.1,1.2,0.1,1.6,0.6
								c0.4,0.5,0.3,1.5-0.5,1.6c0.9-0.2,1.8-0.4,2.5-0.8c2.3-1.2,3.7-3.3,4-5.7c0.2-1.8-0.3-3.9-1.6-5.5c-1.1-1.3-2.7-2.3-4.5-1.9
								c-1.3,0.3-1.9,1.4-1.2,2.6c-0.7-1.2-0.1-2.3,1.2-2.6c2.3-0.3,3.5,2.4,2.3,4.1c-1.5,2.2-5.3,1.6-6-1.1c-0.4-1.6,0.3-3.1,1.5-4
								c-1.2-0.9-1.9-2.3-1.5-4c0.7-2.7,4.5-3.3,6-1.1c1.2,1.7,0.1,4.4-2.3,4.1c-1.3-0.3-1.9-1.4-1.2-2.6c-0.7,1.2-0.1,2.3,1.2,2.6
								c1.8,0.4,3.4-0.6,4.5-1.9c1.2-1.6,1.8-3.7,1.6-5.5c-0.3-2.3-1.7-4.5-4-5.7c-0.8-0.4-1.6-0.7-2.5-0.8c0.8,0.2,0.9,1.1,0.5,1.6
								c-0.4,0.5-1,0.7-1.6,0.6c-1.1-0.2-1.6-1.5-0.8-2.4c-0.5,0.6-0.5,1.3-0.1,1.8c-1.1,0.9-3-0.1-1.7-2c-0.1,0.1-0.2,0.3-0.2,0.4
								C92,13.2,88.8,17.2,86,20.6z"/>
							<path class="st2" d="M97.2,24.2c-3.5-0.8-4.1,2.8-6.1,2.8c2,0,2.6,3.6,6.1,2.8c0.1-1.1,0.7-2.1,1.6-2.8
								C97.9,26.3,97.3,25.3,97.2,24.2z"/>
							<path class="st1" d="M85.5,21.1c-2.4-1.6-4.9-2.9-8.7-2.9c-2.4,0-4.8,0.7-7.4,2.2c-2.2,1.3-4.1,3-5.8,5.2
								c-0.4-0.5-0.9-0.9-1.6-1c1.9-2.4,3.9-4.4,6.4-5.8c2.9-1.7,5.7-2.5,8.5-2.5c4.3,0,7.2,1.4,9.8,3.2
								C86.3,20.2,86,20.6,85.5,21.1z"/>
							<path class="st1" d="M93,25.9c-2.3-1-4.2-2.3-6-3.6c0.4-0.5,0.8-1,1.3-1.4c1.9,1.4,3.9,2.8,6.3,3.7
								C94,24.9,93.5,25.4,93,25.9z"/>
							<path class="st1" d="M86,20.6c-1.6,1.8-3.4,3.3-5.5,4.3c0.6,0.4,1.1,0.9,1.5,1.3c1.4-0.8,2.7-1.7,3.9-2.8
								c2.1-2,3.4-4.2,5.9-6c-0.3,0.5-0.3,1.2,0,1.7c0.5,0.9,1.7,1.3,2.7,0.8c1-0.5,1.4-1.7,0.8-2.6c-0.3-0.6-1-1-1.7-1
								c0.3-0.1,0.6-0.2,1-0.3c1.9-0.6,4.1-0.1,5.8,1.3c3.9,3.6,7.3-1.4,2.6-4.3c-0.8-0.4-1.6-0.7-2.5-0.8c-0.5-0.1-1,0.3-0.9,0.9
								c-0.1-0.6,0.3-1,0.9-0.9c0.8,0.2,0.9,1.1,0.5,1.6c-0.4,0.5-1,0.7-1.6,0.6c-1.1-0.2-1.6-1.5-0.8-2.4c-0.5,0.6-0.5,1.3-0.1,1.8
								c-1.1,0.9-3-0.1-1.7-2c-0.1,0.1-0.2,0.3-0.2,0.4C92,13.2,88.8,17.2,86,20.6z"/>
							<path class="st1" d="M85.5,32.9c-2.4,1.6-4.9,2.9-8.7,2.9c-2.4,0-4.8-0.7-7.4-2.2c-2.2-1.3-4.1-3-5.8-5.2
								c-0.4,0.5-0.9,0.9-1.6,1c1.9,2.4,3.9,4.4,6.4,5.8c2.9,1.7,5.7,2.5,8.5,2.5c4.3,0,7.2-1.4,9.8-3.2
								C86.3,33.8,86,33.4,85.5,32.9z"/>
							<path class="st1" d="M93,28.1c-2.3,1-4.2,2.3-6,3.6c0.4,0.5,0.8,1,1.3,1.4c1.9-1.4,3.9-2.8,6.3-3.7
								C94,29.1,93.5,28.6,93,28.1z"/>
							<path class="st1" d="M86,33.4c-1.6-1.8-3.4-3.3-5.5-4.3c0.6-0.4,1.1-0.9,1.5-1.3c1.4,0.8,2.7,1.7,3.9,2.8
								c2.1,2,3.4,4.2,5.9,6c-0.3-0.5-0.3-1.2,0-1.7c0.5-0.9,1.7-1.3,2.7-0.8c1,0.5,1.4,1.7,0.8,2.6c-0.3,0.6-1,1-1.7,1
								c0.3,0.1,0.6,0.2,1,0.3c1.9,0.6,4.1,0.1,5.8-1.3c3.9-3.6,7.3,1.4,2.6,4.3c-0.8,0.4-1.6,0.7-2.5,0.8c-0.5,0.1-1-0.3-0.9-0.9
								c-0.1,0.6,0.3,1,0.9,0.9c0.8-0.2,0.9-1.1,0.5-1.6c-0.4-0.5-1-0.7-1.6-0.6c-1.1,0.2-1.6,1.5-0.8,2.4c-0.5-0.6-0.5-1.3-0.1-1.8
								c-1.1-0.9-3,0.1-1.7,2c-0.1-0.1-0.2-0.3-0.2-0.4C92,40.8,88.8,36.8,86,33.4z"/>
						</g>
						<path class="st2" d="M61.6,11.3c-1.4,0-2.5,1.1-2.5,2.4s1.1,2.4,2.5,2.4s2.5-1.1,2.5-2.4S63,11.3,61.6,11.3z"/>
						<path class="st2" d="M61.6,42.7c-1.4,0-2.5-1.1-2.5-2.4c0-1.3,1.1-2.4,2.5-2.4s2.5,1.1,2.5,2.4C64.1,41.6,63,42.7,61.6,42.7z"
							/>
					</g>
					<g>
						<path class="st5" d="M8.2,16.2c3.2,0.4,5.6-2.3,5.2-5c-0.3-2-2.1-3.5-4.1-3.5c-2,0-3.8,1.6-3.4,3.6c0.3,1.4,1.7,2.1,2.8,1.9
							c0.8-0.2,1.5-0.8,1.5-1.6c0-0.7-0.8-1.3-1.7-1c0.9-0.3,1.6,0.3,1.7,1c0,0.7-0.5,1.2-1.1,1.5C8.7,14,8.4,15,8.2,16.2z"/>
						<path class="st2" d="M9.2,13.1c-0.4,0.9-0.8,1.9-1,3.1c-0.3,1.6-0.2,3.4-0.2,5.1c-0.9,0.4-1.7,0.9-2.5,1.6
							c0-2.2-0.1-5.3,0.3-7.1c0.2-1.2,0.5-2.2,0.9-3.2c0.6,0.5,1.4,0.7,2.1,0.6C8.9,13.2,9,13.1,9.2,13.1z"/>
						<path class="st2" d="M12.6,9.4c-0.5-0.7-1.3-1.2-2.1-1.5c2.1-1.4,4.8-2.4,7.5-2.8c6.6-1,13.2,0.7,17.6,5.6
							c1.8,1.9,3.2,4.1,5.3,6.5c-0.8,0.3-1.6,0.6-2.3,1c-1.7-2.1-3.1-4.1-4.7-5.9c-4.1-4.3-9.4-5.8-15.4-4.9
							C16.4,7.8,14.3,8.5,12.6,9.4z"/>
					</g>
					<path class="st1" d="M10.8,20.5c-2,0.2-3.9,1-5.5,2.5c-1.7,1.5-2.6,3.3-4.8,3.9c2.1,0.6,3.1,2.4,4.8,3.9
						c1.6,1.5,3.5,2.3,5.5,2.5c1.1,0.1,2.2,0.1,3.3-0.1c0.1-0.7,0.2-1.3,0.5-2c-1.4,0.4-2.9,0.5-4.3,0.2c0.4-0.1,0.7-0.4,0.9-0.8
						c0.4-0.8,0-1.6-0.8-2c-0.8-0.3-1.7,0-2.1,0.7c-0.2,0.5-0.2,1,0.1,1.4c-0.6-0.3-1.3-0.8-1.9-1.3c-1-0.9-1.7-1.8-2.5-2.6
						c0.8-0.8,1.5-1.7,2.5-2.6c0.6-0.5,1.2-1,1.9-1.3c-0.3,0.4-0.3,0.9-0.1,1.4c0.4,0.8,1.3,1.1,2.1,0.7c0.8-0.3,1.1-1.2,0.8-2
						c-0.2-0.4-0.5-0.7-0.9-0.8c1.4-0.3,2.9-0.2,4.3,0.2c-0.2-0.6-0.4-1.3-0.5-2C13,20.5,11.9,20.4,10.8,20.5z"/>
					<path class="st6" d="M6.6,24.4c-1,0.9-1.7,1.8-2.5,2.6c0.8,0.8,1.5,1.7,2.5,2.6c0.6,0.5,1.2,1,1.9,1.3
						c-0.3-0.4-0.3-0.9-0.1-1.4c0.4-0.8,1.3-1.1,2.1-0.7c0.8,0.3,1.1,1.2,0.8,2c-0.2,0.4-0.5,0.7-0.9,0.8c1.4,0.3,2.9,0.2,4.3-0.2
						c0.6-1.8,1.8-3.4,3.5-4.4c-1.7-1-2.9-2.6-3.5-4.4c-1.4-0.4-2.9-0.5-4.3-0.2c0.4,0.1,0.7,0.4,0.9,0.8c0.4,0.8,0,1.6-0.8,2
						c-0.8,0.3-1.7,0-2.1-0.7c-0.2-0.5-0.2-1,0.1-1.4C7.8,23.4,7.2,23.9,6.6,24.4z"/>
					<path class="st7" d="M33.9,12.4c-4.1-4.3-9.4-5.8-15.4-4.9c-2.1,0.3-4.3,1-6,1.9c0.4,0.5,0.7,1.2,0.8,1.8c0.4,2.7-2,5.4-5.2,5
						c-0.3,1.6-0.2,3.4-0.2,5.1c0.9-0.4,1.9-0.7,2.9-0.8c1.1-0.1,2.2-0.1,3.3,0.1c-0.1-0.7-0.1-1.4,0-2.1c0.4-3.5,2.9-6.8,6.9-7.9
						c7.6-2.1,11.9,4,15.5,9c0.7-0.5,1.4-0.9,2.2-1.3C37,16.2,35.6,14.2,33.9,12.4z"/>
					<g>
						<path class="st5" d="M8.2,37.8c3.2-0.4,5.6,2.3,5.2,5c-0.3,2-2.1,3.5-4.1,3.5c-2,0-3.8-1.6-3.4-3.6c0.3-1.4,1.7-2.1,2.8-1.9
							c0.8,0.2,1.5,0.8,1.5,1.6c0,0.7-0.8,1.3-1.7,1c0.9,0.3,1.6-0.3,1.7-1c0-0.7-0.5-1.2-1.1-1.5C8.7,40,8.4,39,8.2,37.8z"/>
						<path class="st2" d="M9.2,40.9c-0.4-0.9-0.8-1.9-1-3.1c-0.3-1.6-0.2-3.4-0.2-5.1c-0.9-0.4-1.7-0.9-2.5-1.6
							c0,2.2-0.1,5.3,0.3,7.1c0.2,1.2,0.5,2.2,0.9,3.2c0.6-0.5,1.4-0.7,2.1-0.6C8.9,40.8,9,40.9,9.2,40.9z"/>
						<path class="st2" d="M12.6,44.6c-0.5,0.7-1.3,1.2-2.1,1.5c2.1,1.4,4.8,2.4,7.5,2.8c6.6,1,13.2-0.7,17.6-5.6
							c1.8-1.9,3.2-4.1,5.3-6.5c-0.8-0.3-1.6-0.6-2.3-1c-1.7,2.1-3.1,4.1-4.7,5.9c-4.1,4.3-9.4,5.8-15.4,4.9
							C16.4,46.2,14.3,45.5,12.6,44.6z"/>
					</g>
					<path class="st7" d="M33.9,41.6c-4.1,4.3-9.4,5.8-15.4,4.9c-2.1-0.3-4.3-1-6-1.9c0.4-0.5,0.7-1.2,0.8-1.8c0.4-2.7-2-5.4-5.2-5
						c-0.3-1.6-0.2-3.4-0.2-5.1c0.9,0.4,1.9,0.7,2.9,0.8c1.1,0.1,2.2,0.1,3.3-0.1c-0.1,0.7-0.1,1.4,0,2.1c0.4,3.5,2.9,6.8,6.9,7.9
						c7.6,2.1,11.9-4,15.5-9c0.7,0.5,1.4,0.9,2.2,1.3C37,37.8,35.6,39.8,33.9,41.6z"/>
					<g>
						<path class="st5" d="M115,37.8c-3.2-0.4-5.6,2.3-5.2,5c0.3,2,2.1,3.5,4.1,3.5c2,0,3.8-1.6,3.4-3.6c-0.3-1.4-1.7-2.1-2.8-1.9
							c-0.8,0.2-1.5,0.8-1.5,1.6c0,0.7,0.8,1.3,1.7,1c-0.9,0.3-1.6-0.3-1.7-1c0-0.7,0.5-1.2,1.1-1.5C114.5,40,114.8,39,115,37.8z"/>
						<path class="st2" d="M114,40.9c0.4-0.9,0.8-1.9,1-3.1c0.3-1.6,0.2-3.4,0.2-5.1c0.9-0.4,1.7-0.9,2.5-1.6c0,2.2,0.1,5.3-0.3,7.1
							c-0.2,1.2-0.5,2.2-0.9,3.2c-0.6-0.5-1.4-0.7-2.1-0.6C114.3,40.8,114.2,40.9,114,40.9z"/>
						<path class="st2" d="M110.6,44.6c0.5,0.7,1.3,1.2,2.1,1.5c-2.1,1.4-4.8,2.4-7.5,2.8c-6.6,1-13.2-0.7-17.6-5.6
							c-1.8-1.9-3.2-4.1-5.3-6.5c0.8-0.3,1.6-0.6,2.3-1c1.7,2.1,3.1,4.1,4.7,5.9c4.1,4.3,9.4,5.8,15.4,4.9
							C106.8,46.2,108.9,45.5,110.6,44.6z"/>
					</g>
					<path class="st1" d="M112.4,33.5c2-0.2,3.9-1,5.5-2.5c1.7-1.5,2.6-3.3,4.8-3.9c-2.1-0.6-3.1-2.4-4.8-3.9
						c-1.6-1.5-3.5-2.3-5.5-2.5c-1.1-0.1-2.2-0.1-3.3,0.1c-0.1,0.7-0.2,1.3-0.5,2c1.4-0.4,2.9-0.5,4.3-0.2c-0.4,0.1-0.7,0.4-0.9,0.8
						c-0.4,0.8,0,1.6,0.8,2c0.8,0.3,1.7,0,2.1-0.7c0.2-0.5,0.2-1-0.1-1.4c0.6,0.3,1.3,0.8,1.9,1.3c1,0.9,1.7,1.8,2.5,2.6
						c-0.8,0.8-1.5,1.7-2.5,2.6c-0.6,0.5-1.2,1-1.9,1.3c0.3-0.4,0.3-0.9,0.1-1.4c-0.4-0.8-1.3-1.1-2.1-0.7c-0.8,0.3-1.1,1.2-0.8,2
						c0.2,0.4,0.5,0.7,0.9,0.8c-1.4,0.3-2.9,0.2-4.3-0.2c0.2,0.6,0.4,1.3,0.5,2C110.2,33.5,111.3,33.6,112.4,33.5z"/>
					<path class="st4" d="M116.6,29.6c1-0.9,1.7-1.8,2.5-2.6c-0.8-0.8-1.5-1.7-2.5-2.6c-0.6-0.5-1.2-1-1.9-1.3
						c0.3,0.4,0.3,0.9,0.1,1.4c-0.4,0.8-1.3,1.1-2.1,0.7c-0.8-0.3-1.1-1.2-0.8-2c0.2-0.4,0.5-0.7,0.9-0.8c-1.4-0.3-2.9-0.2-4.3,0.2
						c-0.6,1.8-1.8,3.4-3.5,4.4c1.7,1,2.9,2.6,3.5,4.4c1.4,0.4,2.9,0.5,4.3,0.2c-0.4-0.1-0.7-0.4-0.9-0.8c-0.4-0.8,0-1.6,0.8-2
						c0.8-0.3,1.7,0,2.1,0.7c0.2,0.5,0.2,1-0.1,1.4C115.4,30.6,116,30.1,116.6,29.6z"/>
					<path class="st7" d="M89.2,41.6c4.1,4.3,9.4,5.8,15.4,4.9c2.1-0.3,4.3-1,6-1.9c-0.4-0.5-0.7-1.2-0.8-1.8c-0.4-2.7,2-5.4,5.2-5
						c0.3-1.6,0.2-3.4,0.2-5.1c-0.9,0.4-1.9,0.7-2.9,0.8c-1.1,0.1-2.2,0.1-3.3-0.1c0.1,0.7,0.1,1.4,0,2.1c-0.4,3.5-2.9,6.8-6.9,7.9
						c-7.6,2.1-11.9-4-15.5-9c-0.7,0.5-1.4,0.9-2.2,1.3C86.2,37.8,87.6,39.8,89.2,41.6z"/>
					<g>
						<path class="st5" d="M115,16.2c-3.2,0.4-5.6-2.3-5.2-5c0.3-2,2.1-3.5,4.1-3.5c2,0,3.8,1.6,3.4,3.6c-0.3,1.4-1.7,2.1-2.8,1.9
							c-0.8-0.2-1.5-0.8-1.5-1.6c0-0.7,0.8-1.3,1.7-1c-0.9-0.3-1.6,0.3-1.7,1c0,0.7,0.5,1.2,1.1,1.5C114.5,14,114.8,15,115,16.2z"/>
						<path class="st2" d="M114,13.1c0.4,0.9,0.8,1.9,1,3.1c0.3,1.6,0.2,3.4,0.2,5.1c0.9,0.4,1.7,0.9,2.5,1.6c0-2.2,0.1-5.3-0.3-7.1
							c-0.2-1.2-0.5-2.2-0.9-3.2c-0.6,0.5-1.4,0.7-2.1,0.6C114.3,13.2,114.2,13.1,114,13.1z"/>
						<path class="st2" d="M110.6,9.4c0.5-0.7,1.3-1.2,2.1-1.5c-2.1-1.4-4.8-2.4-7.5-2.8c-6.6-1-13.2,0.7-17.6,5.6
							c-1.8,1.9-3.2,4.1-5.3,6.5c0.8,0.3,1.6,0.6,2.3,1c1.7-2.1,3.1-4.1,4.7-5.9c4.1-4.3,9.4-5.8,15.4-4.9
							C106.8,7.8,108.9,8.5,110.6,9.4z"/>
					</g>
					<path class="st7" d="M89.2,12.4c4.1-4.3,9.4-5.8,15.4-4.9c2.1,0.3,4.3,1,6,1.9c-0.4,0.5-0.7,1.2-0.8,1.8c-0.4,2.7,2,5.4,5.2,5
						c0.3,1.6,0.2,3.4,0.2,5.1c-0.9-0.4-1.9-0.7-2.9-0.8c-1.1-0.1-2.2-0.1-3.3,0.1c0.1-0.7,0.1-1.4,0-2.1c-0.4-3.5-2.9-6.8-6.9-7.9
						c-7.6-2.1-11.9,4-15.5,9c-0.7-0.5-1.4-0.9-2.2-1.3C86.2,16.2,87.6,14.2,89.2,12.4z"/>
					<g>
						<g>
							<path class="st8" d="M45.2,8.9c-0.5,2,1.4,4.3,4,3.1c0.3,3,4,3.3,5.3,0.9c0.9-1.6,0.8-3.6,0.4-5.4c-0.4,0-0.8,0.1-1.2,0.3
								c-0.4,0.1-0.9-0.1-1-0.5c-0.2-0.4,0.1-0.9,0.5-1c0.4-0.1,0.8-0.2,1.2-0.3C49.2,4.4,45.7,6.9,45.2,8.9z"/>
							<g>
								<path class="st9" d="M53.8,7.7c-0.4,1.3-0.6,3.1-1.9,3.7c-1.9,0.8-3.9-1-3.2-2.8c0.5-1.2,2.7-2.2,4.6-2.3l0,0l-0.1,0
									c-0.4,0.1-0.6,0.6-0.5,1c0.2,0.4,0.6,0.6,1,0.5L53.8,7.7z"/>
								<path class="st10" d="M53.6,7.8c-0.2,0.7-0.4,1.5-0.8,2c-0.5,0.6-1.2,1.2-2.1,1c-0.5-0.1-1.1-0.6-1.2-1.1
									c-0.3-0.8,0.3-1.6,0.9-2.1c0.6-0.5,1.6-0.9,2.4-1.1c-0.2,0.2-0.3,0.5-0.1,0.8C52.8,7.6,53.2,7.8,53.6,7.8z"/>
								<path class="st11" d="M53.4,7.8c-0.2,0.5-0.4,1.2-0.7,1.6c-0.7,1-1.7,1-2.3,0.5c-0.6-0.5-0.7-1.5,0.4-2.3
									c0.5-0.3,1.2-0.7,1.9-0.9c-0.1,0.2-0.1,0.4,0,0.6C52.7,7.6,53.1,7.8,53.4,7.8z"/>
								<path class="st12" d="M53.2,7.7C52.9,8.4,52.7,9,52,9.5c-0.9,0.5-1.8-0.3-1.3-1.2C51,7.7,52,7.2,52.6,6.9c0,0.1,0,0.2,0,0.4
									C52.7,7.5,52.9,7.7,53.2,7.7z"/>
								<path class="st13" d="M53,7.7c-0.3,0.5-0.6,1.2-1.1,1.4c-0.5,0.3-1.1-0.3-0.9-0.8c0.2-0.5,1-0.9,1.5-1.3c0,0.1,0,0.1,0,0.2
									C52.7,7.4,52.8,7.6,53,7.7z"/>
							</g>
						</g>
						<path class="st7" d="M33.6,8.8c2,0.9,4.2,1.3,6.4,1.2c-0.6-0.3-1.1-0.8-1.2-1.5c-0.2-1.1,0.6-2,1.7-2.2
							c1.1-0.2,2.1,0.6,2.3,1.7c0.1,0.8-0.2,1.5-0.9,1.9C43,9.7,44.1,9.4,45.1,9c-0.1,0.5,0,1.1,0.2,1.6c-3,1-6.2,1.3-9.2,0.6
							c-0.2-0.2-0.3-0.4-0.5-0.5C35,10,34.3,9.4,33.6,8.8z"/>
						<path class="st14" d="M45.3,10.6c-3,1-6.2,1.3-9.2,0.6c1.6,1.8,3,3.8,4.8,6c1.5-0.5,3.3-0.9,5.3-0.9c2.7,0,5.5,0.8,8.5,2.5
							c1.1,0.7,2.2,1.4,3.2,2.4c1.2-1.5,2.3-3.5,2.5-5.4c-0.8-0.4-1.4-1.2-1.4-2.1c0-1,0.7-1.9,1.7-2.3c-0.8-2.5-3.2-4.3-5.9-4
							c0.4,1.7,0.5,3.7-0.4,5.4c-1.3,2.4-5,2.1-5.3-0.9C47.4,12.8,45.9,11.9,45.3,10.6z"/>
						<g>
							<path class="st8" d="M78,8.9c0.5,2-1.4,4.3-4,3.1c-0.3,3-4,3.3-5.3,0.9c-0.9-1.6-0.8-3.6-0.4-5.4c0.4,0,0.8,0.1,1.2,0.3
								c0.4,0.1,0.9-0.1,1-0.5c0.2-0.4-0.1-0.9-0.5-1c-0.4-0.1-0.8-0.2-1.2-0.3C74,4.4,77.5,6.9,78,8.9z"/>
							<g>
								<path class="st9" d="M69.4,7.7c0.4,1.3,0.6,3.1,1.9,3.7c1.9,0.8,3.9-1,3.2-2.8c-0.5-1.2-2.7-2.2-4.6-2.3l0,0l0.1,0
									c0.4,0.1,0.6,0.6,0.5,1c-0.2,0.4-0.6,0.6-1,0.5L69.4,7.7z"/>
								<path class="st10" d="M69.6,7.8c0.2,0.7,0.4,1.5,0.8,2c0.5,0.6,1.2,1.2,2.1,1c0.5-0.1,1.1-0.6,1.2-1.1
									c0.3-0.8-0.3-1.6-0.9-2.1c-0.6-0.5-1.6-0.9-2.4-1.1c0.2,0.2,0.3,0.5,0.1,0.8C70.4,7.6,70,7.8,69.6,7.8z"/>
								<path class="st11" d="M69.8,7.8c0.2,0.5,0.4,1.2,0.7,1.6c0.7,1,1.7,1,2.3,0.5c0.6-0.5,0.7-1.5-0.4-2.3
									c-0.5-0.3-1.2-0.7-1.9-0.9c0.1,0.2,0.1,0.4,0,0.6C70.5,7.6,70.1,7.8,69.8,7.8z"/>
								<path class="st12" d="M70,7.7c0.3,0.7,0.5,1.3,1.2,1.7c0.9,0.5,1.8-0.3,1.3-1.2c-0.4-0.6-1.4-1.1-1.9-1.4c0,0.1,0,0.2,0,0.4
									C70.5,7.5,70.3,7.7,70,7.7z"/>
								<path class="st13" d="M70.2,7.7c0.3,0.5,0.6,1.2,1.1,1.4c0.5,0.3,1.1-0.3,0.9-0.8c-0.2-0.5-1-0.9-1.5-1.3c0,0.1,0,0.1,0,0.2
									C70.5,7.4,70.4,7.6,70.2,7.7z"/>
							</g>
						</g>
						<path class="st7" d="M89.6,8.8c-2,0.9-4.2,1.3-6.4,1.2c0.6-0.3,1.1-0.8,1.2-1.5c0.2-1.1-0.6-2-1.7-2.2
							c-1.1-0.2-2.1,0.6-2.3,1.7c-0.1,0.8,0.2,1.5,0.9,1.9C80.2,9.7,79.1,9.4,78,9c0.1,0.5,0,1.1-0.2,1.6c3,1,6.2,1.3,9.2,0.6
							c0.2-0.2,0.3-0.4,0.5-0.5C88.2,10,88.9,9.4,89.6,8.8z"/>
						<path class="st14" d="M77.9,10.6c3,1,6.2,1.3,9.2,0.6c-1.6,1.8-3,3.8-4.8,6c-1.5-0.5-3.3-0.9-5.3-0.9c-2.7,0-5.5,0.8-8.5,2.5
							c-1.1,0.7-2.2,1.4-3.2,2.4c-1.2-1.5-2.3-3.5-2.5-5.4c0.8-0.4,1.4-1.2,1.4-2.1c0-1-0.7-1.9-1.7-2.3c0.8-2.5,3.2-4.3,5.9-4
							c-0.4,1.7-0.5,3.7,0.4,5.4c1.3,2.4,5,2.1,5.3-0.9C75.8,12.8,77.3,11.9,77.9,10.6z"/>
						<path class="st7" d="M53.7,7.7c-0.4,0.1-0.9-0.1-1-0.5c-0.2-0.4,0.1-0.9,0.5-1c3.5-1.2,6.8,0.4,8.5,3.2c1.7-2.8,5-4.4,8.5-3.2
							c0.4,0.1,0.6,0.6,0.5,1c-0.2,0.4-0.6,0.6-1,0.5c-3.2-1.1-6.2,0.9-7.1,3.8c-0.3-0.1-0.5-0.1-0.8-0.1c-0.3,0-0.6,0-0.8,0.1
							C59.8,8.6,56.9,6.6,53.7,7.7z"/>
					</g>
					<g>
						<g>
							<path class="st8" d="M78,45.1c0.5-2-1.4-4.3-4-3.1c-0.3-3-4-3.3-5.3-0.9c-0.9,1.6-0.8,3.6-0.4,5.4c0.4,0,0.8-0.1,1.2-0.3
								c0.4-0.1,0.9,0.1,1,0.5c0.2,0.4-0.1,0.9-0.5,1c-0.4,0.1-0.8,0.2-1.2,0.3C74,49.6,77.5,47.1,78,45.1z"/>
							<g>
								<path class="st9" d="M69.4,46.3c0.4-1.3,0.6-3.1,1.9-3.7c1.9-0.8,3.9,1,3.2,2.8c-0.5,1.2-2.7,2.2-4.6,2.3l0,0l0.1,0
									c0.4-0.1,0.6-0.6,0.5-1c-0.2-0.4-0.6-0.6-1-0.5L69.4,46.3z"/>
								<path class="st10" d="M69.6,46.2c0.2-0.7,0.4-1.5,0.8-2c0.5-0.6,1.2-1.2,2.1-1c0.5,0.1,1.1,0.6,1.2,1.1
									c0.3,0.8-0.3,1.6-0.9,2.1c-0.6,0.5-1.6,0.9-2.4,1.1c0.2-0.2,0.3-0.5,0.1-0.8C70.4,46.4,70,46.2,69.6,46.2z"/>
								<path class="st11" d="M69.8,46.2c0.2-0.5,0.4-1.2,0.7-1.6c0.7-1,1.7-1,2.3-0.5c0.6,0.5,0.7,1.5-0.4,2.3
									c-0.5,0.3-1.2,0.7-1.9,0.9c0.1-0.2,0.1-0.4,0-0.6C70.5,46.4,70.1,46.2,69.8,46.2z"/>
								<path class="st12" d="M70,46.3c0.3-0.7,0.5-1.3,1.2-1.7c0.9-0.5,1.8,0.3,1.3,1.2c-0.4,0.6-1.4,1.1-1.9,1.4
									c0-0.1,0-0.2,0-0.4C70.5,46.5,70.3,46.3,70,46.3z"/>
								<path class="st13" d="M70.2,46.3c0.3-0.5,0.6-1.2,1.1-1.4c0.5-0.3,1.1,0.3,0.9,0.8c-0.2,0.5-1,0.9-1.5,1.3
									c0-0.1,0-0.1,0-0.2C70.5,46.6,70.4,46.4,70.2,46.3z"/>
							</g>
						</g>
						<path class="st7" d="M89.6,45.2c-2-0.9-4.2-1.3-6.4-1.2c0.6,0.3,1.1,0.8,1.2,1.5c0.2,1.1-0.6,2-1.7,2.2
							c-1.1,0.2-2.1-0.6-2.3-1.7c-0.1-0.8,0.2-1.5,0.9-1.9c-1.1,0.2-2.2,0.5-3.2,0.8c0.1-0.5,0-1.1-0.2-1.6c3-1,6.2-1.3,9.2-0.6
							c0.2,0.2,0.3,0.4,0.5,0.5C88.2,44,88.9,44.6,89.6,45.2z"/>
						<path class="st14" d="M77.9,43.4c3-1,6.2-1.3,9.2-0.6c-1.6-1.8-3-3.8-4.8-6c-1.5,0.5-3.3,0.9-5.3,0.9c-2.7,0-5.5-0.8-8.5-2.5
							c-1.1-0.7-2.2-1.4-3.2-2.4c-1.2,1.5-2.3,3.5-2.5,5.4c0.8,0.4,1.4,1.2,1.4,2.1c0,1-0.7,1.9-1.7,2.3c0.8,2.5,3.2,4.3,5.9,4
							c-0.4-1.7-0.5-3.7,0.4-5.4c1.3-2.4,5-2.1,5.3,0.9C75.8,41.2,77.3,42.1,77.9,43.4z"/>
						<g>
							<path class="st8" d="M45.2,45.1c-0.5-2,1.4-4.3,4-3.1c0.3-3,4-3.3,5.3-0.9c0.9,1.6,0.8,3.6,0.4,5.4c-0.4,0-0.8-0.1-1.2-0.3
								c-0.4-0.1-0.9,0.1-1,0.5c-0.2,0.4,0.1,0.9,0.5,1c0.4,0.1,0.8,0.2,1.2,0.3C49.2,49.6,45.7,47.1,45.2,45.1z"/>
							<g>
								<path class="st9" d="M53.8,46.3c-0.4-1.3-0.6-3.1-1.9-3.7c-1.9-0.8-3.9,1-3.2,2.8c0.5,1.2,2.7,2.2,4.6,2.3l0,0l-0.1,0
									c-0.4-0.1-0.6-0.6-0.5-1c0.2-0.4,0.6-0.6,1-0.5L53.8,46.3z"/>
								<path class="st10" d="M53.6,46.2c-0.2-0.7-0.4-1.5-0.8-2c-0.5-0.6-1.2-1.2-2.1-1c-0.5,0.1-1.1,0.6-1.2,1.1
									c-0.3,0.8,0.3,1.6,0.9,2.1c0.6,0.5,1.6,0.9,2.4,1.1c-0.2-0.2-0.3-0.5-0.1-0.8C52.8,46.4,53.2,46.2,53.6,46.2z"/>
								<path class="st11" d="M53.4,46.2c-0.2-0.5-0.4-1.2-0.7-1.6c-0.7-1-1.7-1-2.3-0.5c-0.6,0.5-0.7,1.5,0.4,2.3
									c0.5,0.3,1.2,0.7,1.9,0.9c-0.1-0.2-0.1-0.4,0-0.6C52.7,46.4,53.1,46.2,53.4,46.2z"/>
								<path class="st12" d="M53.2,46.3c-0.3-0.7-0.5-1.3-1.2-1.7c-0.9-0.5-1.8,0.3-1.3,1.2c0.4,0.6,1.4,1.1,1.9,1.4
									c0-0.1,0-0.2,0-0.4C52.7,46.5,52.9,46.3,53.2,46.3z"/>
								<path class="st13" d="M53,46.3c-0.3-0.5-0.6-1.2-1.1-1.4c-0.5-0.3-1.1,0.3-0.9,0.8c0.2,0.5,1,0.9,1.5,1.3c0-0.1,0-0.1,0-0.2
									C52.7,46.6,52.8,46.4,53,46.3z"/>
							</g>
						</g>
						<path class="st7" d="M33.6,45.2c2-0.9,4.2-1.3,6.4-1.2c-0.6,0.3-1.1,0.8-1.2,1.5c-0.2,1.1,0.6,2,1.7,2.2
							c1.1,0.2,2.1-0.6,2.3-1.7c0.1-0.8-0.2-1.5-0.9-1.9c1.1,0.2,2.2,0.5,3.2,0.8c-0.1-0.5,0-1.1,0.2-1.6c-3-1-6.2-1.3-9.2-0.6
							c-0.2,0.2-0.3,0.4-0.5,0.5C35,44,34.3,44.6,33.6,45.2z"/>
						<path class="st14" d="M45.3,43.4c-3-1-6.2-1.3-9.2-0.6c1.6-1.8,3-3.8,4.8-6c1.5,0.5,3.3,0.9,5.3,0.9c2.7,0,5.5-0.8,8.5-2.5
							c1.1-0.7,2.2-1.4,3.2-2.4c1.2,1.5,2.3,3.5,2.5,5.4c-0.8,0.4-1.4,1.2-1.4,2.1c0,1,0.7,1.9,1.7,2.3c-0.8,2.5-3.2,4.3-5.9,4
							c0.4-1.7,0.5-3.7-0.4-5.4c-1.3-2.4-5-2.1-5.3,0.9C47.4,41.2,45.9,42.1,45.3,43.4z"/>
						<path class="st7" d="M69.5,46.3c0.4-0.1,0.9,0.1,1,0.5c0.2,0.4-0.1,0.9-0.5,1c-3.5,1.2-6.8-0.4-8.5-3.2
							c-1.7,2.8-5,4.4-8.5,3.2c-0.4-0.1-0.6-0.6-0.5-1c0.2-0.4,0.6-0.6,1-0.5c3.2,1.1,6.2-0.9,7.1-3.8c0.3,0.1,0.5,0.1,0.8,0.1
							c0.3,0,0.6,0,0.8-0.1C63.4,45.4,66.3,47.4,69.5,46.3z"/>
					</g>
				</g>
				<g>
					<path class="st8" d="M124.4,15.1c0.2,2,2.9,3.6,4.8,1.6c1.3,2.7,5,1.8,5.3-0.9c0.2-1.8-0.5-3.7-1.5-5.1
						c-0.4,0.2-0.9,0.5-1.3,0.8c-0.4,0.3-0.9,0.2-1.1-0.2c-0.3-0.3-0.2-0.8,0.2-1.1c0.4-0.3,0.8-0.6,1.2-0.8
						C126.5,9.6,124.1,13,124.4,15.1z"/>
					<g>
						<path class="st9" d="M132,11.2c0.1,1.4,0.5,3.1-0.5,4.1c-1.5,1.4-4,0.4-4-1.6c0-1.3,1.7-2.9,3.5-3.7l0,0l-0.1,0.1l0,0
							l-0.2,0.1c-0.4,0.3-0.4,0.8-0.2,1.1c0.3,0.3,0.8,0.4,1.1,0.2C131.8,11.4,131.9,11.3,132,11.2z"/>
						<path class="st10" d="M131.9,11.3c0.1,0.7,0.2,1.5-0.1,2.1c-0.3,0.8-0.7,1.5-1.6,1.6c-0.5,0.1-1.2-0.2-1.6-0.6
							c-0.5-0.7-0.3-1.6,0.1-2.3c0.4-0.6,1.1-1.2,1.7-1.7c-0.1,0.2-0.1,0.5,0.1,0.8c0.3,0.3,0.8,0.4,1.1,0.2L131.9,11.3z"/>
						<path class="st11" d="M131.7,11.4c0,0.6,0,1.2-0.1,1.7c-0.3,1.2-1.3,1.5-2,1.2c-0.7-0.3-1.2-1.2-0.5-2.3
							c0.3-0.4,0.8-0.9,1.2-1.3c0,0.2,0,0.3,0.2,0.5C130.8,11.6,131.3,11.7,131.7,11.4L131.7,11.4z"/>
						<path class="st12" d="M131.5,11.6c0,0.7,0,1.3-0.5,1.9c-0.6,0.8-1.8,0.3-1.7-0.7c0.1-0.6,0.7-1.3,1.1-1.7
							c0,0.1,0.1,0.2,0.1,0.2C130.8,11.6,131.2,11.7,131.5,11.6z"/>
						<path class="st13" d="M131.3,11.6c-0.1,0.5-0.2,1.2-0.5,1.5c-0.4,0.4-1.1,0.1-1.1-0.5c0-0.4,0.4-1,0.8-1.5c0,0,0,0,0.1,0.1
							C130.7,11.5,131,11.6,131.3,11.6z"/>
					</g>
				</g>
				<path class="st15" d="M146.3,11.6c-1.6-1.2-3.4-2-5.3-2.3c0.5,0.4,0.8,1,0.7,1.7c-0.2,1-1.1,1.7-2.2,1.5c-1-0.1-1.8-1.1-1.6-2.1
					c0.1-0.6,0.5-1.1,1-1.3c-2.5,0-5,0.8-7.2,2.3c-0.4,0.3-0.9,0.2-1.1-0.2c-0.3-0.3-0.2-0.8,0.2-1.1c4.6-3.3,10.7-3.5,15.5-0.5
					V11.6z"/>
				<path class="st15" d="M127.7,17.6c-0.7,0.9-1.5,1.7-2.3,2.3c0.7-0.1,1.4,0.2,1.8,0.8c0.6,0.8,0.4,2-0.4,2.6
					c-0.9,0.6-2.1,0.4-2.7-0.4c-0.4-0.6-0.5-1.3-0.2-1.8c-1.7,1.1-3.7,1.8-5.7,2.2l-0.3-0.3l0-1.2c3.1-0.6,6-2.1,8.1-4.5
					C126.4,17.6,127,17.7,127.7,17.6z"/>
				<path class="st15" d="M124.8,13.1c-2.8,0.4-6-2-4.9-5.4c0.7,1.4,4.3-0.3,6.4,3.7C125.6,11.9,125.1,12.5,124.8,13.1z"/>
				<path class="st14" d="M138.9,9.1c-2,0-4.1,0.5-5.9,1.5c1,1.5,1.8,3.3,1.5,5.1c-0.4,2.7-4,3.6-5.3,0.9c-0.5,0.5-1,0.8-1.5,0.9
					c-0.7,0.9-1.5,1.7-2.3,2.3c0.7-0.1,1.4,0.2,1.8,0.8c0.6,0.8,0.4,2-0.4,2.6c-0.9,0.6-2.1,0.4-2.7-0.4c-0.4-0.6-0.5-1.3-0.2-1.8
					c-1.7,1.1-3.7,1.8-5.7,2.2c1.6,1.5,2.5,3.2,4.6,3.8c-2.1,0.6-3,2.3-4.6,3.8c2,0.4,4,1.2,5.7,2.2c-0.3-0.6-0.2-1.3,0.2-1.8
					c0.6-0.8,1.9-1,2.7-0.4c0.9,0.6,1.1,1.8,0.4,2.6c-0.4,0.6-1.1,0.8-1.8,0.8c0.9,0.7,1.6,1.5,2.3,2.3c0.5,0.1,1,0.4,1.5,0.9
					c1.3-2.7,5-1.8,5.3,0.9c0.2,1.8-0.5,3.7-1.5,5.1c1.8,1,3.9,1.5,5.9,1.5c-0.5-0.3-0.9-0.7-1-1.3c-0.2-1,0.6-1.9,1.6-2.1
					c1-0.1,2,0.5,2.2,1.5c0.1,0.7-0.2,1.3-0.7,1.7c1.9-0.3,3.7-1.1,5.3-2.3v-3.7c-4.6,0.7-8.5-0.8-11.6-4.2
					c-2.4-2.6-4.3-6.4-7.8-7.5c3.5-1.1,5.4-4.9,7.8-7.5c3.1-3.3,7-4.9,11.6-4.2v-3.7c-1.6-1.2-3.4-2-5.3-2.3c0.5,0.4,0.8,1,0.7,1.7
					c-0.2,1-1.1,1.7-2.2,1.5c-1-0.1-1.8-1.1-1.6-2.1C138,9.9,138.4,9.4,138.9,9.1z"/>
				<g>
					<path class="st8" d="M124.4,38.9c0.2-2,2.9-3.6,4.8-1.6c1.3-2.7,5-1.8,5.3,0.9c0.2,1.8-0.5,3.7-1.5,5.1
						c-0.4-0.2-0.9-0.5-1.3-0.8c-0.4-0.3-0.9-0.2-1.1,0.2c-0.3,0.3-0.2,0.8,0.2,1.1c0.4,0.3,0.8,0.6,1.2,0.8
						C126.5,44.4,124.1,41,124.4,38.9z"/>
					<g>
						<path class="st9" d="M132,42.8c0.1-1.4,0.5-3.1-0.5-4.1c-1.5-1.4-4-0.4-4,1.6c0,1.3,1.7,2.9,3.5,3.7l0,0l-0.1-0.1l0,0
							l-0.2-0.1c-0.4-0.3-0.4-0.8-0.2-1.1c0.3-0.3,0.8-0.4,1.1-0.2C131.8,42.6,131.9,42.7,132,42.8z"/>
						<path class="st10" d="M131.9,42.7c0.1-0.7,0.2-1.5-0.1-2.1c-0.3-0.8-0.7-1.5-1.6-1.6c-0.5-0.1-1.2,0.2-1.6,0.6
							c-0.5,0.7-0.3,1.6,0.1,2.3c0.4,0.6,1.1,1.2,1.7,1.7c-0.1-0.2-0.1-0.5,0.1-0.8c0.3-0.3,0.8-0.4,1.1-0.2L131.9,42.7z"/>
						<path class="st11" d="M131.7,42.6c0-0.6,0-1.2-0.1-1.7c-0.3-1.2-1.3-1.5-2-1.2c-0.7,0.3-1.2,1.2-0.5,2.3
							c0.3,0.4,0.8,0.9,1.2,1.3c0-0.2,0-0.3,0.2-0.5C130.8,42.4,131.3,42.3,131.7,42.6L131.7,42.6z"/>
						<path class="st12" d="M131.5,42.4c0-0.7,0-1.3-0.5-1.9c-0.6-0.8-1.8-0.3-1.7,0.7c0.1,0.6,0.7,1.3,1.1,1.7
							c0-0.1,0.1-0.2,0.1-0.2C130.8,42.4,131.2,42.3,131.5,42.4z"/>
						<path class="st13" d="M131.3,42.4c-0.1-0.5-0.2-1.2-0.5-1.5c-0.4-0.4-1.1-0.1-1.1,0.5c0,0.4,0.4,1,0.8,1.5c0,0,0,0,0.1-0.1
							C130.7,42.5,131,42.4,131.3,42.4z"/>
					</g>
				</g>
				<path class="st15" d="M146.3,42.4c-1.6,1.2-3.4,2-5.3,2.3c0.5-0.4,0.8-1,0.7-1.7c-0.2-1-1.1-1.7-2.2-1.5c-1,0.1-1.8,1.1-1.6,2.1
					c0.1,0.6,0.5,1.1,1,1.3c-2.5,0-5-0.8-7.2-2.3c-0.4-0.3-0.9-0.2-1.1,0.2c-0.3,0.3-0.2,0.8,0.2,1.1c4.6,3.3,10.7,3.5,15.5,0.5
					V42.4z"/>
				<path class="st15" d="M127.7,36.4c-0.7-0.9-1.5-1.7-2.3-2.3c0.7,0.1,1.4-0.2,1.8-0.8c0.6-0.8,0.4-2-0.4-2.6
					c-0.9-0.6-2.1-0.4-2.7,0.4c-0.4,0.6-0.5,1.3-0.2,1.8c-1.7-1.1-3.7-1.8-5.7-2.2l-0.3,0.3l0,1.2c3.1,0.6,6,2.1,8.1,4.5
					C126.4,36.4,127,36.3,127.7,36.4z"/>
				<path class="st15" d="M124.8,40.9c-2.8-0.4-6,2-4.9,5.4c0.7-1.4,4.3,0.3,6.4-3.7C125.6,42.1,125.1,41.5,124.8,40.9z"/>
			</g>
			<path class="st6" d="M28.4,16c-1.9-0.6-4.1-0.1-5.8,1.3c-3.9,3.6-7.3-1.4-2.6-4.3c-2.3,1.2-3.7,3.3-4,5.7
				c-0.2,1.8,0.3,3.9,1.6,5.5c1.1,1.3,2.7,2.3,4.5,1.9c-2.3,0.3-3.5-2.4-2.3-4.1c1.5-2.2,5.3-1.6,6,1.1c0.1,0.4,0.1,0.8,0.1,1.2
				c1.1-0.3,2-0.1,2.6,0.3c2.4-0.9,4.3-2.4,6.3-3.7c-1-1.2-2.1-2.4-3.5-3.4c0.3,0.5,0.3,1.2,0,1.7c-0.5,0.9-1.7,1.3-2.7,0.8
				c-1-0.5-1.4-1.7-0.8-2.6c0.3-0.6,1-1,1.7-1C29.1,16.2,28.8,16.1,28.4,16z"/>
			<path class="st6" d="M36.1,22.2c-1.8,1.3-3.6,2.7-6,3.6c0.6,0.6,1.2,1.1,1.9,1.1c-0.8,0-1.3,0.5-1.9,1.1c2.3,1,4.2,2.3,6,3.6
				c0.4-0.4,0.7-0.8,1.1-1.1c1.2-1.1,2.5-2.1,3.9-2.8c-0.5-0.5-1-0.8-1.7-0.8c0.7,0,1.2-0.4,1.7-0.8c-1.4-0.8-2.7-1.7-3.9-2.8
				C36.8,23,36.5,22.6,36.1,22.2z"/>
			<path class="st4" d="M46.3,18.3c-3.8,0-6.3,1.2-8.7,2.9c1.5,1.6,3.2,2.8,5,3.8c0.7-0.4,1.5-0.7,2.7-0.6c-0.1-1.5,0.7-3,2.4-3.4
				c1.8-0.4,3.7,0.7,3.9,2.5c0.1,1.1-0.6,2.3-2,2.3c2.7-0.1,5.2-1.4,7-3.1c-0.9-0.8-1.9-1.6-3-2.2C51.2,19,48.7,18.3,46.3,18.3z"/>
			<path class="st4" d="M42.7,29.1c-1.9,0.9-3.6,2.2-5,3.8c2.4,1.6,4.9,2.9,8.7,2.9c2.4,0,4.8-0.7,7.4-2.2c1-0.6,2-1.3,3-2.2
				c-1.9-1.8-4.3-3-7-3.1c1.4,0.1,2.1,1.2,2,2.3c-0.1,1.9-2.1,2.9-3.9,2.5c-1.7-0.4-2.6-1.9-2.4-3.4C44.2,29.9,43.4,29.6,42.7,29.1z
				"/>
			<path class="st6" d="M25.9,29.8c0,0.4,0,0.8-0.1,1.2c-0.7,2.7-4.5,3.3-6,1.1c-1.2-1.7-0.1-4.4,2.3-4.1c-1.8-0.4-3.4,0.6-4.5,1.9
				c-1.2,1.6-1.8,3.7-1.6,5.5c0.3,2.3,1.7,4.5,4,5.7c-4.7-2.8-1.2-7.9,2.6-4.3c1.7,1.4,3.9,1.8,5.8,1.3c0.3-0.1,0.7-0.2,1-0.3
				c-0.7,0-1.3-0.4-1.7-1c-0.5-0.9-0.1-2.1,0.8-2.6c1-0.5,2.2-0.1,2.7,0.8c0.3,0.6,0.3,1.2,0,1.7c1.4-1,2.5-2.2,3.5-3.4
				c-1.9-1.4-3.9-2.8-6.3-3.7C27.9,29.9,27.1,30.1,25.9,29.8z"/>
			<path class="st6" d="M94.8,16c1.9-0.6,4.1-0.1,5.8,1.3c3.9,3.6,7.3-1.4,2.6-4.3c2.3,1.2,3.7,3.3,4,5.7c0.2,1.8-0.3,3.9-1.6,5.5
				c-1.1,1.3-2.7,2.3-4.5,1.9c2.3,0.3,3.5-2.4,2.3-4.1c-1.5-2.2-5.3-1.6-6,1.1c-0.1,0.4-0.1,0.8-0.1,1.2c-1.1-0.3-2-0.1-2.6,0.3
				c-2.4-0.9-4.3-2.4-6.3-3.7c1-1.2,2.1-2.4,3.5-3.4c-0.3,0.5-0.3,1.2,0,1.7c0.5,0.9,1.7,1.3,2.7,0.8c1-0.5,1.4-1.7,0.8-2.6
				c-0.3-0.6-1-1-1.7-1C94.1,16.2,94.4,16.1,94.8,16z"/>
			<path class="st6" d="M87.1,22.2c1.8,1.3,3.6,2.7,6,3.6c-0.6,0.6-1.2,1.1-1.9,1.1c0.8,0,1.3,0.5,1.9,1.1c-2.3,1-4.2,2.3-6,3.6
				c-0.4-0.4-0.7-0.8-1.1-1.1c-1.2-1.1-2.5-2.1-3.9-2.8c0.5-0.5,1-0.8,1.7-0.8c-0.7,0-1.2-0.4-1.7-0.8c1.4-0.8,2.7-1.7,3.9-2.8
				C86.3,23,86.7,22.6,87.1,22.2z"/>
			<path class="st4" d="M76.8,18.3c3.8,0,6.3,1.2,8.7,2.9c-1.5,1.6-3.2,2.8-5,3.8c-0.7-0.4-1.5-0.7-2.7-0.6c0.1-1.5-0.7-3-2.4-3.4
				c-1.8-0.4-3.7,0.7-3.9,2.5c-0.1,1.1,0.6,2.3,2,2.3c-2.7-0.1-5.2-1.4-7-3.1c0.9-0.8,1.9-1.6,3-2.2C72,19,74.5,18.3,76.8,18.3z"/>
			<path class="st4" d="M80.5,29.1c1.9,0.9,3.6,2.2,5,3.8c-2.4,1.6-4.9,2.9-8.7,2.9c-2.4,0-4.8-0.7-7.4-2.2c-1-0.6-2-1.3-3-2.2
				c1.9-1.8,4.3-3,7-3.1c-1.4,0.1-2.1,1.2-2,2.3c0.1,1.9,2.1,2.9,3.9,2.5c1.7-0.4,2.6-1.9,2.4-3.4C79,29.9,79.8,29.6,80.5,29.1z"/>
			<path class="st6" d="M97.2,29.8c0,0.4,0,0.8,0.1,1.2c0.7,2.7,4.5,3.3,6,1.1c1.2-1.7,0.1-4.4-2.3-4.1c1.8-0.4,3.4,0.6,4.5,1.9
				c1.2,1.6,1.8,3.7,1.6,5.5c-0.3,2.3-1.7,4.5-4,5.7c4.7-2.8,1.2-7.9-2.6-4.3c-1.7,1.4-3.9,1.8-5.8,1.3c-0.3-0.1-0.7-0.2-1-0.3
				c0.7,0,1.3-0.4,1.7-1c0.5-0.9,0.1-2.1-0.8-2.6c-1-0.5-2.2-0.1-2.7,0.8c-0.3,0.6-0.3,1.2,0,1.7c-1.4-1-2.5-2.2-3.5-3.4
				c1.9-1.4,3.9-2.8,6.3-3.7C95.3,29.9,96.1,30.1,97.2,29.8z"/>
		</g>
		<path class="st16" d="M131.5,27c1.8-1.7,3.2-4,5-5.9c3.7-4,7.5-4.1,12.2-2.7V7.7h206.5v10.7c4.8-1.5,8.5-1.3,12.2,2.7
			c1.8,2,3.2,4.2,5,5.9c-1.8,1.7-3.2,4-5,5.9c-3.7,4-7.5,4.1-12.2,2.7v10.7H148.7V35.6c-4.8,1.5-8.5,1.3-12.2-2.7
			C134.7,31,133.3,28.7,131.5,27L131.5,27z M146.3,5.3c0,3.3,0,6.7,0,10c-4.6-0.7-8.5,0.8-11.6,4.2c-2.4,2.6-4.3,6.4-7.8,7.5
			c3.5,1.1,5.4,4.9,7.8,7.5c3.1,3.3,7,4.9,11.6,4.2c0,3.3,0,6.7,0,10h211.5c0-3.3,0-6.7,0-10c4.6,0.7,8.5-0.8,11.6-4.2
			c2.4-2.6,4.3-6.4,7.8-7.5c-3.5-1.1-5.4-4.9-7.8-7.5c-3.1-3.3-7-4.9-11.6-4.2c0-3.3,0-6.7,0-10H146.3z"/>
		<g>
			<g>
				<g>
					<g>
						<g>
							<path class="st1" d="M466.8,33.4c3.9,5.2,8.2,12.2,16.3,10c4-1.1,6.5-4.4,6.9-7.9c0.4-3.2-1.1-6.7-4-8.5
								c2.9-1.7,4.4-5.2,4-8.5c-0.4-3.5-2.9-6.8-6.9-7.9c-8.1-2.3-12.4,4.8-16.3,10c2.8-3.4,6-7.4,10.7-8.4c0.1-0.1,0.1-0.3,0.2-0.4
								c-1.3,1.9,0.6,2.9,1.7,2c-0.4-0.5-0.4-1.3,0.1-1.8c-0.7,0.9-0.3,2.2,0.8,2.4c0.6,0.1,1.2-0.1,1.6-0.6
								c0.4-0.5,0.3-1.5-0.5-1.6c0.9,0.2,1.8,0.4,2.5,0.8c2.3,1.2,3.7,3.3,4,5.7c0.2,1.8-0.3,3.9-1.6,5.5c-1.1,1.3-2.7,2.3-4.5,1.9
								c-1.3-0.3-1.9-1.4-1.2-2.6c-0.7,1.2-0.1,2.3,1.2,2.6c2.3,0.3,3.5-2.4,2.3-4.1c-1.5-2.2-5.3-1.6-6,1.1c-0.4,1.6,0.3,3.1,1.5,4
								c-1.2,0.9-1.9,2.3-1.5,4c0.7,2.7,4.5,3.3,6,1.1c1.2-1.7,0.1-4.4-2.3-4.1c-1.3,0.3-1.9,1.4-1.2,2.6c-0.7-1.2-0.1-2.3,1.2-2.6
								c1.8-0.4,3.4,0.6,4.5,1.9c1.2,1.6,1.8,3.7,1.6,5.5c-0.3,2.3-1.7,4.5-4,5.7c-0.8,0.4-1.6,0.7-2.5,0.8c0.8-0.2,0.9-1.1,0.5-1.6
								c-0.4-0.5-1-0.7-1.6-0.6c-1.1,0.2-1.6,1.5-0.8,2.4c-0.5-0.6-0.5-1.3-0.1-1.8c-1.1-0.9-3,0.1-1.7,2c-0.1-0.1-0.2-0.3-0.2-0.4
								C472.8,40.8,469.6,36.8,466.8,33.4z"/>
							<path class="st2" d="M478.1,29.8c-3.5,0.8-4.1-2.8-6.1-2.8c2,0,2.6-3.6,6.1-2.8c0.1,1.1,0.7,2.1,1.6,2.8
								C478.7,27.7,478.1,28.7,478.1,29.8z"/>
							<path class="st1" d="M444.6,31.4c-1,1.1-1.7,2.4-2.2,3.7c-0.5-1.3-1.3-2.5-2.2-3.7c-0.4,0.5-0.9,0.9-1.4,1.3
								c1.2,1.5,2.3,3.5,2.5,5.4c0.7-0.3,1.5-0.3,2.2,0c0.2-1.9,1.3-3.9,2.5-5.4C445.5,32.3,445.1,31.9,444.6,31.4z"/>
							<path class="st1" d="M456.2,33.1c2.9-0.7,3.3-4.6,0.7-6.1c2.7-1.5,2.3-5.4-0.7-6.1c-1.8-0.4-3.7,0.7-3.9,2.5
								c-0.1,1.1,0.6,2.3,2,2.3c1.9,0.1,2.2-1.4,1.2-2.3c1,0.9,0.7,2.4-1.2,2.3c-2.7-0.1-5.2-1.4-7-3.1c-0.5,0.4-0.9,0.8-1.3,1.3
								c1.4,1.3,3.1,2.4,5,3c-1.9,0.6-3.6,1.7-5,3c0.4,0.5,0.9,0.9,1.3,1.3c1.9-1.8,4.3-3,7-3.1c1.9-0.1,2.2,1.4,1.2,2.3
								c1-0.9,0.7-2.4-1.2-2.3c-1.4,0.1-2.1,1.2-2,2.3C452.4,32.4,454.4,33.5,456.2,33.1z"/>
							<path class="st3" d="M442.4,29.3c1.3,0,2.4-1,2.4-2.3c0-1.3-1.1-2.3-2.4-2.3s-2.4,1-2.4,2.3C440,28.3,441.1,29.3,442.4,29.3z
								"/>
							<path class="st4" d="M445.9,30c-0.5-0.6-1-1.1-1.5-1.8c0.2-0.4,0.4-0.8,0.4-1.3c0-0.5-0.1-0.9-0.4-1.3c0.5-0.6,1-1.2,1.5-1.8
								c1.4,1.3,3.1,2.4,5,3C449.1,27.6,447.4,28.7,445.9,30L445.9,30z M438.9,24c0.5,0.6,1,1.1,1.5,1.8c-0.2,0.4-0.4,0.8-0.4,1.3
								c0,0.5,0.1,0.9,0.4,1.3c-0.5,0.6-1,1.2-1.5,1.8c-1.4-1.3-3.1-2.4-5-3C435.7,26.4,437.4,25.3,438.9,24L438.9,24z M442.4,18.9
								c-0.5,1.3-1.3,2.5-2.2,3.7c0.6,0.7,1.2,1.4,1.8,2.1c0.1,0,0.3,0,0.5,0s0.3,0,0.5,0c0.6-0.7,1.2-1.5,1.8-2.1
								C443.7,21.5,442.9,20.2,442.4,18.9L442.4,18.9z M442.4,35.1c0.5-1.3,1.3-2.5,2.2-3.7c-0.6-0.7-1.2-1.4-1.8-2.1
								c-0.1,0-0.3,0-0.5,0s-0.3,0-0.5,0c-0.6,0.7-1.2,1.5-1.8,2.1C441.1,32.5,441.9,33.8,442.4,35.1z"/>
							<path class="st1" d="M428.6,33.1c-2.9-0.7-3.3-4.6-0.7-6.1c-2.7-1.5-2.3-5.4,0.7-6.1c1.8-0.4,3.7,0.7,3.9,2.5
								c0.1,1.1-0.6,2.3-2,2.3c-1.9,0.1-2.2-1.4-1.2-2.3c-1,0.9-0.7,2.4,1.2,2.3c2.7-0.1,5.2-1.4,7-3.1c0.5,0.4,0.9,0.8,1.3,1.3
								c-1.4,1.3-3.1,2.4-5,3c1.9,0.6,3.6,1.7,5,3c-0.4,0.5-0.9,0.9-1.3,1.3c-1.9-1.8-4.3-3-7-3.1c-1.9-0.1-2.2,1.4-1.2,2.3
								c-1-0.9-0.7-2.4,1.2-2.3c1.4,0.1,2.1,1.2,2,2.3C432.4,32.4,430.4,33.5,428.6,33.1z"/>
							<path class="st2" d="M426.2,29.7c0.1-1.1,0.7-2.1,1.8-2.7c-1.1-0.6-1.7-1.7-1.8-2.7c-3.4-0.4-3.9,2.7-6,2.7
								C422.3,27,422.8,30.1,426.2,29.7z"/>
							<path class="st2" d="M458.6,29.7c-0.1-1.1-0.7-2.1-1.8-2.7c1.1-0.6,1.7-1.7,1.8-2.7c3.4-0.4,3.9,2.7,6,2.7
								C462.6,27,462,30.1,458.6,29.7z"/>
							<path class="st1" d="M444.6,22.6c-1-1.1-1.7-2.4-2.2-3.7c-0.5,1.3-1.3,2.5-2.2,3.7c-0.4-0.5-0.9-0.9-1.4-1.3
								c1.2-1.5,2.3-3.5,2.5-5.4c0.7,0.3,1.5,0.3,2.2,0c0.2,1.9,1.3,3.9,2.5,5.4C445.5,21.7,445.1,22.1,444.6,22.6z"/>
							<path class="st1" d="M466.3,32.9c-2.4,1.6-4.9,2.9-8.7,2.9c-2.4,0-4.8-0.7-7.4-2.2c-2.2-1.3-4.1-3-5.8-5.2
								c-0.4,0.5-0.9,0.9-1.6,1c1.9,2.4,3.9,4.4,6.4,5.8c2.9,1.7,5.7,2.5,8.5,2.5c4.3,0,7.2-1.4,9.8-3.2
								C467.1,33.8,466.8,33.4,466.3,32.9z"/>
							<path class="st1" d="M473.9,28.1c-2.3,1-4.2,2.3-6,3.6c0.4,0.5,0.8,1,1.3,1.4c1.9-1.4,3.9-2.8,6.3-3.7
								C474.8,29.1,474.3,28.6,473.9,28.1z"/>
							<path class="st1" d="M466.8,33.4c-1.6-1.8-3.4-3.3-5.5-4.3c0.6-0.4,1.1-0.9,1.5-1.3c1.4,0.8,2.7,1.7,3.9,2.8
								c2.1,2,3.4,4.2,5.9,6c-0.3-0.5-0.3-1.2,0-1.7c0.5-0.9,1.7-1.3,2.7-0.8c1,0.5,1.4,1.7,0.8,2.6c-0.3,0.6-1,1-1.7,1
								c0.3,0.1,0.6,0.2,1,0.3c1.9,0.6,4.1,0.1,5.8-1.3c3.9-3.6,7.3,1.4,2.6,4.3c-0.8,0.4-1.6,0.7-2.5,0.8c-0.5,0.1-1-0.3-0.9-0.9
								c-0.1,0.6,0.3,1,0.9,0.9c0.8-0.2,0.9-1.1,0.5-1.6c-0.4-0.5-1-0.7-1.6-0.6c-1.1,0.2-1.6,1.5-0.8,2.4c-0.5-0.6-0.5-1.3-0.1-1.8
								c-1.1-0.9-3,0.1-1.7,2c-0.1-0.1-0.2-0.3-0.2-0.4C472.8,40.8,469.6,36.8,466.8,33.4z"/>
							<path class="st1" d="M466.3,21.1c-2.4-1.6-4.9-2.9-8.7-2.9c-2.4,0-4.8,0.7-7.4,2.2c-2.2,1.3-4.1,3-5.8,5.2
								c-0.4-0.5-0.9-0.9-1.6-1c1.9-2.4,3.9-4.4,6.4-5.8c2.9-1.7,5.7-2.5,8.5-2.5c4.3,0,7.2,1.4,9.8,3.2
								C467.1,20.2,466.8,20.6,466.3,21.1z"/>
							<path class="st1" d="M473.9,25.9c-2.3-1-4.2-2.3-6-3.6c0.4-0.5,0.8-1,1.3-1.4c1.9,1.4,3.9,2.8,6.3,3.7
								C474.8,24.9,474.3,25.4,473.9,25.9z"/>
							<path class="st1" d="M466.8,20.6c-1.6,1.8-3.4,3.3-5.5,4.3c0.6,0.4,1.1,0.9,1.5,1.3c1.4-0.8,2.7-1.7,3.9-2.8
								c2.1-2,3.4-4.2,5.9-6c-0.3,0.5-0.3,1.2,0,1.7c0.5,0.9,1.7,1.3,2.7,0.8c1-0.5,1.4-1.7,0.8-2.6c-0.3-0.6-1-1-1.7-1
								c0.3-0.1,0.6-0.2,1-0.3c1.9-0.6,4.1-0.1,5.8,1.3c3.9,3.6,7.3-1.4,2.6-4.3c-0.8-0.4-1.6-0.7-2.5-0.8c-0.5-0.1-1,0.3-0.9,0.9
								c-0.1-0.6,0.3-1,0.9-0.9c0.8,0.2,0.9,1.1,0.5,1.6c-0.4,0.5-1,0.7-1.6,0.6c-1.1-0.2-1.6-1.5-0.8-2.4c-0.5,0.6-0.5,1.3-0.1,1.8
								c-1.1,0.9-3-0.1-1.7-2c-0.1,0.1-0.2,0.3-0.2,0.4C472.8,13.2,469.6,17.2,466.8,20.6z"/>
							<path class="st1" d="M418,33.4c-3.9,5.2-8.2,12.2-16.3,10c-4-1.1-6.5-4.4-6.9-7.9c-0.4-3.2,1.1-6.7,4-8.5
								c-2.9-1.7-4.4-5.2-4-8.5c0.4-3.5,2.9-6.8,6.9-7.9c8.1-2.3,12.4,4.8,16.3,10c-2.8-3.4-6-7.4-10.7-8.4
								c-0.1-0.1-0.1-0.3-0.2-0.4c1.3,1.9-0.6,2.9-1.7,2c0.4-0.5,0.4-1.3-0.1-1.8c0.7,0.9,0.3,2.2-0.8,2.4c-0.6,0.1-1.2-0.1-1.6-0.6
								c-0.4-0.5-0.3-1.5,0.5-1.6c-0.9,0.2-1.8,0.4-2.5,0.8c-2.3,1.2-3.7,3.3-4,5.7c-0.2,1.8,0.3,3.9,1.6,5.5
								c1.1,1.3,2.7,2.3,4.5,1.9c1.3-0.3,1.9-1.4,1.2-2.6c0.7,1.2,0.1,2.3-1.2,2.6c-2.3,0.3-3.5-2.4-2.3-4.1c1.5-2.2,5.3-1.6,6,1.1
								c0.4,1.6-0.3,3.1-1.5,4c1.2,0.9,1.9,2.3,1.5,4c-0.7,2.7-4.5,3.3-6,1.1c-1.2-1.7-0.1-4.4,2.3-4.1c1.3,0.3,1.9,1.4,1.2,2.6
								c0.7-1.2,0.1-2.3-1.2-2.6c-1.8-0.4-3.4,0.6-4.5,1.9c-1.2,1.6-1.8,3.7-1.6,5.5c0.3,2.3,1.7,4.5,4,5.7c0.8,0.4,1.6,0.7,2.5,0.8
								c-0.8-0.2-0.9-1.1-0.5-1.6c0.4-0.5,1-0.7,1.6-0.6c1.1,0.2,1.6,1.5,0.8,2.4c0.5-0.6,0.5-1.3,0.1-1.8c1.1-0.9,3,0.1,1.7,2
								c0.1-0.1,0.2-0.3,0.2-0.4C412,40.8,415.2,36.8,418,33.4z"/>
							<path class="st2" d="M406.8,29.8c3.5,0.8,4.1-2.8,6.1-2.8c-2,0-2.6-3.6-6.1-2.8c-0.1,1.1-0.7,2.1-1.6,2.8
								C406.1,27.7,406.7,28.7,406.8,29.8z"/>
							<path class="st1" d="M418.5,32.9c2.4,1.6,4.9,2.9,8.7,2.9c2.4,0,4.8-0.7,7.4-2.2c2.2-1.3,4.1-3,5.8-5.2
								c0.4,0.5,0.9,0.9,1.6,1c-1.9,2.4-3.9,4.4-6.4,5.8c-2.9,1.7-5.7,2.5-8.5,2.5c-4.3,0-7.2-1.4-9.8-3.2
								C417.7,33.8,418,33.4,418.5,32.9z"/>
							<path class="st1" d="M411,28.1c2.3,1,4.2,2.3,6,3.6c-0.4,0.5-0.8,1-1.3,1.4c-1.9-1.4-3.9-2.8-6.3-3.7
								C410,29.1,410.5,28.6,411,28.1z"/>
							<path class="st1" d="M418,33.4c1.6-1.8,3.4-3.3,5.5-4.3c-0.6-0.4-1.1-0.9-1.5-1.3c-1.4,0.8-2.7,1.7-3.9,2.8
								c-2.1,2-3.4,4.2-5.9,6c0.3-0.5,0.3-1.2,0-1.7c-0.5-0.9-1.7-1.3-2.7-0.8c-1,0.5-1.4,1.7-0.8,2.6c0.3,0.6,1,1,1.7,1
								c-0.3,0.1-0.6,0.2-1,0.3c-1.9,0.6-4.1,0.1-5.8-1.3c-3.9-3.6-7.3,1.4-2.6,4.3c0.8,0.4,1.6,0.7,2.5,0.8c0.5,0.1,1-0.3,0.9-0.9
								c0.1,0.6-0.3,1-0.9,0.9c-0.8-0.2-0.9-1.1-0.5-1.6c0.4-0.5,1-0.7,1.6-0.6c1.1,0.2,1.6,1.5,0.8,2.4c0.5-0.6,0.5-1.3,0.1-1.8
								c1.1-0.9,3,0.1,1.7,2c0.1-0.1,0.2-0.3,0.2-0.4C412,40.8,415.2,36.8,418,33.4z"/>
							<path class="st1" d="M418.5,21.1c2.4-1.6,4.9-2.9,8.7-2.9c2.4,0,4.8,0.7,7.4,2.2c2.2,1.3,4.1,3,5.8,5.2
								c0.4-0.5,0.9-0.9,1.6-1c-1.9-2.4-3.9-4.4-6.4-5.8c-2.9-1.7-5.7-2.5-8.5-2.5c-4.3,0-7.2,1.4-9.8,3.2
								C417.7,20.2,418,20.6,418.5,21.1z"/>
							<path class="st1" d="M411,25.9c2.3-1,4.2-2.3,6-3.6c-0.4-0.5-0.8-1-1.3-1.4c-1.9,1.4-3.9,2.8-6.3,3.7
								C410,24.9,410.5,25.4,411,25.9z"/>
							<path class="st1" d="M418,20.6c1.6,1.8,3.4,3.3,5.5,4.3c-0.6,0.4-1.1,0.9-1.5,1.3c-1.4-0.8-2.7-1.7-3.9-2.8
								c-2.1-2-3.4-4.2-5.9-6c0.3,0.5,0.3,1.2,0,1.7c-0.5,0.9-1.7,1.3-2.7,0.8c-1-0.5-1.4-1.7-0.8-2.6c0.3-0.6,1-1,1.7-1
								c-0.3-0.1-0.6-0.2-1-0.3c-1.9-0.6-4.1-0.1-5.8,1.3c-3.9,3.6-7.3-1.4-2.6-4.3c0.8-0.4,1.6-0.7,2.5-0.8c0.5-0.1,1,0.3,0.9,0.9
								c0.1-0.6-0.3-1-0.9-0.9c-0.8,0.2-0.9,1.1-0.5,1.6c0.4,0.5,1,0.7,1.6,0.6c1.1-0.2,1.6-1.5,0.8-2.4c0.5,0.6,0.5,1.3,0.1,1.8
								c1.1,0.9,3-0.1,1.7-2c0.1,0.1,0.2,0.3,0.2,0.4C412,13.2,415.2,17.2,418,20.6z"/>
						</g>
						<path class="st2" d="M442.4,42.7c1.4,0,2.5-1.1,2.5-2.4c0-1.3-1.1-2.4-2.5-2.4s-2.5,1.1-2.5,2.4
							C439.9,41.6,441,42.7,442.4,42.7z"/>
						<path class="st2" d="M442.4,11.3c1.4,0,2.5,1.1,2.5,2.4s-1.1,2.4-2.5,2.4s-2.5-1.1-2.5-2.4S441,11.3,442.4,11.3z"/>
					</g>
					<g>
						<path class="st5" d="M495.8,37.8c-3.2-0.4-5.6,2.3-5.2,5c0.3,2,2.1,3.5,4.1,3.5c2,0,3.8-1.6,3.4-3.6c-0.3-1.4-1.7-2.1-2.8-1.9
							c-0.8,0.2-1.5,0.8-1.5,1.6c0,0.7,0.8,1.3,1.7,1c-0.9,0.3-1.6-0.3-1.7-1c0-0.7,0.5-1.2,1.1-1.5C495.3,40,495.6,39,495.8,37.8z"
							/>
						<path class="st2" d="M494.8,40.9c0.4-0.9,0.8-1.9,1-3.1c0.3-1.6,0.2-3.4,0.2-5.1c0.9-0.4,1.7-0.9,2.5-1.6
							c0,2.2,0.1,5.3-0.3,7.1c-0.2,1.2-0.5,2.2-0.9,3.2c-0.6-0.5-1.4-0.7-2.1-0.6C495.1,40.8,495,40.9,494.8,40.9z"/>
						<path class="st2" d="M491.4,44.6c0.5,0.7,1.3,1.2,2.1,1.5c-2.1,1.4-4.8,2.4-7.5,2.8c-6.6,1-13.2-0.7-17.6-5.6
							c-1.8-1.9-3.2-4.1-5.3-6.5c0.8-0.3,1.6-0.6,2.3-1c1.7,2.1,3.1,4.1,4.7,5.9c4.1,4.3,9.4,5.8,15.4,4.9
							C487.6,46.2,489.7,45.5,491.4,44.6z"/>
					</g>
					<path class="st1" d="M493.2,33.5c2-0.2,3.9-1,5.5-2.5c1.7-1.5,2.6-3.3,4.8-3.9c-2.1-0.6-3.1-2.4-4.8-3.9
						c-1.6-1.5-3.5-2.3-5.5-2.5c-1.1-0.1-2.2-0.1-3.3,0.1c-0.1,0.7-0.2,1.3-0.5,2c1.4-0.4,2.9-0.5,4.3-0.2c-0.4,0.1-0.7,0.4-0.9,0.8
						c-0.4,0.8,0,1.6,0.8,2c0.8,0.3,1.7,0,2.1-0.7c0.2-0.5,0.2-1-0.1-1.4c0.6,0.3,1.3,0.8,1.9,1.3c1,0.9,1.7,1.8,2.5,2.6
						c-0.8,0.8-1.5,1.7-2.5,2.6c-0.6,0.5-1.2,1-1.9,1.3c0.3-0.4,0.3-0.9,0.1-1.4c-0.4-0.8-1.3-1.1-2.1-0.7c-0.8,0.3-1.1,1.2-0.8,2
						c0.2,0.4,0.5,0.7,0.9,0.8c-1.4,0.3-2.9,0.2-4.3-0.2c0.2,0.6,0.4,1.3,0.5,2C491,33.5,492.1,33.6,493.2,33.5z"/>
					<path class="st6" d="M497.4,29.6c1-0.9,1.7-1.8,2.5-2.6c-0.8-0.8-1.5-1.7-2.5-2.6c-0.6-0.5-1.2-1-1.9-1.3
						c0.3,0.4,0.3,0.9,0.1,1.4c-0.4,0.8-1.3,1.1-2.1,0.7c-0.8-0.3-1.1-1.2-0.8-2c0.2-0.4,0.5-0.7,0.9-0.8c-1.4-0.3-2.9-0.2-4.3,0.2
						c-0.6,1.8-1.8,3.4-3.5,4.4c1.7,1,2.9,2.6,3.5,4.4c1.4,0.4,2.9,0.5,4.3,0.2c-0.4-0.1-0.7-0.4-0.9-0.8c-0.4-0.8,0-1.6,0.8-2
						c0.8-0.3,1.7,0,2.1,0.7c0.2,0.5,0.2,1-0.1,1.4C496.2,30.6,496.8,30.1,497.4,29.6z"/>
					<path class="st7" d="M470.1,41.6c4.1,4.3,9.4,5.8,15.4,4.9c2.1-0.3,4.3-1,6-1.9c-0.4-0.5-0.7-1.2-0.8-1.8c-0.4-2.7,2-5.4,5.2-5
						c0.3-1.6,0.2-3.4,0.2-5.1c-0.9,0.4-1.9,0.7-2.9,0.8c-1.1,0.1-2.2,0.1-3.3-0.1c0.1,0.7,0.1,1.4,0,2.1c-0.4,3.5-2.9,6.8-6.9,7.9
						c-7.6,2.1-11.9-4-15.5-9c-0.7,0.5-1.4,0.9-2.2,1.3C467,37.8,468.4,39.8,470.1,41.6z"/>
					<g>
						<path class="st5" d="M495.8,16.2c-3.2,0.4-5.6-2.3-5.2-5c0.3-2,2.1-3.5,4.1-3.5c2,0,3.8,1.6,3.4,3.6c-0.3,1.4-1.7,2.1-2.8,1.9
							c-0.8-0.2-1.5-0.8-1.5-1.6c0-0.7,0.8-1.3,1.7-1c-0.9-0.3-1.6,0.3-1.7,1c0,0.7,0.5,1.2,1.1,1.5C495.3,14,495.6,15,495.8,16.2z"
							/>
						<path class="st2" d="M494.8,13.1c0.4,0.9,0.8,1.9,1,3.1c0.3,1.6,0.2,3.4,0.2,5.1c0.9,0.4,1.7,0.9,2.5,1.6
							c0-2.2,0.1-5.3-0.3-7.1c-0.2-1.2-0.5-2.2-0.9-3.2c-0.6,0.5-1.4,0.7-2.1,0.6C495.1,13.2,495,13.1,494.8,13.1z"/>
						<path class="st2" d="M491.4,9.4c0.5-0.7,1.3-1.2,2.1-1.5c-2.1-1.4-4.8-2.4-7.5-2.8c-6.6-1-13.2,0.7-17.6,5.6
							c-1.8,1.9-3.2,4.1-5.3,6.5c0.8,0.3,1.6,0.6,2.3,1c1.7-2.1,3.1-4.1,4.7-5.9c4.1-4.3,9.4-5.8,15.4-4.9
							C487.6,7.8,489.7,8.5,491.4,9.4z"/>
					</g>
					<path class="st7" d="M470.1,12.4c4.1-4.3,9.4-5.8,15.4-4.9c2.1,0.3,4.3,1,6,1.9c-0.4,0.5-0.7,1.2-0.8,1.8c-0.4,2.7,2,5.4,5.2,5
						c0.3,1.6,0.2,3.4,0.2,5.1c-0.9-0.4-1.9-0.7-2.9-0.8c-1.1-0.1-2.2-0.1-3.3,0.1c0.1-0.7,0.1-1.4,0-2.1c-0.4-3.5-2.9-6.8-6.9-7.9
						c-7.6-2.1-11.9,4-15.5,9c-0.7-0.5-1.4-0.9-2.2-1.3C467,16.2,468.4,14.2,470.1,12.4z"/>
					<g>
						<path class="st5" d="M389,16.2c3.2,0.4,5.6-2.3,5.2-5c-0.3-2-2.1-3.5-4.1-3.5c-2,0-3.8,1.6-3.4,3.6c0.3,1.4,1.7,2.1,2.8,1.9
							c0.8-0.2,1.5-0.8,1.5-1.6c0-0.7-0.8-1.3-1.7-1c0.9-0.3,1.6,0.3,1.7,1c0,0.7-0.5,1.2-1.1,1.5C389.5,14,389.2,15,389,16.2z"/>
						<path class="st2" d="M390,13.1c-0.4,0.9-0.8,1.9-1,3.1c-0.3,1.6-0.2,3.4-0.2,5.1c-0.9,0.4-1.7,0.9-2.5,1.6
							c0-2.2-0.1-5.3,0.3-7.1c0.2-1.2,0.5-2.2,0.9-3.2c0.6,0.5,1.4,0.7,2.1,0.6C389.7,13.2,389.8,13.1,390,13.1z"/>
						<path class="st2" d="M393.4,9.4c-0.5-0.7-1.3-1.2-2.1-1.5c2.1-1.4,4.8-2.4,7.5-2.8c6.6-1,13.2,0.7,17.6,5.6
							c1.8,1.9,3.2,4.1,5.3,6.5c-0.8,0.3-1.6,0.6-2.3,1c-1.7-2.1-3.1-4.1-4.7-5.9c-4.1-4.3-9.4-5.8-15.4-4.9
							C397.2,7.8,395.1,8.5,393.4,9.4z"/>
					</g>
					<path class="st1" d="M391.6,20.5c-2,0.2-3.9,1-5.5,2.5c-1.7,1.5-2.6,3.3-4.8,3.9c2.1,0.6,3.1,2.4,4.8,3.9
						c1.6,1.5,3.5,2.3,5.5,2.5c1.1,0.1,2.2,0.1,3.3-0.1c0.1-0.7,0.2-1.3,0.5-2c-1.4,0.4-2.9,0.5-4.3,0.2c0.4-0.1,0.7-0.4,0.9-0.8
						c0.4-0.8,0-1.6-0.8-2c-0.8-0.3-1.7,0-2.1,0.7c-0.2,0.5-0.2,1,0.1,1.4c-0.6-0.3-1.3-0.8-1.9-1.3c-1-0.9-1.7-1.8-2.5-2.6
						c0.8-0.8,1.5-1.7,2.5-2.6c0.6-0.5,1.2-1,1.9-1.3c-0.3,0.4-0.3,0.9-0.1,1.4c0.4,0.8,1.3,1.1,2.1,0.7c0.8-0.3,1.1-1.2,0.8-2
						c-0.2-0.4-0.5-0.7-0.9-0.8c1.4-0.3,2.9-0.2,4.3,0.2c-0.2-0.6-0.4-1.3-0.5-2C393.8,20.5,392.7,20.4,391.6,20.5z"/>
					<path class="st4" d="M387.4,24.4c-1,0.9-1.7,1.8-2.5,2.6c0.8,0.8,1.5,1.7,2.5,2.6c0.6,0.5,1.2,1,1.9,1.3
						c-0.3-0.4-0.3-0.9-0.1-1.4c0.4-0.8,1.3-1.1,2.1-0.7c0.8,0.3,1.1,1.2,0.8,2c-0.2,0.4-0.5,0.7-0.9,0.8c1.4,0.3,2.9,0.2,4.3-0.2
						c0.6-1.8,1.8-3.4,3.5-4.4c-1.7-1-2.9-2.6-3.5-4.4c-1.4-0.4-2.9-0.5-4.3-0.2c0.4,0.1,0.7,0.4,0.9,0.8c0.4,0.8,0,1.6-0.8,2
						c-0.8,0.3-1.7,0-2.1-0.7c-0.2-0.5-0.2-1,0.1-1.4C388.7,23.4,388,23.9,387.4,24.4z"/>
					<path class="st7" d="M414.8,12.4c-4.1-4.3-9.4-5.8-15.4-4.9c-2.1,0.3-4.3,1-6,1.9c0.4,0.5,0.7,1.2,0.8,1.8c0.4,2.7-2,5.4-5.2,5
						c-0.3,1.6-0.2,3.4-0.2,5.1c0.9-0.4,1.9-0.7,2.9-0.8c1.1-0.1,2.2-0.1,3.3,0.1c-0.1-0.7-0.1-1.4,0-2.1c0.4-3.5,2.9-6.8,6.9-7.9
						c7.6-2.1,11.9,4,15.5,9c0.7-0.5,1.4-0.9,2.2-1.3C417.8,16.2,416.4,14.2,414.8,12.4z"/>
					<g>
						<path class="st5" d="M389,37.8c3.2-0.4,5.6,2.3,5.2,5c-0.3,2-2.1,3.5-4.1,3.5c-2,0-3.8-1.6-3.4-3.6c0.3-1.4,1.7-2.1,2.8-1.9
							c0.8,0.2,1.5,0.8,1.5,1.6c0,0.7-0.8,1.3-1.7,1c0.9,0.3,1.6-0.3,1.7-1c0-0.7-0.5-1.2-1.1-1.5C389.5,40,389.2,39,389,37.8z"/>
						<path class="st2" d="M390,40.9c-0.4-0.9-0.8-1.9-1-3.1c-0.3-1.6-0.2-3.4-0.2-5.1c-0.9-0.4-1.7-0.9-2.5-1.6
							c0,2.2-0.1,5.3,0.3,7.1c0.2,1.2,0.5,2.2,0.9,3.2c0.6-0.5,1.4-0.7,2.1-0.6C389.7,40.8,389.8,40.9,390,40.9z"/>
						<path class="st2" d="M393.4,44.6c-0.5,0.7-1.3,1.2-2.1,1.5c2.1,1.4,4.8,2.4,7.5,2.8c6.6,1,13.2-0.7,17.6-5.6
							c1.8-1.9,3.2-4.1,5.3-6.5c-0.8-0.3-1.6-0.6-2.3-1c-1.7,2.1-3.1,4.1-4.7,5.9c-4.1,4.3-9.4,5.8-15.4,4.9
							C397.2,46.2,395.1,45.5,393.4,44.6z"/>
					</g>
					<path class="st7" d="M414.8,41.6c-4.1,4.3-9.4,5.8-15.4,4.9c-2.1-0.3-4.3-1-6-1.9c0.4-0.5,0.7-1.2,0.8-1.8c0.4-2.7-2-5.4-5.2-5
						c-0.3-1.6-0.2-3.4-0.2-5.1c0.9,0.4,1.9,0.7,2.9,0.8c1.1,0.1,2.2,0.1,3.3-0.1c-0.1,0.7-0.1,1.4,0,2.1c0.4,3.5,2.9,6.8,6.9,7.9
						c7.6,2.1,11.9-4,15.5-9c0.7,0.5,1.4,0.9,2.2,1.3C417.8,37.8,416.4,39.8,414.8,41.6z"/>
					<g>
						<g>
							<path class="st8" d="M458.8,45.1c0.5-2-1.4-4.3-4-3.1c-0.3-3-4-3.3-5.3-0.9c-0.9,1.6-0.8,3.6-0.4,5.4c0.4,0,0.8-0.1,1.2-0.3
								c0.4-0.1,0.9,0.1,1,0.5c0.2,0.4-0.1,0.9-0.5,1c-0.4,0.1-0.8,0.2-1.2,0.3C454.8,49.6,458.3,47.1,458.8,45.1z"/>
							<g>
								<path class="st9" d="M450.2,46.3c0.4-1.3,0.6-3.1,1.9-3.7c1.9-0.8,3.9,1,3.2,2.8c-0.5,1.2-2.7,2.2-4.6,2.3l0,0l0.1,0
									c0.4-0.1,0.6-0.6,0.5-1c-0.2-0.4-0.6-0.6-1-0.5L450.2,46.3z"/>
								<path class="st10" d="M450.5,46.2c0.2-0.7,0.4-1.5,0.8-2c0.5-0.6,1.2-1.2,2.1-1c0.5,0.1,1.1,0.6,1.2,1.1
									c0.3,0.8-0.3,1.6-0.9,2.1c-0.6,0.5-1.6,0.9-2.4,1.1c0.2-0.2,0.3-0.5,0.1-0.8C451.3,46.4,450.8,46.2,450.5,46.2z"/>
								<path class="st11" d="M450.6,46.2c0.2-0.5,0.4-1.2,0.7-1.6c0.7-1,1.7-1,2.3-0.5c0.6,0.5,0.7,1.5-0.4,2.3
									c-0.5,0.3-1.2,0.7-1.9,0.9c0.1-0.2,0.1-0.4,0-0.6C451.3,46.4,450.9,46.2,450.6,46.2z"/>
								<path class="st12" d="M450.8,46.3c0.3-0.7,0.5-1.3,1.2-1.7c0.9-0.5,1.8,0.3,1.3,1.2c-0.4,0.6-1.4,1.1-1.9,1.4
									c0-0.1,0-0.2,0-0.4C451.3,46.5,451.1,46.3,450.8,46.3z"/>
								<path class="st13" d="M451,46.3c0.3-0.5,0.6-1.2,1.1-1.4c0.5-0.3,1.1,0.3,0.9,0.8c-0.2,0.5-1,0.9-1.5,1.3c0-0.1,0-0.1,0-0.2
									C451.3,46.6,451.2,46.4,451,46.3z"/>
							</g>
						</g>
						<path class="st7" d="M470.4,45.2c-2-0.9-4.2-1.3-6.4-1.2c0.6,0.3,1.1,0.8,1.2,1.5c0.2,1.1-0.6,2-1.7,2.2
							c-1.1,0.2-2.1-0.6-2.3-1.7c-0.1-0.8,0.2-1.5,0.9-1.9c-1.1,0.2-2.2,0.5-3.2,0.8c0.1-0.5,0-1.1-0.2-1.6c3-1,6.2-1.3,9.2-0.6
							c0.2,0.2,0.3,0.4,0.5,0.5C469,44,469.7,44.6,470.4,45.2z"/>
						<path class="st14" d="M458.7,43.4c3-1,6.2-1.3,9.2-0.6c-1.6-1.8-3-3.8-4.8-6c-1.5,0.5-3.3,0.9-5.3,0.9c-2.7,0-5.5-0.8-8.5-2.5
							c-1.1-0.7-2.2-1.4-3.2-2.4c-1.2,1.5-2.3,3.5-2.5,5.4c0.8,0.4,1.4,1.2,1.4,2.1c0,1-0.7,1.9-1.7,2.3c0.8,2.5,3.2,4.3,5.9,4
							c-0.4-1.7-0.5-3.7,0.4-5.4c1.3-2.4,5-2.1,5.3,0.9C456.6,41.2,458.1,42.1,458.7,43.4z"/>
						<g>
							<path class="st8" d="M426,45.1c-0.5-2,1.4-4.3,4-3.1c0.3-3,4-3.3,5.3-0.9c0.9,1.6,0.8,3.6,0.4,5.4c-0.4,0-0.8-0.1-1.2-0.3
								c-0.4-0.1-0.9,0.1-1,0.5c-0.2,0.4,0.1,0.9,0.5,1c0.4,0.1,0.8,0.2,1.2,0.3C430,49.6,426.5,47.1,426,45.1z"/>
							<g>
								<path class="st9" d="M434.6,46.3c-0.4-1.3-0.6-3.1-1.9-3.7c-1.9-0.8-3.9,1-3.2,2.8c0.5,1.2,2.7,2.2,4.6,2.3l0,0l-0.1,0
									c-0.4-0.1-0.6-0.6-0.5-1c0.2-0.4,0.6-0.6,1-0.5L434.6,46.3z"/>
								<path class="st10" d="M434.4,46.2c-0.2-0.7-0.4-1.5-0.8-2c-0.5-0.6-1.2-1.2-2.1-1c-0.5,0.1-1.1,0.6-1.2,1.1
									c-0.3,0.8,0.3,1.6,0.9,2.1c0.6,0.5,1.6,0.9,2.4,1.1c-0.2-0.2-0.3-0.5-0.1-0.8C433.6,46.4,434,46.2,434.4,46.2z"/>
								<path class="st11" d="M434.2,46.2c-0.2-0.5-0.4-1.2-0.7-1.6c-0.7-1-1.7-1-2.3-0.5c-0.6,0.5-0.7,1.5,0.4,2.3
									c0.5,0.3,1.2,0.7,1.9,0.9c-0.1-0.2-0.1-0.4,0-0.6C433.5,46.4,433.9,46.2,434.2,46.2z"/>
								<path class="st12" d="M434,46.3c-0.3-0.7-0.5-1.3-1.2-1.7c-0.9-0.5-1.8,0.3-1.3,1.2c0.4,0.6,1.4,1.1,1.9,1.4
									c0-0.1,0-0.2,0-0.4C433.5,46.5,433.7,46.3,434,46.3z"/>
								<path class="st13" d="M433.8,46.3c-0.3-0.5-0.6-1.2-1.1-1.4c-0.5-0.3-1.1,0.3-0.9,0.8c0.2,0.5,1,0.9,1.5,1.3
									c0-0.1,0-0.1,0-0.2C433.5,46.6,433.6,46.4,433.8,46.3z"/>
							</g>
						</g>
						<path class="st7" d="M414.4,45.2c2-0.9,4.2-1.3,6.4-1.2c-0.6,0.3-1.1,0.8-1.2,1.5c-0.2,1.1,0.6,2,1.7,2.2
							c1.1,0.2,2.1-0.6,2.3-1.7c0.1-0.8-0.2-1.5-0.9-1.9c1.1,0.2,2.2,0.5,3.2,0.8c-0.1-0.5,0-1.1,0.2-1.6c-3-1-6.2-1.3-9.2-0.6
							c-0.2,0.2-0.3,0.4-0.5,0.5C415.8,44,415.1,44.6,414.4,45.2z"/>
						<path class="st14" d="M426.1,43.4c-3-1-6.2-1.3-9.2-0.6c1.6-1.8,3-3.8,4.8-6c1.5,0.5,3.3,0.9,5.3,0.9c2.7,0,5.5-0.8,8.5-2.5
							c1.1-0.7,2.2-1.4,3.2-2.4c1.2,1.5,2.3,3.5,2.5,5.4c-0.8,0.4-1.4,1.2-1.4,2.1c0,1,0.7,1.9,1.7,2.3c-0.8,2.5-3.2,4.3-5.9,4
							c0.4-1.7,0.5-3.7-0.4-5.4c-1.3-2.4-5-2.1-5.3,0.9C428.2,41.2,426.7,42.1,426.1,43.4z"/>
						<path class="st7" d="M450.3,46.3c0.4-0.1,0.9,0.1,1,0.5c0.2,0.4-0.1,0.9-0.5,1c-3.5,1.2-6.8-0.4-8.5-3.2
							c-1.7,2.8-5,4.4-8.5,3.2c-0.4-0.1-0.6-0.6-0.5-1c0.2-0.4,0.6-0.6,1-0.5c3.2,1.1,6.2-0.9,7.1-3.8c0.3,0.1,0.5,0.1,0.8,0.1
							c0.3,0,0.6,0,0.8-0.1C444.2,45.4,447.1,47.4,450.3,46.3z"/>
					</g>
					<g>
						<g>
							<path class="st8" d="M426,8.9c-0.5,2,1.4,4.3,4,3.1c0.3,3,4,3.3,5.3,0.9c0.9-1.6,0.8-3.6,0.4-5.4c-0.4,0-0.8,0.1-1.2,0.3
								c-0.4,0.1-0.9-0.1-1-0.5c-0.2-0.4,0.1-0.9,0.5-1c0.4-0.1,0.8-0.2,1.2-0.3C430,4.4,426.5,6.9,426,8.9z"/>
							<g>
								<path class="st9" d="M434.6,7.7c-0.4,1.3-0.6,3.1-1.9,3.7c-1.9,0.8-3.9-1-3.2-2.8c0.5-1.2,2.7-2.2,4.6-2.3l0,0l-0.1,0
									c-0.4,0.1-0.6,0.6-0.5,1c0.2,0.4,0.6,0.6,1,0.5L434.6,7.7z"/>
								<path class="st10" d="M434.4,7.8c-0.2,0.7-0.4,1.5-0.8,2c-0.5,0.6-1.2,1.2-2.1,1c-0.5-0.1-1.1-0.6-1.2-1.1
									c-0.3-0.8,0.3-1.6,0.9-2.1c0.6-0.5,1.6-0.9,2.4-1.1c-0.2,0.2-0.3,0.5-0.1,0.8C433.6,7.6,434,7.8,434.4,7.8z"/>
								<path class="st11" d="M434.2,7.8c-0.2,0.5-0.4,1.2-0.7,1.6c-0.7,1-1.7,1-2.3,0.5c-0.6-0.5-0.7-1.5,0.4-2.3
									c0.5-0.3,1.2-0.7,1.9-0.9c-0.1,0.2-0.1,0.4,0,0.6C433.5,7.6,433.9,7.8,434.2,7.8z"/>
								<path class="st12" d="M434,7.7c-0.3,0.7-0.5,1.3-1.2,1.7c-0.9,0.5-1.8-0.3-1.3-1.2c0.4-0.6,1.4-1.1,1.9-1.4
									c0,0.1,0,0.2,0,0.4C433.5,7.5,433.7,7.7,434,7.7z"/>
								<path class="st13" d="M433.8,7.7c-0.3,0.5-0.6,1.2-1.1,1.4c-0.5,0.3-1.1-0.3-0.9-0.8c0.2-0.5,1-0.9,1.5-1.3
									c0,0.1,0,0.1,0,0.2C433.5,7.4,433.6,7.6,433.8,7.7z"/>
							</g>
						</g>
						<path class="st7" d="M414.4,8.8c2,0.9,4.2,1.3,6.4,1.2c-0.6-0.3-1.1-0.8-1.2-1.5c-0.2-1.1,0.6-2,1.7-2.2
							c1.1-0.2,2.1,0.6,2.3,1.7c0.1,0.8-0.2,1.5-0.9,1.9c1.1-0.2,2.2-0.5,3.2-0.8c-0.1,0.5,0,1.1,0.2,1.6c-3,1-6.2,1.3-9.2,0.6
							c-0.2-0.2-0.3-0.4-0.5-0.5C415.8,10,415.1,9.4,414.4,8.8z"/>
						<path class="st14" d="M426.1,10.6c-3,1-6.2,1.3-9.2,0.6c1.6,1.8,3,3.8,4.8,6c1.5-0.5,3.3-0.9,5.3-0.9c2.7,0,5.5,0.8,8.5,2.5
							c1.1,0.7,2.2,1.4,3.2,2.4c1.2-1.5,2.3-3.5,2.5-5.4c-0.8-0.4-1.4-1.2-1.4-2.1c0-1,0.7-1.9,1.7-2.3c-0.8-2.5-3.2-4.3-5.9-4
							c0.4,1.7,0.5,3.7-0.4,5.4c-1.3,2.4-5,2.1-5.3-0.9C428.2,12.8,426.7,11.9,426.1,10.6z"/>
						<g>
							<path class="st8" d="M458.8,8.9c0.5,2-1.4,4.3-4,3.1c-0.3,3-4,3.3-5.3,0.9c-0.9-1.6-0.8-3.6-0.4-5.4c0.4,0,0.8,0.1,1.2,0.3
								c0.4,0.1,0.9-0.1,1-0.5c0.2-0.4-0.1-0.9-0.5-1c-0.4-0.1-0.8-0.2-1.2-0.3C454.8,4.4,458.3,6.9,458.8,8.9z"/>
							<g>
								<path class="st9" d="M450.2,7.7c0.4,1.3,0.6,3.1,1.9,3.7c1.9,0.8,3.9-1,3.2-2.8c-0.5-1.2-2.7-2.2-4.6-2.3l0,0l0.1,0
									c0.4,0.1,0.6,0.6,0.5,1c-0.2,0.4-0.6,0.6-1,0.5L450.2,7.7z"/>
								<path class="st10" d="M450.5,7.8c0.2,0.7,0.4,1.5,0.8,2c0.5,0.6,1.2,1.2,2.1,1c0.5-0.1,1.1-0.6,1.2-1.1
									c0.3-0.8-0.3-1.6-0.9-2.1c-0.6-0.5-1.6-0.9-2.4-1.1c0.2,0.2,0.3,0.5,0.1,0.8C451.3,7.6,450.8,7.8,450.5,7.8z"/>
								<path class="st11" d="M450.6,7.8c0.2,0.5,0.4,1.2,0.7,1.6c0.7,1,1.7,1,2.3,0.5c0.6-0.5,0.7-1.5-0.4-2.3
									c-0.5-0.3-1.2-0.7-1.9-0.9c0.1,0.2,0.1,0.4,0,0.6C451.3,7.6,450.9,7.8,450.6,7.8z"/>
								<path class="st12" d="M450.8,7.7c0.3,0.7,0.5,1.3,1.2,1.7c0.9,0.5,1.8-0.3,1.3-1.2c-0.4-0.6-1.4-1.1-1.9-1.4
									c0,0.1,0,0.2,0,0.4C451.3,7.5,451.1,7.7,450.8,7.7z"/>
								<path class="st13" d="M451,7.7c0.3,0.5,0.6,1.2,1.1,1.4c0.5,0.3,1.1-0.3,0.9-0.8c-0.2-0.5-1-0.9-1.5-1.3c0,0.1,0,0.1,0,0.2
									C451.3,7.4,451.2,7.6,451,7.7z"/>
							</g>
						</g>
						<path class="st7" d="M470.4,8.8c-2,0.9-4.2,1.3-6.4,1.2c0.6-0.3,1.1-0.8,1.2-1.5c0.2-1.1-0.6-2-1.7-2.2
							c-1.1-0.2-2.1,0.6-2.3,1.7c-0.1,0.8,0.2,1.5,0.9,1.9c-1.1-0.2-2.2-0.5-3.2-0.8c0.1,0.5,0,1.1-0.2,1.6c3,1,6.2,1.3,9.2,0.6
							c0.2-0.2,0.3-0.4,0.5-0.5C469,10,469.7,9.4,470.4,8.8z"/>
						<path class="st14" d="M458.7,10.6c3,1,6.2,1.3,9.2,0.6c-1.6,1.8-3,3.8-4.8,6c-1.5-0.5-3.3-0.9-5.3-0.9c-2.7,0-5.5,0.8-8.5,2.5
							c-1.1,0.7-2.2,1.4-3.2,2.4c-1.2-1.5-2.3-3.5-2.5-5.4c0.8-0.4,1.4-1.2,1.4-2.1c0-1-0.7-1.9-1.7-2.3c0.8-2.5,3.2-4.3,5.9-4
							c-0.4,1.7-0.5,3.7,0.4,5.4c1.3,2.4,5,2.1,5.3-0.9C456.6,12.8,458.1,11.9,458.7,10.6z"/>
						<path class="st7" d="M434.5,7.7c-0.4,0.1-0.9-0.1-1-0.5c-0.2-0.4,0.1-0.9,0.5-1c3.5-1.2,6.8,0.4,8.5,3.2
							c1.7-2.8,5-4.4,8.5-3.2c0.4,0.1,0.6,0.6,0.5,1c-0.2,0.4-0.6,0.6-1,0.5c-3.2-1.1-6.2,0.9-7.1,3.8c-0.3-0.1-0.5-0.1-0.8-0.1
							c-0.3,0-0.6,0-0.8,0.1C440.6,8.6,437.7,6.6,434.5,7.7z"/>
					</g>
				</g>
				<g>
					<path class="st8" d="M379.6,38.9c-0.2-2-2.9-3.6-4.8-1.6c-1.3-2.7-5-1.8-5.3,0.9c-0.2,1.8,0.5,3.7,1.5,5.1
						c0.4-0.2,0.9-0.5,1.3-0.8c0.4-0.3,0.9-0.2,1.1,0.2s0.2,0.8-0.2,1.1c-0.4,0.3-0.8,0.6-1.2,0.8C377.5,44.4,379.9,41,379.6,38.9z"
						/>
					<g>
						<path class="st9" d="M372,42.8c-0.1-1.4-0.5-3.1,0.5-4.1c1.5-1.4,4-0.4,4,1.6c0,1.3-1.7,2.9-3.5,3.7l0,0l0.1-0.1l0,0l0.2-0.1
							c0.4-0.3,0.4-0.8,0.2-1.1s-0.8-0.4-1.1-0.2C372.2,42.6,372.1,42.7,372,42.8z"/>
						<path class="st10" d="M372.1,42.7c-0.1-0.7-0.2-1.5,0.1-2.1c0.3-0.8,0.7-1.5,1.6-1.6c0.5-0.1,1.2,0.2,1.6,0.6
							c0.5,0.7,0.3,1.6-0.1,2.3c-0.4,0.6-1.1,1.2-1.7,1.7c0.1-0.2,0.1-0.5-0.1-0.8c-0.3-0.3-0.8-0.4-1.1-0.2L372.1,42.7z"/>
						<path class="st11" d="M372.3,42.6c0-0.6,0-1.2,0.1-1.7c0.3-1.2,1.3-1.5,2-1.2c0.7,0.3,1.2,1.2,0.5,2.3
							c-0.3,0.4-0.8,0.9-1.2,1.3c0-0.2,0-0.3-0.2-0.5C373.2,42.4,372.7,42.3,372.3,42.6L372.3,42.6z"/>
						<path class="st12" d="M372.5,42.4c0-0.7,0-1.3,0.5-1.9c0.6-0.8,1.8-0.3,1.7,0.7c-0.1,0.6-0.7,1.3-1.1,1.7
							c0-0.1-0.1-0.2-0.1-0.2C373.2,42.4,372.8,42.3,372.5,42.4z"/>
						<path class="st13" d="M372.7,42.4c0.1-0.5,0.2-1.2,0.5-1.5c0.4-0.4,1.1-0.1,1.1,0.5c0,0.4-0.4,1-0.8,1.5c0,0,0,0-0.1-0.1
							C373.3,42.5,373,42.4,372.7,42.4z"/>
					</g>
				</g>
				<path class="st15" d="M357.7,42.4c1.6,1.2,3.4,2,5.3,2.3c-0.5-0.4-0.8-1-0.7-1.7c0.2-1,1.1-1.7,2.2-1.5c1,0.1,1.8,1.1,1.6,2.1
					c-0.1,0.6-0.5,1.1-1,1.3c2.5,0,5-0.8,7.2-2.3c0.4-0.3,0.9-0.2,1.1,0.2s0.2,0.8-0.2,1.1c-4.6,3.3-10.7,3.5-15.5,0.5V42.4z"/>
				<path class="st15" d="M376.3,36.4c0.7-0.9,1.5-1.7,2.3-2.3c-0.7,0.1-1.4-0.2-1.8-0.8c-0.6-0.8-0.4-2,0.4-2.6
					c0.9-0.6,2.1-0.4,2.7,0.4c0.4,0.6,0.5,1.3,0.2,1.8c1.7-1.1,3.7-1.8,5.7-2.2l0.3,0.3l0,1.2c-3.1,0.6-6,2.1-8.1,4.5
					C377.6,36.4,377,36.3,376.3,36.4z"/>
				<path class="st15" d="M379.2,40.9c2.8-0.4,6,2,4.9,5.4c-0.7-1.4-4.3,0.3-6.4-3.7C378.4,42.1,378.9,41.5,379.2,40.9z"/>
				<path class="st14" d="M365.1,44.9c2,0,4.1-0.5,5.9-1.5c-1-1.5-1.8-3.3-1.5-5.1c0.4-2.7,4-3.6,5.3-0.9c0.5-0.5,1-0.8,1.5-0.9
					c0.7-0.9,1.5-1.7,2.3-2.3c-0.7,0.1-1.4-0.2-1.8-0.8c-0.6-0.8-0.4-2,0.4-2.6c0.9-0.6,2.1-0.4,2.7,0.4c0.4,0.6,0.5,1.3,0.2,1.8
					c1.7-1.1,3.7-1.8,5.7-2.2c-1.6-1.5-2.5-3.2-4.6-3.8c2.1-0.6,3-2.3,4.6-3.8c-2-0.4-4-1.2-5.7-2.2c0.3,0.6,0.2,1.3-0.2,1.8
					c-0.6,0.8-1.9,1-2.7,0.4c-0.9-0.6-1.1-1.8-0.4-2.6c0.4-0.6,1.1-0.8,1.8-0.8c-0.9-0.7-1.6-1.5-2.3-2.3c-0.5-0.1-1-0.4-1.5-0.9
					c-1.3,2.7-5,1.8-5.3-0.9c-0.2-1.8,0.5-3.7,1.5-5.1c-1.8-1-3.9-1.5-5.9-1.5c0.5,0.3,0.9,0.7,1,1.3c0.2,1-0.6,1.9-1.6,2.1
					c-1,0.1-2-0.5-2.2-1.5c-0.1-0.7,0.2-1.3,0.7-1.7c-1.9,0.3-3.7,1.1-5.3,2.3v3.7c4.6-0.7,8.5,0.8,11.6,4.2
					c2.4,2.6,4.3,6.4,7.8,7.5c-3.5,1.1-5.4,4.9-7.8,7.5c-3.1,3.3-7,4.9-11.6,4.2v3.7c1.6,1.2,3.4,2,5.3,2.3c-0.5-0.4-0.8-1-0.7-1.7
					c0.2-1,1.1-1.7,2.2-1.5c1,0.1,1.8,1.1,1.6,2.1C366,44.1,365.7,44.6,365.1,44.9z"/>
				<g>
					<path class="st8" d="M379.6,15.1c-0.2,2-2.9,3.6-4.8,1.6c-1.3,2.7-5,1.8-5.3-0.9c-0.2-1.8,0.5-3.7,1.5-5.1
						c0.4,0.2,0.9,0.5,1.3,0.8c0.4,0.3,0.9,0.2,1.1-0.2c0.3-0.3,0.2-0.8-0.2-1.1c-0.4-0.3-0.8-0.6-1.2-0.8
						C377.5,9.6,379.9,13,379.6,15.1z"/>
					<g>
						<path class="st9" d="M372,11.2c-0.1,1.4-0.5,3.1,0.5,4.1c1.5,1.4,4,0.4,4-1.6c0-1.3-1.7-2.9-3.5-3.7l0,0l0.1,0.1l0,0l0.2,0.1
							c0.4,0.3,0.4,0.8,0.2,1.1c-0.3,0.3-0.8,0.4-1.1,0.2C372.2,11.4,372.1,11.3,372,11.2z"/>
						<path class="st10" d="M372.1,11.3c-0.1,0.7-0.2,1.5,0.1,2.1c0.3,0.8,0.7,1.5,1.6,1.6c0.5,0.1,1.2-0.2,1.6-0.6
							c0.5-0.7,0.3-1.6-0.1-2.3c-0.4-0.6-1.1-1.2-1.7-1.7c0.1,0.2,0.1,0.5-0.1,0.8c-0.3,0.3-0.8,0.4-1.1,0.2L372.1,11.3z"/>
						<path class="st11" d="M372.3,11.4c0,0.6,0,1.2,0.1,1.7c0.3,1.2,1.3,1.5,2,1.2c0.7-0.3,1.2-1.2,0.5-2.3
							c-0.3-0.4-0.8-0.9-1.2-1.3c0,0.2,0,0.3-0.2,0.5C373.2,11.6,372.7,11.7,372.3,11.4L372.3,11.4z"/>
						<path class="st12" d="M372.5,11.6c0,0.7,0,1.3,0.5,1.9c0.6,0.8,1.8,0.3,1.7-0.7c-0.1-0.6-0.7-1.3-1.1-1.7
							c0,0.1-0.1,0.2-0.1,0.2C373.2,11.6,372.8,11.7,372.5,11.6z"/>
						<path class="st13" d="M372.7,11.6c0.1,0.5,0.2,1.2,0.5,1.5c0.4,0.4,1.1,0.1,1.1-0.5c0-0.4-0.4-1-0.8-1.5c0,0,0,0-0.1,0.1
							C373.3,11.5,373,11.6,372.7,11.6z"/>
					</g>
				</g>
				<path class="st15" d="M357.7,11.6c1.6-1.2,3.4-2,5.3-2.3c-0.5,0.4-0.8,1-0.7,1.7c0.2,1,1.1,1.7,2.2,1.5c1-0.1,1.8-1.1,1.6-2.1
					c-0.1-0.6-0.5-1.1-1-1.3c2.5,0,5,0.8,7.2,2.3c0.4,0.3,0.9,0.2,1.1-0.2c0.3-0.3,0.2-0.8-0.2-1.1c-4.6-3.3-10.7-3.5-15.5-0.5V11.6
					z"/>
				<path class="st15" d="M376.3,17.6c0.7,0.9,1.5,1.7,2.3,2.3c-0.7-0.1-1.4,0.2-1.8,0.8c-0.6,0.8-0.4,2,0.4,2.6
					c0.9,0.6,2.1,0.4,2.7-0.4c0.4-0.6,0.5-1.3,0.2-1.8c1.7,1.1,3.7,1.8,5.7,2.2l0.3-0.3l0-1.2c-3.1-0.6-6-2.1-8.1-4.5
					C377.6,17.6,377,17.7,376.3,17.6z"/>
				<path class="st15" d="M379.2,13.1c2.8,0.4,6-2,4.9-5.4c-0.7,1.4-4.3-0.3-6.4,3.7C378.4,11.9,378.9,12.5,379.2,13.1z"/>
			</g>
			<path class="st6" d="M475.6,38c1.9,0.6,4.1,0.1,5.8-1.3c3.9-3.6,7.3,1.4,2.6,4.3c2.3-1.2,3.7-3.3,4-5.7c0.2-1.8-0.3-3.9-1.6-5.5
				c-1.1-1.3-2.7-2.3-4.5-1.9c2.3-0.3,3.5,2.4,2.3,4.1c-1.5,2.2-5.3,1.6-6-1.1c-0.1-0.4-0.1-0.8-0.1-1.2c-1.1,0.3-2,0.1-2.6-0.3
				c-2.4,0.9-4.3,2.4-6.3,3.7c1,1.2,2.1,2.4,3.5,3.4c-0.3-0.5-0.3-1.2,0-1.7c0.5-0.9,1.7-1.3,2.7-0.8c1,0.5,1.4,1.7,0.8,2.6
				c-0.3,0.6-1,1-1.7,1C474.9,37.8,475.2,37.9,475.6,38z"/>
			<path class="st6" d="M467.9,31.8c1.8-1.3,3.6-2.7,6-3.6c-0.6-0.6-1.2-1.1-1.9-1.1c0.8,0,1.3-0.5,1.9-1.1c-2.3-1-4.2-2.3-6-3.6
				c-0.4,0.4-0.7,0.8-1.1,1.1c-1.2,1.1-2.5,2.1-3.9,2.8c0.5,0.5,1,0.8,1.7,0.8c-0.7,0-1.2,0.4-1.7,0.8c1.4,0.8,2.7,1.7,3.9,2.8
				C467.2,31,467.5,31.4,467.9,31.8z"/>
			<path class="st4" d="M457.7,35.7c3.8,0,6.3-1.2,8.7-2.9c-1.5-1.6-3.2-2.8-5-3.8c-0.7,0.4-1.5,0.7-2.7,0.6c0.1,1.5-0.7,3-2.4,3.4
				c-1.8,0.4-3.7-0.7-3.9-2.5c-0.1-1.1,0.6-2.3,2-2.3c-2.7,0.1-5.2,1.4-7,3.1c0.9,0.8,1.9,1.6,3,2.2C452.8,35,455.3,35.7,457.7,35.7
				z"/>
			<path class="st4" d="M461.3,24.9c1.9-0.9,3.6-2.2,5-3.8c-2.4-1.6-4.9-2.9-8.7-2.9c-2.4,0-4.8,0.7-7.4,2.2c-1,0.6-2,1.3-3,2.2
				c1.9,1.8,4.3,3,7,3.1c-1.4-0.1-2.1-1.2-2-2.3c0.1-1.9,2.1-2.9,3.9-2.5c1.7,0.4,2.6,1.9,2.4,3.4C459.8,24.1,460.6,24.4,461.3,24.9
				z"/>
			<path class="st6" d="M478.1,24.2c0-0.4,0-0.8,0.1-1.2c0.7-2.7,4.5-3.3,6-1.1c1.2,1.7,0.1,4.4-2.3,4.1c1.8,0.4,3.4-0.6,4.5-1.9
				c1.2-1.6,1.8-3.7,1.6-5.5c-0.3-2.3-1.7-4.5-4-5.7c4.7,2.8,1.2,7.9-2.6,4.3c-1.7-1.4-3.9-1.8-5.8-1.3c-0.3,0.1-0.7,0.2-1,0.3
				c0.7,0,1.3,0.4,1.7,1c0.5,0.9,0.1,2.1-0.8,2.6c-1,0.5-2.2,0.1-2.7-0.8c-0.3-0.6-0.3-1.2,0-1.7c-1.4,1-2.5,2.2-3.5,3.4
				c1.9,1.4,3.9,2.8,6.3,3.7C476.1,24.1,476.9,23.9,478.1,24.2z"/>
			<path class="st6" d="M409.2,38c-1.9,0.6-4.1,0.1-5.8-1.3c-3.9-3.6-7.3,1.4-2.6,4.3c-2.3-1.2-3.7-3.3-4-5.7
				c-0.2-1.8,0.3-3.9,1.6-5.5c1.1-1.3,2.7-2.3,4.5-1.9c-2.3-0.3-3.5,2.4-2.3,4.1c1.5,2.2,5.3,1.6,6-1.1c0.1-0.4,0.1-0.8,0.1-1.2
				c1.1,0.3,2,0.1,2.6-0.3c2.4,0.9,4.3,2.4,6.3,3.7c-1,1.2-2.1,2.4-3.5,3.4c0.3-0.5,0.3-1.2,0-1.7c-0.5-0.9-1.7-1.3-2.7-0.8
				c-1,0.5-1.4,1.7-0.8,2.6c0.3,0.6,1,1,1.7,1C409.9,37.8,409.6,37.9,409.2,38z"/>
			<path class="st6" d="M416.9,31.8c-1.8-1.3-3.6-2.7-6-3.6c0.6-0.6,1.2-1.1,1.9-1.1c-0.8,0-1.3-0.5-1.9-1.1c2.3-1,4.2-2.3,6-3.6
				c0.4,0.4,0.7,0.8,1.1,1.1c1.2,1.1,2.5,2.1,3.9,2.8c-0.5,0.5-1,0.8-1.7,0.8c0.7,0,1.2,0.4,1.7,0.8c-1.4,0.8-2.7,1.7-3.9,2.8
				C417.7,31,417.3,31.4,416.9,31.8z"/>
			<path class="st4" d="M427.2,35.7c-3.8,0-6.3-1.2-8.7-2.9c1.5-1.6,3.2-2.8,5-3.8c0.7,0.4,1.5,0.7,2.7,0.6c-0.1,1.5,0.7,3,2.4,3.4
				c1.8,0.4,3.7-0.7,3.9-2.5c0.1-1.1-0.6-2.3-2-2.3c2.7,0.1,5.2,1.4,7,3.1c-0.9,0.8-1.9,1.6-3,2.2C432,35,429.5,35.7,427.2,35.7z"/>
			<path class="st4" d="M423.5,24.9c-1.9-0.9-3.6-2.2-5-3.8c2.4-1.6,4.9-2.9,8.7-2.9c2.4,0,4.8,0.7,7.4,2.2c1,0.6,2,1.3,3,2.2
				c-1.9,1.8-4.3,3-7,3.1c1.4-0.1,2.1-1.2,2-2.3c-0.1-1.9-2.1-2.9-3.9-2.5c-1.7,0.4-2.6,1.9-2.4,3.4C425,24.1,424.2,24.4,423.5,24.9
				z"/>
			<path class="st6" d="M406.8,24.2c0-0.4,0-0.8-0.1-1.2c-0.7-2.7-4.5-3.3-6-1.1c-1.2,1.7-0.1,4.4,2.3,4.1c-1.8,0.4-3.4-0.6-4.5-1.9
				c-1.2-1.6-1.8-3.7-1.6-5.5c0.3-2.3,1.7-4.5,4-5.7c-4.7,2.8-1.2,7.9,2.6,4.3c1.7-1.4,3.9-1.8,5.8-1.3c0.3,0.1,0.7,0.2,1,0.3
				c-0.7,0-1.3,0.4-1.7,1c-0.5,0.9-0.1,2.1,0.8,2.6c1,0.5,2.2,0.1,2.7-0.8c0.3-0.6,0.3-1.2,0-1.7c1.4,1,2.5,2.2,3.5,3.4
				c-1.9,1.4-3.9,2.8-6.3,3.7C408.7,24.1,407.9,23.9,406.8,24.2z"/>
		</g>
	</g>
	<path class="st17" d="M89.6,8.8c4.3-3.4,9.9-4.5,15.5-3.7c2.7,0.4,5.5,1.3,7.5,2.8c0.4-0.1,0.8-0.2,1.2-0.2c2,0,3.8,1.6,3.4,3.6
		c-0.1,0.5-0.4,1-0.8,1.3c0.4,0.9,0.7,2,0.9,3.2c0.3,1.5,0.3,3.9,0.3,5.9c3.1-0.6,6-2.1,8.1-4.5c-0.8-0.4-1.4-1.3-1.5-2.2
		c-0.1-0.6,0.1-1.3,0.4-2c-2.8,0.4-6-2-4.9-5.4c0.7,1.4,4.3-0.3,6.4,3.7c1.3-1,3.1-1.9,5.7-1.9c4.4-2.5,9.9-2.4,14.3,0.3V5.3h211.5
		v4.4c4.4-2.8,9.9-2.8,14.3-0.3c2.6,0.1,4.4,0.9,5.7,1.9c2.1-4,5.7-2.3,6.4-3.7c1.1,3.5-2.1,5.8-4.9,5.4c0.4,0.7,0.5,1.4,0.4,2
		c-0.1,0.9-0.7,1.7-1.5,2.2c2.1,2.3,5,3.8,8.1,4.5c0-2,0-4.4,0.3-5.9c0.2-1.2,0.5-2.2,0.9-3.2c-0.4-0.3-0.6-0.7-0.8-1.3
		c-0.4-2,1.4-3.6,3.4-3.6c0.4,0,0.8,0.1,1.2,0.2c2.1-1.4,4.8-2.4,7.5-2.8c5.6-0.8,11.2,0.3,15.5,3.7c2,0.9,4.2,1.3,6.4,1.2
		c-0.6-0.3-1.1-0.8-1.2-1.5c-0.2-1.1,0.6-2,1.7-2.2c1.1-0.2,2.1,0.6,2.3,1.7c0.1,0.8-0.2,1.5-0.9,1.9c1.1-0.2,2.2-0.5,3.2-0.8
		c0-0.1,0-0.1,0-0.2c0.5-2,4-4.5,9.1-2.9c3-0.5,5.8,1,7.3,3.5c1.5-2.5,4.3-4,7.3-3.5c5.1-1.5,8.6,0.9,9.1,2.9c0,0.1,0,0.1,0,0.2
		c1.1,0.4,2.1,0.7,3.2,0.8c-0.6-0.4-1-1.1-0.9-1.9c0.2-1.1,1.2-1.8,2.3-1.7c1.1,0.2,1.9,1.1,1.7,2.2c-0.1,0.7-0.6,1.2-1.2,1.5
		c2.2,0,4.4-0.4,6.4-1.2c4.3-3.4,9.9-4.5,15.5-3.7c2.7,0.4,5.5,1.3,7.5,2.8c0.4-0.1,0.8-0.2,1.2-0.2c2,0,3.8,1.6,3.4,3.6
		c-0.1,0.5-0.4,1-0.8,1.3c0.4,0.9,0.7,2,0.9,3.2c0.3,1.8,0.3,4.9,0.3,7.1c0.1,0.1,0.1,0.1,0.2,0.2c1,0.9,1.7,1.9,2.6,2.7V2.6H378.4
		c0.5,0.4,0.8,1,0.8,1.6c0,1.2-1,2.1-2.2,2.1c-1.2,0-2.2-0.9-2.2-2.1c0-0.7,0.3-1.3,0.8-1.6H128.4c0.5,0.4,0.8,1,0.8,1.6
		c0,1.2-1,2.1-2.2,2.1c-1.2,0-2.2-0.9-2.2-2.1c0-0.7,0.3-1.3,0.8-1.6H2.7v23.1C3.6,25,4.3,24,5.3,23.1C5.4,23,5.4,23,5.5,22.9
		c0-2.2-0.1-5.3,0.3-7.1c0.2-1.2,0.5-2.2,0.9-3.2c-0.4-0.3-0.6-0.7-0.8-1.3c-0.4-2,1.4-3.6,3.4-3.6c0.4,0,0.8,0.1,1.2,0.2
		c2.1-1.4,4.8-2.4,7.5-2.8c5.6-0.8,11.2,0.3,15.5,3.7c2,0.9,4.2,1.3,6.4,1.2c-0.6-0.3-1.1-0.8-1.2-1.5c-0.2-1.1,0.6-2,1.7-2.2
		c1.1-0.2,2.1,0.6,2.3,1.7c0.1,0.8-0.2,1.5-0.9,1.9C43,9.7,44.1,9.4,45.1,9c0-0.1,0-0.1,0-0.2c0.5-2,4-4.5,9.1-2.9
		c3-0.5,5.8,1,7.3,3.5c1.5-2.5,4.3-4,7.3-3.5C74,4.4,77.5,6.9,78,8.9C78,8.9,78,9,78,9c1.1,0.4,2.1,0.7,3.2,0.8
		c-0.6-0.4-1-1.1-0.9-1.9c0.2-1.1,1.2-1.8,2.3-1.7c1.1,0.2,1.9,1.1,1.7,2.2c-0.1,0.7-0.6,1.2-1.2,1.5C85.4,10.1,87.6,9.7,89.6,8.8
		L89.6,8.8z M414.4,45.2c-4.3,3.4-9.9,4.5-15.5,3.7c-2.7-0.4-5.5-1.3-7.5-2.8c-0.4,0.1-0.8,0.2-1.2,0.2c-2,0-3.8-1.6-3.4-3.6
		c0.1-0.5,0.4-1,0.8-1.3c-0.4-0.9-0.7-2-0.9-3.2c-0.3-1.5-0.3-3.9-0.3-5.9c-3.1,0.6-6,2.1-8.1,4.5c0.8,0.4,1.4,1.3,1.5,2.2
		c0.1,0.6-0.1,1.3-0.4,2c2.8-0.4,6,2,4.9,5.4c-0.7-1.4-4.3,0.3-6.4-3.7c-1.3,1-3.1,1.9-5.7,1.9c-4.4,2.5-9.9,2.4-14.3-0.3v4.4H146.3
		v-4.4c-4.4,2.8-9.9,2.8-14.3,0.3c-2.6-0.1-4.4-0.9-5.7-1.9c-2.1,4-5.7,2.3-6.4,3.7c-1.1-3.5,2.1-5.8,4.9-5.4
		c-0.4-0.7-0.5-1.4-0.4-2c0.1-0.9,0.7-1.7,1.5-2.2c-2.1-2.3-5-3.8-8.1-4.5c0,2,0,4.4-0.3,5.9c-0.2,1.2-0.5,2.2-0.9,3.2
		c0.4,0.3,0.6,0.7,0.8,1.3c0.4,2-1.4,3.6-3.4,3.6c-0.4,0-0.8-0.1-1.2-0.2c-2.1,1.4-4.8,2.4-7.5,2.8c-5.6,0.8-11.2-0.3-15.5-3.7
		c-2-0.9-4.2-1.3-6.4-1.2c0.6,0.3,1.1,0.8,1.2,1.5c0.2,1.1-0.6,2-1.7,2.2c-1.1,0.2-2.1-0.6-2.3-1.7c-0.1-0.8,0.2-1.5,0.9-1.9
		c-1.1,0.2-2.2,0.5-3.2,0.8c0,0.1,0,0.1,0,0.2c-0.5,2-4,4.5-9.1,2.9c-3,0.5-5.8-1-7.3-3.5c-1.5,2.5-4.3,4-7.3,3.5
		c-5.1,1.5-8.6-0.9-9.1-2.9c0-0.1,0-0.1,0-0.2c-1.1-0.4-2.1-0.7-3.2-0.8c0.6,0.4,1,1.1,0.9,1.9c-0.2,1.1-1.2,1.8-2.3,1.7
		c-1.1-0.2-1.9-1.1-1.7-2.2c0.1-0.7,0.6-1.2,1.2-1.5c-2.2,0-4.4,0.4-6.4,1.2c-4.3,3.4-9.9,4.5-15.5,3.7c-2.7-0.4-5.5-1.3-7.5-2.8
		c-0.4,0.1-0.8,0.2-1.2,0.2c-2,0-3.8-1.6-3.4-3.6c0.1-0.5,0.4-1,0.8-1.3c-0.4-0.9-0.7-2-0.9-3.2c-0.3-1.8-0.3-4.9-0.3-7.1
		C5.4,31,5.4,31,5.3,30.9c-1-0.9-1.7-1.9-2.6-2.7v23.1h122.8c-0.5-0.4-0.8-1-0.8-1.6c0-1.2,1-2.1,2.2-2.1c1.2,0,2.2,0.9,2.2,2.1
		c0,0.7-0.3,1.3-0.8,1.6h247.3c-0.5-0.4-0.8-1-0.8-1.6c0-1.2,1-2.1,2.2-2.1c1.2,0,2.2,0.9,2.2,2.1c0,0.7-0.3,1.3-0.8,1.6h122.8V28.3
		c-0.9,0.8-1.6,1.8-2.6,2.7c-0.1,0.1-0.1,0.1-0.2,0.2c0,2.2,0.1,5.3-0.3,7.1c-0.2,1.2-0.5,2.2-0.9,3.2c0.4,0.3,0.6,0.7,0.8,1.3
		c0.4,2-1.4,3.6-3.4,3.6c-0.4,0-0.8-0.1-1.2-0.2c-2.1,1.4-4.8,2.4-7.5,2.8c-5.6,0.8-11.2-0.3-15.5-3.7c-2-0.9-4.2-1.3-6.4-1.2
		c0.6,0.3,1.1,0.8,1.2,1.5c0.2,1.1-0.6,2-1.7,2.2c-1.1,0.2-2.1-0.6-2.3-1.7c-0.1-0.8,0.2-1.5,0.9-1.9c-1.1,0.2-2.2,0.5-3.2,0.8
		c0,0.1,0,0.1,0,0.2c-0.5,2-4,4.5-9.1,2.9c-3,0.5-5.8-1-7.3-3.5c-1.5,2.5-4.3,4-7.3,3.5c-5.1,1.5-8.6-0.9-9.1-2.9c0-0.1,0-0.1,0-0.2
		c-1.1-0.4-2.1-0.7-3.2-0.8c0.6,0.4,1,1.1,0.9,1.9c-0.2,1.1-1.2,1.8-2.3,1.7c-1.1-0.2-1.9-1.1-1.7-2.2c0.1-0.7,0.6-1.2,1.2-1.5
		C418.6,43.9,416.4,44.3,414.4,45.2z"/>
</g>
</svg>
